<svg xmlns="http://www.w3.org/2000/svg" xmlns:xlink="http://www.w3.org/1999/xlink" id="Layer_1" width="100%" x="0" y="0" enable-background="new 0 0 488 511" version="1.1" viewBox="0 0 488 511" xml:space="preserve"><path fill="#000" stroke="none" d="M238.000000,512.000000 C158.666687,512.000000 79.833374,512.000000 1.000042,512.000000 C1.000028,341.666718 1.000028,171.333450 1.000014,1.000134 C163.666565,1.000089 326.333130,1.000089 488.999756,1.000045 C488.999847,171.333191 488.999847,341.666382 488.999939,511.999786 C405.500000,512.000000 322.000000,512.000000 238.000000,512.000000 M331.902008,282.885345 C331.902008,282.885345 331.883270,282.814026 332.451782,282.485779 C332.681000,282.245392 332.954193,282.033813 333.133270,281.760529 C347.858490,259.290649 353.081238,234.240982 353.241669,207.805023 C353.259888,204.803238 351.717621,203.938965 349.118927,204.545349 C338.640625,206.990463 327.865570,208.636414 317.806091,212.259766 C309.190094,215.363220 301.400574,220.761169 293.143616,225.113098 C293.143616,225.113098 293.112640,225.215073 292.417999,225.294708 C287.591370,228.941635 282.800476,232.637634 277.911774,236.199432 C276.754578,237.042526 275.268951,237.434937 273.163910,237.596085 C273.656738,236.783218 273.959045,235.691345 274.673706,235.203323 C278.933777,232.294205 279.466522,228.406555 278.083771,223.818268 C275.306763,214.603806 273.295929,205.088943 269.721497,196.199646 C263.421814,180.533020 253.666962,167.198578 239.953232,156.962585 C237.466537,155.106506 235.873703,155.262543 233.487686,157.148788 C218.873016,168.702271 208.760880,183.486786 202.233139,200.738312 C197.328262,213.700928 193.798981,227.019714 194.573151,241.862976 C194.598404,242.625290 194.623672,243.387589 194.283035,244.791046 C193.116928,273.081390 201.821274,298.393738 218.333649,321.610504 C202.854401,321.665710 171.261261,301.398376 156.012878,281.420410 C142.026062,263.095306 135.049088,242.154587 134.118439,218.291901 C155.684250,222.409668 173.161026,232.741592 190.064743,245.288025 C190.744858,241.154861 190.954819,237.385483 190.638016,233.660904 C190.517029,232.238617 189.519531,230.470093 188.362595,229.619568 C169.636429,215.853012 148.950562,206.918808 125.657776,204.450058 C122.386024,204.103287 121.127960,205.083450 121.174515,208.448242 C121.710526,247.183411 133.834412,280.932312 163.385605,307.268707 C164.254379,308.042969 164.801987,309.177612 166.077820,310.946075 C163.301056,311.094391 161.537506,311.283722 159.775864,311.267212 C148.283279,311.159576 136.791397,310.972137 125.298706,310.884430 C119.514557,310.840271 116.035530,313.254517 116.419212,317.247833 C116.897301,322.223724 120.702187,323.107819 124.792442,323.160828 C154.103638,323.540833 183.415024,323.913940 212.727402,324.170410 C214.779068,324.188324 216.839066,323.252777 219.287827,322.666626 C220.901367,324.130188 222.981049,326.016510 225.031586,327.962952 C225.031586,327.962952 225.095520,327.943634 225.282425,328.579224 C227.915802,330.811157 230.719070,332.875031 233.137207,335.319855 C235.832657,338.045044 238.245270,337.832764 240.833832,335.415131 C245.046890,331.480225 249.203140,327.482330 253.495590,323.636292 C254.434021,322.795441 255.844360,322.481262 257.452698,322.520966 C259.652527,323.119751 261.857025,324.254425 264.051483,324.235291 C288.964722,324.017792 313.876465,323.626160 338.788513,323.275055 C343.273254,323.211853 347.765808,323.261078 352.239624,322.999817 C355.930573,322.784302 358.181366,320.595734 358.029785,316.858856 C357.883209,313.246735 355.777863,310.986145 351.963409,310.970245 C348.326721,310.955078 344.689148,311.161255 340.114990,311.154327 C334.017578,311.302063 327.920197,311.449829 321.249878,311.263794 C318.814209,311.423584 316.378510,311.583374 313.317932,311.609711 C312.897949,311.661865 312.477936,311.714050 311.331909,311.449738 C306.259766,309.879547 310.237000,308.497070 311.431183,307.080200 C318.226624,299.017731 325.029968,290.961884 331.902008,282.885345 z" opacity="1"/><path fill="#0B91BF" stroke="none" d="M312.057953,311.766235 C312.477936,311.714050 312.897949,311.661865 313.870178,311.886322 C316.889191,311.974457 319.355988,311.786011 321.822784,311.597565 C327.920197,311.449829 334.017578,311.302063 340.947815,311.382874 C345.095306,311.840454 348.552582,311.581024 351.668457,312.490784 C353.399841,312.996307 355.431335,315.323792 355.689514,317.072021 C355.876831,318.340454 353.628052,320.464294 351.999725,321.358246 C350.532471,322.163788 348.433563,321.933777 346.610474,321.958801 C320.956909,322.311523 295.302887,322.635559 269.648743,322.942322 C268.033325,322.961639 266.415558,322.780792 264.798889,322.693085 C265.562500,321.316498 266.287781,320.949158 267.037994,320.642822 C285.205963,313.224579 302.475189,304.496613 315.157867,288.751862 C321.739838,280.580780 328.600769,272.630035 331.006714,261.744354 C331.135681,261.354004 331.224976,261.212036 331.599487,260.907593 C332.472412,259.951630 333.388641,259.236084 333.598206,258.352905 C336.423859,246.444870 339.164795,234.516617 341.871094,222.580750 C342.045929,221.809723 341.835144,220.922668 341.684753,220.111649 C341.161438,217.289490 339.708099,216.216156 336.718140,217.047775 C319.918671,221.720230 304.299561,228.836731 290.365417,239.393845 C288.328217,240.937332 286.836090,243.200302 285.077301,245.095337 C285.062866,245.060287 285.130646,245.094177 284.795044,245.163345 C282.581757,247.366440 280.704102,249.500366 278.796326,251.737915 C278.766144,251.841553 278.567505,251.925980 278.258423,252.013779 C261.757355,263.858978 242.819305,305.095978 247.127579,313.925903 C249.241882,311.179596 251.579117,309.014465 252.843689,306.341766 C257.027649,297.498932 261.133728,288.592621 264.662445,279.475647 C267.049469,273.308472 271.818329,269.574585 276.568207,265.307312 C275.735291,272.394867 274.181976,279.101227 272.243591,285.694366 C266.805908,304.190186 256.830627,319.796783 242.193924,332.426788 C238.455521,335.652649 235.177536,335.393341 231.569138,332.296814 C229.609299,330.614990 227.265900,329.380127 225.095520,327.943634 C225.095520,327.943634 225.031586,327.962952 224.998032,327.587708 C224.189240,325.947876 223.569214,324.550140 222.615753,323.438385 C205.111115,303.027771 196.724579,279.192505 195.754196,252.515015 C195.652435,249.716934 195.029877,246.937820 194.648926,244.149902 C194.623672,243.387589 194.598404,242.625290 194.858490,241.196503 C195.361313,239.395020 195.692810,238.268646 195.779617,237.123749 C198.002518,207.803955 208.398834,182.269638 230.297150,161.964264 C236.409195,156.296829 237.293961,156.246902 243.394699,161.736481 C262.702118,179.109741 272.888794,201.148087 276.726318,226.461472 C277.488983,231.492004 275.297394,234.034805 269.366669,234.911316 C269.040253,233.331940 268.678986,231.737442 268.383484,230.130859 C264.885773,211.116135 259.398926,192.967926 246.520859,177.839722 C237.513535,167.258575 235.657166,167.091537 227.173813,178.063431 C210.002625,200.271729 203.294525,225.618546 205.140564,253.411011 C205.222137,254.638885 206.020004,255.819199 206.568909,257.398102 C206.652374,258.544403 206.651138,259.314270 206.493546,260.436584 C207.331146,266.218628 208.325104,271.648163 209.377563,277.148376 C209.436081,277.218994 209.348221,277.380005 209.344879,277.731781 C209.591476,278.728088 209.841400,279.372589 210.211914,280.219879 C210.475128,280.711304 210.540115,281.016510 210.471466,281.739746 C211.420929,284.343231 212.426361,286.545166 213.332703,288.736145 C213.233597,288.725128 213.421371,288.765503 213.353882,289.132965 C213.954483,290.950348 214.622574,292.400299 215.242828,293.863464 C215.194977,293.876709 215.261307,293.802826 215.248749,294.128693 C215.697708,295.140198 216.159225,295.825806 216.648849,296.515686 C216.676941,296.519928 216.674164,296.576660 216.656738,296.912689 C217.269775,298.088135 217.900238,298.927551 218.661835,299.960571 C218.968765,300.585663 219.144608,301.017120 219.366425,301.786011 C219.788177,302.671143 220.163940,303.218811 220.748230,304.014709 C223.207535,307.351044 225.458344,310.439178 227.709137,313.527283 C228.073502,313.294067 228.437866,313.060852 228.802231,312.827637 C225.532669,298.868713 219.806778,285.873962 212.882843,272.987671 C212.338898,271.381989 211.787384,270.141113 211.142059,268.593475 C211.051956,267.861053 211.055634,267.435455 211.219360,266.663055 C211.583145,263.140442 211.786896,259.964569 212.069687,255.556458 C224.447601,268.806976 229.486435,284.764801 237.248871,300.662537 C239.122849,297.020874 240.489075,294.934143 241.325684,292.653168 C250.638992,267.260345 266.183136,246.552536 287.791962,230.326126 C289.744080,228.860245 291.347351,226.929794 293.112640,225.215073 C293.112640,225.215073 293.143616,225.113098 293.557068,225.115448 C301.135590,221.638077 308.065430,217.496155 315.525269,214.846191 C324.854248,211.532257 334.502502,208.800827 344.234070,207.040497 C351.471741,205.731277 352.156982,207.117188 351.792023,214.679718 C350.693665,237.440536 345.723145,259.089172 333.451172,278.658600 C332.680206,279.888031 332.394653,281.421814 331.883270,282.814026 C331.883270,282.814026 331.902008,282.885345 331.554352,283.007996 C330.563477,283.647125 329.842499,284.091858 329.288788,284.691071 C322.231232,292.328735 315.157288,299.952332 308.209503,307.689056 C307.350891,308.645172 307.196381,310.233673 306.715607,311.529114 C308.496399,311.608154 310.277161,311.687195 312.057953,311.766235 z" opacity="1"/><path fill="#197798" stroke="none" d="M194.465973,244.470474 C195.029877,246.937820 195.652435,249.716934 195.754196,252.515015 C196.724579,279.192505 205.111115,303.027771 222.615753,323.438385 C223.569214,324.550140 224.189240,325.947876 225.012604,327.557678 C222.981049,326.016510 220.901367,324.130188 219.287827,322.666626 C216.839066,323.252777 214.779068,324.188324 212.727402,324.170410 C183.415024,323.913940 154.103638,323.540833 124.792442,323.160828 C120.702187,323.107819 116.897301,322.223724 116.419212,317.247833 C116.035530,313.254517 119.514557,310.840271 125.298706,310.884430 C136.791397,310.972137 148.283279,311.159576 159.775864,311.267212 C161.537506,311.283722 163.301056,311.094391 166.077820,310.946075 C164.801987,309.177612 164.254379,308.042969 163.385605,307.268707 C133.834412,280.932312 121.710526,247.183411 121.174515,208.448242 C121.127960,205.083450 122.386024,204.103287 125.657776,204.450058 C148.950562,206.918808 169.636429,215.853012 188.362595,229.619568 C189.519531,230.470093 190.517029,232.238617 190.638016,233.660904 C190.954819,237.385483 190.744858,241.154861 190.064743,245.288025 C173.161026,232.741592 155.684250,222.409668 134.118439,218.291901 C135.049088,242.154587 142.026062,263.095306 156.012878,281.420410 C171.261261,301.398376 202.854401,321.665710 218.333649,321.610504 C201.821274,298.393738 193.116928,273.081390 194.465973,244.470474 M151.211548,278.275452 C140.508224,261.406860 133.696274,243.264450 132.750305,223.101059 C132.457596,216.861786 133.453827,215.383057 139.329880,217.270798 C152.309311,221.440582 165.320541,225.664368 176.480881,233.984360 C180.115509,236.693954 184.000031,239.068344 188.127029,241.835236 C189.894531,236.280869 189.720352,232.156555 185.046448,229.252975 C180.524353,226.443710 176.146988,223.356339 171.442841,220.893967 C158.694916,214.221069 145.378433,208.973602 131.030167,206.996414 C124.161987,206.049988 122.424171,207.803131 123.139000,214.661850 C124.017120,223.087158 124.950974,231.539841 126.535652,239.852020 C131.057297,263.569580 141.800385,284.014160 159.509201,300.646698 C163.055786,303.977722 166.416351,307.506836 170.687775,311.767639 C168.015015,312.374573 166.790833,312.898743 165.569641,312.891876 C153.073029,312.821533 140.576965,312.604553 128.080551,312.588440 C125.838776,312.585541 123.414734,312.923950 121.423813,313.852753 C120.284370,314.384338 119.245590,316.445984 119.293686,317.777802 C119.329796,318.778015 121.031197,319.990814 122.246635,320.596039 C123.373665,321.157196 124.837318,321.178650 126.156250,321.197815 C150.642685,321.554352 175.129501,321.888214 199.616867,322.171082 C201.135300,322.188660 202.659042,321.745850 204.443527,321.477661 C203.957153,320.332520 203.888565,319.644226 203.563187,319.486816 C200.431488,317.971985 197.257065,316.545380 194.093903,315.095612 C176.508255,307.035767 162.906494,294.315369 151.211548,278.275452 z" opacity="1"/><path fill="#197798" stroke="none" d="M206.484207,257.021667 C206.020004,255.819199 205.222137,254.638885 205.140564,253.411011 C203.294525,225.618546 210.002625,200.271729 227.173813,178.063431 C235.657166,167.091537 237.513535,167.258575 246.520859,177.839722 C259.398926,192.967926 264.885773,211.116135 268.383484,230.130859 C268.678986,231.737442 269.040253,233.331940 269.366669,234.911316 C275.297394,234.034805 277.488983,231.492004 276.726318,226.461472 C272.888794,201.148087 262.702118,179.109741 243.394699,161.736481 C237.293961,156.246902 236.409195,156.296829 230.297150,161.964264 C208.398834,182.269638 198.002518,207.803955 195.779617,237.123749 C195.692810,238.268646 195.361313,239.395020 194.941284,240.822662 C193.798981,227.019714 197.328262,213.700928 202.233139,200.738312 C208.760880,183.486786 218.873016,168.702271 233.487686,157.148788 C235.873703,155.262543 237.466537,155.106506 239.953232,156.962585 C253.666962,167.198578 263.421814,180.533020 269.721497,196.199646 C273.295929,205.088943 275.306763,214.603806 278.083771,223.818268 C279.466522,228.406555 278.933777,232.294205 274.673706,235.203323 C273.959045,235.691345 273.656738,236.783218 273.565765,237.807495 C273.967621,238.018890 273.999054,237.999527 273.823212,237.591675 C271.950073,237.952164 270.252808,238.720490 268.059540,239.713333 C267.647522,236.580231 267.285126,233.821884 266.922058,231.063629 C264.093323,209.573380 256.225830,190.344910 241.379013,174.263550 C237.678619,170.255478 236.500305,170.208237 232.578583,174.358780 C220.632889,187.001480 213.372696,202.099716 209.204163,218.873642 C206.076599,231.458725 205.707870,244.186157 206.484207,257.021667 z" opacity="1"/><path fill="#197798" stroke="none" d="M225.188965,328.261414 C227.265900,329.380127 229.609299,330.614990 231.569138,332.296814 C235.177536,335.393341 238.455521,335.652649 242.193924,332.426788 C256.830627,319.796783 266.805908,304.190186 272.243591,285.694366 C274.181976,279.101227 275.735291,272.394867 276.568207,265.307312 C271.818329,269.574585 267.049469,273.308472 264.662445,279.475647 C261.133728,288.592621 257.027649,297.498932 252.843689,306.341766 C251.579117,309.014465 249.241882,311.179596 247.127579,313.925903 C242.819305,305.095978 261.757355,263.858978 278.166626,252.320404 C263.819031,268.414368 252.866470,286.203461 248.894318,307.752716 C250.654587,306.826111 251.935791,305.561584 252.608200,304.029816 C256.535278,295.083466 259.702515,285.738373 264.354248,277.196625 C267.861725,270.756042 273.208282,265.317047 277.736267,259.432251 C278.180359,259.728821 278.624481,260.025360 279.068573,260.321930 C279.068573,261.458466 279.217529,262.617950 279.046417,263.728088 C276.097137,282.859436 270.089508,300.813721 258.774139,316.769836 C257.750885,318.212738 257.566772,320.250763 257.004639,321.990753 C257.016327,321.969086 257.037354,321.924530 257.037354,321.924530 C255.844360,322.481262 254.434021,322.795441 253.495590,323.636292 C249.203140,327.482330 245.046890,331.480225 240.833832,335.415131 C238.245270,337.832764 235.832657,338.045044 233.137207,335.319855 C230.719070,332.875031 227.915802,330.811157 225.188965,328.261414 z" opacity="1"/><path fill="#197798" stroke="none" d="M330.967041,261.992767 C328.600769,272.630035 321.739838,280.580780 315.157867,288.751862 C302.475189,304.496613 285.205963,313.224579 267.037994,320.642822 C266.287781,320.949158 265.562500,321.316498 264.798889,322.693085 C266.415558,322.780792 268.033325,322.961639 269.648743,322.942322 C295.302887,322.635559 320.956909,322.311523 346.610474,321.958801 C348.433563,321.933777 350.532471,322.163788 351.999725,321.358246 C353.628052,320.464294 355.876831,318.340454 355.689514,317.072021 C355.431335,315.323792 353.399841,312.996307 351.668457,312.490784 C348.552582,311.581024 345.095306,311.840454 341.416321,311.440796 C344.689148,311.161255 348.326721,310.955078 351.963409,310.970245 C355.777863,310.986145 357.883209,313.246735 358.029785,316.858856 C358.181366,320.595734 355.930573,322.784302 352.239624,322.999817 C347.765808,323.261078 343.273254,323.211853 338.788513,323.275055 C313.876465,323.626160 288.964722,324.017792 264.051483,324.235291 C261.857025,324.254425 259.652527,323.119751 257.245026,322.222748 C257.037354,321.924530 257.016327,321.969086 257.352020,322.156189 C264.134918,319.755188 270.597687,317.205048 277.026154,314.571167 C291.240692,308.747253 303.657959,300.181427 313.237549,288.238098 C319.821106,280.030060 325.103210,270.778107 330.967041,261.992767 z" opacity="1"/><path fill="#197798" stroke="none" d="M292.765320,225.254883 C291.347351,226.929794 289.744080,228.860245 287.791962,230.326126 C266.183136,246.552536 250.638992,267.260345 241.325684,292.653168 C240.489075,294.934143 239.122849,297.020874 237.248871,300.662537 C229.486435,284.764801 224.447601,268.806976 212.069687,255.556458 C211.786896,259.964569 211.583145,263.140442 211.096893,266.708496 C210.814362,267.100739 210.559418,267.042847 210.591766,266.790955 C210.568314,266.379272 210.512527,266.219421 210.488220,265.751587 C210.388046,264.634369 210.256363,263.825134 210.188599,262.637238 C210.103622,261.513550 209.954727,260.768463 209.848541,259.636566 C209.801071,258.479828 209.710892,257.709930 209.678116,256.496460 C209.751511,254.256729 209.767487,252.460602 210.093491,250.724121 C211.108307,251.238419 211.813095,251.693069 212.606781,252.444748 C213.134384,253.161789 213.573105,253.581802 214.158234,254.300140 C222.116577,268.084503 229.928528,281.570526 237.779160,295.123352 C237.572250,295.263672 238.124557,295.089874 238.314468,294.726624 C239.311462,292.819641 240.334076,290.911896 241.135666,288.919098 C248.400299,270.859161 258.415741,254.631210 272.615265,241.132584 C273.379059,240.406479 273.551392,239.058182 273.999054,237.999527 C273.999054,237.999527 273.967621,238.018890 273.951019,238.026779 C275.268951,237.434937 276.754578,237.042526 277.911774,236.199432 C282.800476,232.637634 287.591370,228.941635 292.765320,225.254883 z" opacity="1"/><path fill="#197798" stroke="none" d="M332.167542,282.649902 C332.394653,281.421814 332.680206,279.888031 333.451172,278.658600 C345.723145,259.089172 350.693665,237.440536 351.792023,214.679718 C352.156982,207.117188 351.471741,205.731277 344.234070,207.040497 C334.502502,208.800827 324.854248,211.532257 315.525269,214.846191 C308.065430,217.496155 301.135590,221.638077 293.608032,225.131073 C301.400574,220.761169 309.190094,215.363220 317.806091,212.259766 C327.865570,208.636414 338.640625,206.990463 349.118927,204.545349 C351.717621,203.938965 353.259888,204.803238 353.241669,207.805023 C353.081238,234.240982 347.858490,259.290649 333.133270,281.760529 C332.954193,282.033813 332.681000,282.245392 332.167542,282.649902 z" opacity="1"/><path fill="#197798" stroke="none" d="M311.694946,311.607971 C310.277161,311.687195 308.496399,311.608154 306.715607,311.529114 C307.196381,310.233673 307.350891,308.645172 308.209503,307.689056 C315.157288,299.952332 322.231232,292.328735 329.288788,284.691071 C329.842499,284.091858 330.563477,283.647125 331.518646,283.017212 C325.029968,290.961884 318.226624,299.017731 311.431183,307.080200 C310.237000,308.497070 306.259766,309.879547 311.694946,311.607971 z" opacity="1"/><path fill="#197798" stroke="none" d="M321.536316,311.430664 C319.355988,311.786011 316.889191,311.974457 314.182617,311.953064 C316.378510,311.583374 318.814209,311.423584 321.536316,311.430664 z" opacity="1"/><path fill="#000" stroke="none" d="M210.124695,263.015869 C210.256363,263.825134 210.388046,264.634369 210.422592,265.870850 C210.270279,266.587860 210.348267,266.836121 210.559418,267.042847 C210.559418,267.042847 210.814362,267.100739 210.936829,267.055298 C211.055634,267.435455 211.051956,267.861053 211.029221,268.926270 C210.946335,270.028534 210.882523,270.491211 210.553253,271.097473 C209.763855,271.540497 209.239929,271.839966 208.463242,271.809082 C207.690277,267.680542 207.170090,263.882355 206.649902,260.084137 C206.651138,259.314270 206.652374,258.544403 206.568909,257.398102 C205.707870,244.186157 206.076599,231.458725 209.204163,218.873642 C213.372696,202.099716 220.632889,187.001480 232.578583,174.358780 C236.500305,170.208237 237.678619,170.255478 241.379013,174.263550 C256.225830,190.344910 264.093323,209.573380 266.922058,231.063629 C267.285126,233.821884 267.647522,236.580231 268.059540,239.713333 C270.252808,238.720490 271.950073,237.952164 273.823212,237.591675 C273.551392,239.058182 273.379059,240.406479 272.615265,241.132584 C258.415741,254.631210 248.400299,270.859161 241.135666,288.919098 C240.334076,290.911896 239.311462,292.819641 238.314468,294.726624 C238.124557,295.089874 237.572250,295.263672 237.779160,295.123352 C229.928528,281.570526 222.116577,268.084503 214.046478,254.015793 C213.364853,253.004654 212.941376,252.576187 212.517883,252.147720 C211.813095,251.693069 211.108307,251.238419 209.899353,250.903107 C209.470352,252.994965 209.545532,254.967499 209.620697,256.940033 C209.710892,257.709930 209.801071,258.479828 209.720856,259.877838 C209.741852,261.342590 209.933273,262.179230 210.124695,263.015869 z" opacity="1"/><path fill="#000" stroke="none" d="M331.006714,261.744354 C325.103210,270.778107 319.821106,280.030060 313.237549,288.238098 C303.657959,300.181427 291.240692,308.747253 277.026154,314.571167 C270.597687,317.205048 264.134918,319.755188 257.340332,322.177856 C257.566772,320.250763 257.750885,318.212738 258.774139,316.769836 C270.089508,300.813721 276.097137,282.859436 279.046417,263.728088 C279.217529,262.617950 279.068573,261.458466 279.068573,260.321930 C278.624481,260.025360 278.180359,259.728821 277.736267,259.432251 C273.208282,265.317047 267.861725,270.756042 264.354248,277.196625 C259.702515,285.738373 256.535278,295.083466 252.608200,304.029816 C251.935791,305.561584 250.654587,306.826111 248.894318,307.752716 C252.866470,286.203461 263.819031,268.414368 278.475708,252.232605 C278.567505,251.925980 278.766144,251.841553 279.091583,251.608200 C281.321564,249.281296 283.226105,247.187744 285.130646,245.094177 C285.130646,245.094177 285.062866,245.060287 285.414124,245.011169 C299.945679,233.681213 315.310608,224.691528 332.967651,219.891830 C340.962250,217.718674 341.616058,218.108475 340.283875,226.428406 C340.231293,226.756805 340.178528,227.087051 340.094818,227.408340 C337.170288,238.629532 334.242035,249.849747 331.314301,261.070099 C331.224976,261.212036 331.135681,261.354004 331.006714,261.744354 z" opacity="1"/><path fill="#01121C" stroke="none" d="M208.716019,272.139435 C209.239929,271.839966 209.763855,271.540497 210.751862,271.349182 C211.769043,272.089020 212.322144,272.720734 212.875244,273.352478 C219.806778,285.873962 225.532669,298.868713 228.802231,312.827637 C228.437866,313.060852 228.073502,313.294067 227.709137,313.527283 C225.458344,310.439178 223.207535,307.351044 220.689728,303.683472 C220.055298,302.552185 219.687866,302.000397 219.320450,301.448578 C219.144608,301.017120 218.968765,300.585663 218.618652,299.641907 C217.854294,298.278595 217.264236,297.427612 216.674164,296.576660 C216.674164,296.576660 216.676941,296.519928 216.611786,296.205170 C216.118210,295.194550 215.689758,294.498688 215.261307,293.802826 C215.261307,293.802826 215.194977,293.876709 215.228119,293.515503 C214.647949,291.691376 214.034668,290.228455 213.421371,288.765503 C213.421371,288.765503 213.233597,288.725128 213.311172,288.368469 C212.434982,285.787292 211.481201,283.562775 210.527435,281.338257 C210.540115,281.016510 210.475128,280.711304 210.235382,279.866730 C209.874924,278.667206 209.611572,278.023621 209.348221,277.380005 C209.348221,277.380005 209.436081,277.218994 209.407272,276.727234 C209.157654,274.870117 208.936844,273.504761 208.716019,272.139435 z" opacity="1"/><path fill="#197798" stroke="none" d="M331.599487,260.907593 C334.242035,249.849747 337.170288,238.629532 340.094818,227.408340 C340.178528,227.087051 340.231293,226.756805 340.283875,226.428406 C341.616058,218.108475 340.962250,217.718674 332.967651,219.891830 C315.310608,224.691528 299.945679,233.681213 285.428589,245.046204 C286.836090,243.200302 288.328217,240.937332 290.365417,239.393845 C304.299561,228.836731 319.918671,221.720230 336.718140,217.047775 C339.708099,216.216156 341.161438,217.289490 341.684753,220.111649 C341.835144,220.922668 342.045929,221.809723 341.871094,222.580750 C339.164795,234.516617 336.423859,246.444870 333.598206,258.352905 C333.388641,259.236084 332.472412,259.951630 331.599487,260.907593 z" opacity="1"/><path fill="#197798" stroke="none" d="M208.463242,271.809082 C208.936844,273.504761 209.157654,274.870117 209.348755,276.656586 C208.325104,271.648163 207.331146,266.218628 206.493546,260.436584 C207.170090,263.882355 207.690277,267.680542 208.463242,271.809082 z" opacity="1"/><path fill="#197798" stroke="none" d="M284.795044,245.163345 C283.226105,247.187744 281.321564,249.281296 279.121765,251.504578 C280.704102,249.500366 282.581757,247.366440 284.795044,245.163345 z" opacity="1"/><path fill="#197798" stroke="none" d="M210.471466,281.739746 C211.481201,283.562775 212.434982,285.787292 213.410278,288.379456 C212.426361,286.545166 211.420929,284.343231 210.471466,281.739746 z" opacity="1"/><path fill="#197798" stroke="none" d="M212.882843,272.987671 C212.322144,272.720734 211.769043,272.089020 211.017334,271.205566 C210.882523,270.491211 210.946335,270.028534 211.123016,269.233093 C211.787384,270.141113 212.338898,271.381989 212.882843,272.987671 z" opacity="1"/><path fill="#197798" stroke="none" d="M213.353882,289.132965 C214.034668,290.228455 214.647949,291.691376 215.275955,293.502258 C214.622574,292.400299 213.954483,290.950348 213.353882,289.132965 z" opacity="1"/><path fill="#197798" stroke="none" d="M216.656738,296.912689 C217.264236,297.427612 217.854294,298.278595 218.487534,299.448273 C217.900238,298.927551 217.269775,298.088135 216.656738,296.912689 z" opacity="1"/><path fill="#197798" stroke="none" d="M215.248749,294.128693 C215.689758,294.498688 216.118210,295.194550 216.583710,296.200928 C216.159225,295.825806 215.697708,295.140198 215.248749,294.128693 z" opacity="1"/><path fill="#197798" stroke="none" d="M209.344879,277.731781 C209.611572,278.023621 209.874924,278.667206 210.114807,279.663971 C209.841400,279.372589 209.591476,278.728088 209.344879,277.731781 z" opacity="1"/><path fill="#197798" stroke="none" d="M219.366425,301.786011 C219.687866,302.000397 220.055298,302.552185 220.481216,303.435242 C220.163940,303.218811 219.788177,302.671143 219.366425,301.786011 z" opacity="1"/><path fill="#0598CA" stroke="none" d="M151.439575,278.553040 C162.906494,294.315369 176.508255,307.035767 194.093903,315.095612 C197.257065,316.545380 200.431488,317.971985 203.563187,319.486816 C203.888565,319.644226 203.957153,320.332520 204.443527,321.477661 C202.659042,321.745850 201.135300,322.188660 199.616867,322.171082 C175.129501,321.888214 150.642685,321.554352 126.156250,321.197815 C124.837318,321.178650 123.373665,321.157196 122.246635,320.596039 C121.031197,319.990814 119.329796,318.778015 119.293686,317.777802 C119.245590,316.445984 120.284370,314.384338 121.423813,313.852753 C123.414734,312.923950 125.838776,312.585541 128.080551,312.588440 C140.576965,312.604553 153.073029,312.821533 165.569641,312.891876 C166.790833,312.898743 168.015015,312.374573 170.687775,311.767639 C166.416351,307.506836 163.055786,303.977722 159.509201,300.646698 C141.800385,284.014160 131.057297,263.569580 126.535652,239.852020 C124.950974,231.539841 124.017120,223.087158 123.139000,214.661850 C122.424171,207.803131 124.161987,206.049988 131.030167,206.996414 C145.378433,208.973602 158.694916,214.221069 171.442841,220.893967 C176.146988,223.356339 180.524353,226.443710 185.046448,229.252975 C189.720352,232.156555 189.894531,236.280869 188.127029,241.835236 C184.000031,239.068344 180.115509,236.693954 176.480881,233.984360 C165.320541,225.664368 152.309311,221.440582 139.329880,217.270798 C133.453827,215.383057 132.457596,216.861786 132.750305,223.101059 C133.696274,243.264450 140.508224,261.406860 151.439575,278.553040 z" opacity="1"/><path fill="#01121C" stroke="none" d="M209.678131,256.496460 C209.545532,254.967499 209.470352,252.994965 209.589325,250.843445 C209.767487,252.460602 209.751511,254.256729 209.678131,256.496460 z" opacity="1"/><path fill="#01121C" stroke="none" d="M210.188599,262.637238 C209.933273,262.179230 209.741852,261.342590 209.678131,260.264679 C209.954727,260.768463 210.103622,261.513550 210.188599,262.637238 z" opacity="1"/><path fill="#01121C" stroke="none" d="M212.606781,252.444748 C212.941376,252.576187 213.364853,253.004654 213.900085,253.717468 C213.573105,253.581802 213.134384,253.161789 212.606781,252.444748 z" opacity="1"/><path fill="#01121C" stroke="none" d="M210.591766,266.790955 C210.348267,266.836121 210.270279,266.587860 210.391083,266.178833 C210.512527,266.219421 210.568314,266.379272 210.591766,266.790955 z" opacity="1"/></svg>