<svg xmlns="http://www.w3.org/2000/svg" xmlns:xlink="http://www.w3.org/1999/xlink" x="0" y="0" version="1.1" viewBox="0 0 750 500" style="enable-background:new 0 0 750 500" xml:space="preserve"><g id="BACKGROUND"><rect x="-.127" y="-.382" style="fill:#f4f3dd" width="750" height="500"/></g><g id="OBJECTS"><g><g><path style="fill:none;stroke:#e5cb80;stroke-width:1.5;stroke-linejoin:round;stroke-miterlimit:10" d="M171.16,314.421 c-19.543,36.684-27.116,78.517-31.337,119.867"/><path style="fill:#fff" d="M194.002,296.885c-0.501-0.441-1.274-0.537-2.368,0.023c-0.857,0.439-1.488,1.211-2.092,1.961 c0.599-0.743,1.312-3.713,0.621-4.577c-1.539-1.923-5.406,1.236-6.569,2.527c0.807-0.896,0.66-5.076-0.111-5.939 c-1.806-2.022-5.254,2.824-6.463,4.519c0.788-1.106,0.11-5.773-0.911-6.611c-2.512-2.062-5.557,5.26-6.291,7.298 c0.626-1.737,1.115-6.882-1.786-6.368c-4.365,0.776-4.287,8.668-4.295,11.876c-0.012,5.406,0.757,11.441,6.155,14.171 c5.973,3.021,12.497-0.745,16.891-4.786c3.167-2.912,5.963-6.323,7.623-10.293C194.92,299.456,194.87,297.65,194.002,296.885z"/><path style="fill:#e5cb80" d="M175.385,296.553c0.124,0.067,0.195,0.201,0.256,0.328c0.348,0.734,0.58,1.523,0.684,2.329 c0.456-0.343,0.911-0.687,1.367-1.03c0.263-0.198,0.607-0.406,0.899-0.254c0.144,0.075,0.235,0.222,0.312,0.365 c0.245,0.453,0.429,0.939,0.546,1.44c0.398-0.455,0.847-0.867,1.335-1.224c0.167-0.122,0.368-0.245,0.569-0.194 c0.285,0.072,0.377,0.426,0.404,0.719c0.06,0.633,0.067,1.272,0.02,1.906c0.197-0.232,0.416-0.458,0.695-0.579 c0.279-0.121,0.633-0.113,0.858,0.093c0.327,0.299,0.237,0.837,0.057,1.242c-0.439,0.985-1.272,1.787-2.273,2.188 c0.159-0.706-0.299-1.496-0.99-1.71c-0.692-0.213-1.515,0.182-1.781,0.855c-0.22-0.591-0.459-1.21-0.946-1.612 c-0.447-0.369-1.078-0.503-1.636-0.347c-0.563,0.158-0.984,0.585-1.215,1.109c-0.097-0.696-0.244-1.3-0.617-1.902 c-0.233-0.376-0.633-0.741-0.723-1.19C173.056,298.334,174.542,296.1,175.385,296.553z"/><path style="fill:#e5cb80" d="M149.962,327.409c0.017-8.026,2.106-23.12,4.251-23.522c1.179-0.221,1.052,5.388,1.096,8.141 c0.208,13.007,0.817,33.27-2.458,49.697C150.887,362.291,149.945,335.435,149.962,327.409z"/><path style="fill:#e5cb80" d="M167.174,362.455c4.254-6.887,10.048-21.21,7.964-22.981c-1.145-0.974-3.994,3.916-5.506,6.245 c-7.145,11.006-18.581,27.961-23.816,44.215C147.618,391.725,162.92,369.343,167.174,362.455z"/></g><g><path style="fill:none;stroke:#e5cb80;stroke-width:1.5;stroke-linejoin:round;stroke-miterlimit:10" d="M277.848,372.302 c-19.686,22.631-31.617,50.677-41.076,78.895"/><path style="fill:#fff" d="M302.236,360.828c-0.395-0.538-1.13-0.796-2.319-0.481c-0.931,0.246-1.711,0.866-2.461,1.47 c0.743-0.599,2.072-3.349,1.581-4.34c-1.094-2.207-5.545,0.056-6.957,1.071c0.979-0.703,1.726-4.819,1.156-5.826 c-1.334-2.36-5.735,1.64-7.277,3.039c1.006-0.913,1.336-5.618,0.517-6.654c-2.016-2.549-6.549,3.957-7.701,5.791 c0.982-1.564,2.555-6.486-0.39-6.602c-4.43-0.171-6.034,7.556-6.725,10.689c-1.163,5.279-1.696,11.34,2.997,15.157 c5.193,4.223,12.369,1.933,17.523-1.08c3.715-2.171,7.172-4.908,9.639-8.434C302.586,363.535,302.922,361.761,302.236,360.828z"/><path style="fill:#e5cb80" d="M284.117,356.54c0.107,0.092,0.148,0.237,0.18,0.375c0.184,0.791,0.242,1.612,0.173,2.421 c0.518-0.239,1.037-0.477,1.555-0.716c0.299-0.138,0.679-0.267,0.933-0.057c0.125,0.104,0.182,0.267,0.227,0.423 c0.143,0.495,0.219,1.008,0.227,1.523c0.486-0.36,1.012-0.666,1.565-0.912c0.19-0.084,0.412-0.16,0.598-0.068 c0.263,0.131,0.277,0.496,0.242,0.788c-0.076,0.632-0.205,1.257-0.386,1.867c0.242-0.184,0.504-0.359,0.802-0.418 c0.298-0.059,0.643,0.025,0.819,0.273c0.256,0.362,0.054,0.868-0.209,1.226c-0.638,0.869-1.624,1.475-2.687,1.654 c0.306-0.656,0.027-1.525-0.604-1.881c-0.63-0.356-1.519-0.145-1.922,0.456c-0.089-0.624-0.191-1.28-0.581-1.776 c-0.358-0.456-0.946-0.721-1.524-0.687c-0.584,0.034-1.086,0.362-1.423,0.825c0.053-0.701,0.038-1.322-0.198-1.99 c-0.148-0.418-0.461-0.859-0.453-1.316C281.462,357.785,283.389,355.917,284.117,356.54z"/><path style="fill:#e5cb80" d="M260.669,378.144c1.262-5.599,5.107-15.816,6.703-15.77c0.877,0.025-0.087,3.92-0.485,5.848 c-1.878,9.11-4.599,23.345-9.499,34.312C255.897,402.63,259.407,383.743,260.669,378.144z"/><path style="fill:#e5cb80" d="M267.515,405.222c4.114-4.16,10.488-13.275,9.274-14.828c-0.667-0.854-3.466,2.126-4.91,3.522 c-6.823,6.595-17.64,16.69-23.914,27.238C248.975,422.677,263.401,409.382,267.515,405.222z"/></g><g><path style="fill:none;stroke:#e5cb80;stroke-width:1.5;stroke-linejoin:round;stroke-miterlimit:10" d="M577.054,318.212 c-25.355,32.074-39.804,71.023-50.876,110.049"/><path style="fill:#fff" d="M607.692,301.684c-0.519-0.706-1.484-1.045-3.045-0.632c-1.223,0.324-2.247,1.137-3.232,1.931 c0.976-0.786,2.721-4.398,2.076-5.7c-1.437-2.898-7.282,0.074-9.137,1.406c1.286-0.924,2.266-6.329,1.519-7.652 c-1.752-3.1-7.532,2.154-9.557,3.991c1.321-1.199,1.755-7.378,0.679-8.739c-2.647-3.348-8.601,5.197-10.114,7.605 c1.289-2.054,3.355-8.519-0.512-8.671c-5.818-0.224-7.925,9.923-8.831,14.038c-1.527,6.933-2.227,14.893,3.936,19.906 c6.82,5.546,16.244,2.538,23.013-1.418c4.879-2.852,9.42-6.446,12.659-11.076C608.151,305.24,608.592,302.909,607.692,301.684z"/><path style="fill:#e5cb80" d="M583.895,296.053c0.141,0.121,0.195,0.312,0.237,0.492c0.241,1.039,0.318,2.117,0.227,3.18 c0.681-0.313,1.361-0.627,2.042-0.94c0.393-0.181,0.892-0.351,1.225-0.074c0.164,0.136,0.239,0.35,0.299,0.555 c0.188,0.65,0.288,1.324,0.298,2c0.638-0.473,1.329-0.875,2.055-1.197c0.249-0.111,0.541-0.211,0.785-0.09 c0.346,0.172,0.364,0.652,0.318,1.035c-0.1,0.829-0.27,1.65-0.508,2.451c0.318-0.242,0.661-0.471,1.053-0.548 c0.392-0.077,0.844,0.032,1.075,0.359c0.336,0.476,0.071,1.14-0.274,1.61c-0.839,1.141-2.133,1.937-3.529,2.172 c0.401-0.862,0.035-2.003-0.793-2.47c-0.828-0.467-1.994-0.191-2.525,0.599c-0.117-0.82-0.251-1.681-0.763-2.332 c-0.47-0.599-1.242-0.947-2.002-0.902c-0.767,0.045-1.426,0.475-1.87,1.084c0.07-0.92,0.05-1.736-0.26-2.613 c-0.194-0.548-0.605-1.128-0.594-1.729C580.408,297.688,582.94,295.235,583.895,296.053z"/><path style="fill:#e5cb80" d="M554.039,327.265c1.36-7.704,5.941-21.862,8.117-21.901c1.196-0.022,0.132,5.343-0.286,7.994 c-1.973,12.524-4.767,32.08-10.737,47.326C549.109,360.91,552.679,334.97,554.039,327.265z"/><path style="fill:#e5cb80" d="M565.093,363.695c5.335-5.928,13.43-18.746,11.677-20.784c-0.963-1.12-4.582,3.116-6.459,5.109 c-8.867,9.416-22.949,23.854-30.816,38.617C540.968,388.647,559.758,369.622,565.093,363.695z"/></g><g><path style="fill:none;stroke:#e5cb80;stroke-width:1.5;stroke-linejoin:round;stroke-miterlimit:10" d="M659.338,328.201 c-32.645,27.68-55.517,64.667-74.94,102.431"/><path style="fill:#fff" d="M690.818,319.698c-0.31-0.666-1.047-1.104-2.397-1.023c-1.058,0.064-2.034,0.563-2.975,1.052 c0.932-0.485,2.963-3.163,2.648-4.339c-0.701-2.619-5.995-1.143-7.739-0.355c1.209-0.546,2.908-4.824,2.513-6.035 c-0.927-2.836-6.544,0.525-8.511,1.699c1.283-0.766,2.662-5.771,2.003-7.067c-1.621-3.188-7.925,2.847-9.566,4.576 c1.399-1.474,4.165-6.444,1.013-7.208c-4.742-1.146-8.151,6.842-9.576,10.073c-2.401,5.444-4.292,11.867-0.057,17.004 c4.686,5.684,12.925,4.771,19.14,2.64c4.48-1.536,8.804-3.738,12.231-7.007C690.608,322.695,691.356,320.854,690.818,319.698z"/><path style="fill:#e5cb80" d="M672.2,311.138c0.096,0.122,0.108,0.288,0.113,0.444c0.026,0.894-0.089,1.791-0.34,2.649 c0.611-0.145,1.222-0.29,1.833-0.435c0.353-0.084,0.791-0.141,1.018,0.141c0.112,0.139,0.139,0.327,0.154,0.505 c0.047,0.565,0.018,1.136-0.086,1.693c0.602-0.283,1.236-0.499,1.886-0.644c0.223-0.049,0.479-0.084,0.66,0.056 c0.256,0.198,0.191,0.596,0.09,0.903c-0.219,0.665-0.494,1.311-0.822,1.93c0.301-0.146,0.621-0.278,0.956-0.276 c0.335,0.002,0.688,0.166,0.824,0.472c0.198,0.447-0.13,0.948-0.492,1.277c-0.878,0.799-2.072,1.239-3.258,1.201 c0.472-0.642,0.36-1.64-0.243-2.161c-0.603-0.521-1.607-0.486-2.173,0.074c0.039-0.693,0.072-1.423-0.241-2.042 c-0.287-0.569-0.864-0.983-1.496-1.072c-0.637-0.09-1.25,0.155-1.715,0.581c0.209-0.744,0.328-1.418,0.218-2.19 c-0.069-0.483-0.311-1.027-0.203-1.519C669.065,311.904,671.55,310.308,672.2,311.138z"/><path style="fill:#e5cb80" d="M633.849,332.739c2.987-7.626,10.612-21.208,12.853-20.8c1.232,0.225-0.968,5.511-1.944,8.145 c-4.611,12.445-11.517,31.938-20.793,46.351C621.841,366.249,630.862,340.364,633.849,332.739z"/><path style="fill:#e5cb80" d="M637.67,372.408c6.699-4.981,17.654-16.465,16.276-18.917c-0.757-1.348-5.346,2.252-7.684,3.909 c-11.045,7.832-28.478,19.74-39.6,33.266C607.758,393.033,630.971,377.389,637.67,372.408z"/></g><g><path style="fill:none;stroke:#e5cb80;stroke-width:1.5;stroke-linejoin:round;stroke-miterlimit:10" d="M638.738,303.714 c-21.939,27.186-34.619,60.34-44.414,93.589"/><path style="fill:#fff" d="M662.677,292.081c-0.35-0.487-1.008-0.725-2.078-0.453c-0.839,0.213-1.545,0.763-2.224,1.299 c0.673-0.531,1.892-2.989,1.459-3.884c-0.963-1.992-4.981,0.001-6.259,0.899c0.886-0.623,1.594-4.313,1.091-5.223 c-1.177-2.132-5.166,1.422-6.564,2.664c0.912-0.811,1.251-5.034,0.525-5.972c-1.787-2.308-5.919,3.495-6.97,5.132 c0.896-1.396,2.353-5.803-0.29-5.934c-3.978-0.193-5.489,6.733-6.137,9.541c-1.092,4.732-1.626,10.171,2.555,13.642 c4.626,3.841,11.093,1.848,15.75-0.812c3.357-1.917,6.487-4.344,8.735-7.489C662.967,294.516,663.285,292.925,662.677,292.081z"/><path style="fill:#e5cb80" d="M646.44,288.066c0.096,0.083,0.131,0.215,0.159,0.339c0.158,0.712,0.203,1.45,0.133,2.176 c0.468-0.21,0.935-0.419,1.403-0.629c0.27-0.121,0.612-0.234,0.838-0.042c0.111,0.094,0.161,0.241,0.2,0.382 c0.124,0.445,0.188,0.908,0.19,1.37c0.44-0.319,0.915-0.589,1.414-0.805c0.171-0.074,0.371-0.141,0.537-0.056 c0.235,0.12,0.245,0.448,0.211,0.71c-0.074,0.567-0.196,1.127-0.364,1.673c0.219-0.163,0.456-0.318,0.724-0.368 c0.269-0.05,0.577,0.028,0.733,0.253c0.227,0.328,0.041,0.78-0.199,1.099c-0.581,0.775-1.472,1.31-2.428,1.461 c0.28-0.587,0.038-1.37-0.525-1.695c-0.563-0.325-1.363-0.144-1.731,0.392c-0.074-0.562-0.16-1.152-0.506-1.601 c-0.317-0.413-0.843-0.656-1.363-0.631c-0.525,0.025-0.979,0.315-1.286,0.729c0.054-0.629,0.046-1.187-0.16-1.789 c-0.129-0.376-0.406-0.776-0.395-1.187C644.044,289.16,645.792,287.5,646.44,288.066z"/><path style="fill:#e5cb80" d="M620.373,307.801c1.228-6.571,5.264-18.628,7.124-18.643c1.022-0.009,0.067,4.566-0.313,6.827 c-1.794,10.684-4.349,27.368-9.58,40.343C615.872,336.504,619.145,314.371,620.373,307.801z"/><path style="fill:#e5cb80" d="M635.78,333.101c5.085-3.758,13.312-12.556,12.174-14.546c-0.625-1.094-4.104,1.629-5.88,2.876 c-8.394,5.893-21.655,14.833-29.958,25.25C613.031,348.595,630.695,336.859,635.78,333.101z"/></g><g><path style="fill:#e5cb80" d="M237.907,330.714c-2.489-3.524-7.512-3.978-11.807-3.567c-14.388,1.375-27.78,8.717-38.223,18.709 c-10.444,9.992-18.16,22.517-24.418,35.546c-8.864,18.454-15.022,38.206-18.216,58.429l16.922-2.464 c9.46-13.049,22.06-23.273,33.798-34.156c11.842-10.979,22.341-23.112,30.743-36.945c5.054-8.322,11.772-18.689,12.656-28.62 C239.576,335.245,239.298,332.684,237.907,330.714z"/><path style="fill:none;stroke:#f4f3dd;stroke-width:1.5;stroke-miterlimit:10" d="M226.563,326.26 c-30.662,20.434-50.66,51.817-65.89,85.762c-4.12,9.183-7.968,18.496-11.811,27.81"/><path style="fill:none;stroke:#f4f3dd;stroke-width:1.5;stroke-miterlimit:10" d="M238.766,330.714 c-19.749,24.334-40.057,48.488-57.091,74.702c-6.085,9.364-11.738,18.99-16.864,28.872"/></g><g><path style="fill:#e5cb80" d="M137.1,353.665c-2.502-1.659-5.297-0.606-7.417,0.822c-7.102,4.784-11.661,13.243-13.772,22.66 c-2.111,9.417-1.93,19.774-0.813,30.07c1.583,14.585,5.029,29.299,10.194,43.525l8.066-6.186 c0.559-11.173,3.726-21.324,6.217-31.678c2.513-10.446,3.928-21.293,3.666-32.699c-0.158-6.861-0.134-15.523-3.029-22.325 C139.51,356.209,138.498,354.592,137.1,353.665z"/><path style="fill:none;stroke:#f4f3dd;stroke-width:1.5;stroke-miterlimit:10" d="M129.625,353.775 c-9.211,21.763-9.108,47.892-5.63,74.43c0.941,7.179,2.069,14.371,3.2,21.562"/><path style="fill:none;stroke:#f4f3dd;stroke-width:1.5;stroke-miterlimit:10" d="M137.551,353.433 c-2.151,21.402-4.658,42.836-4.746,64.75c-0.031,7.828,0.253,15.713,0.901,23.625"/></g><g><path style="fill:#e5cb80" d="M622.948,321.166c-2.459-3.716-6.901-3.902-10.638-3.183 c-14.786,2.845-25.38,20.613-32.695,32.383c-9.208,14.815-14.941,30.593-19.913,47.204c-4.832,16.143-8.613,32.36-9.533,49.24 l14.654-3.762c7.281-14.925,17.537-26.942,26.986-39.628c9.533-12.799,17.796-26.782,24.088-42.502 c3.785-9.456,8.869-21.265,8.869-32.229C624.766,326.039,624.322,323.243,622.948,321.166z"/><path style="fill:none;stroke:#f4f3dd;stroke-width:1.5;stroke-miterlimit:10" d="M612.647,316.98 c-25.306,24.359-40.401,60.081-51.112,98.319c-2.898,10.344-5.547,20.816-8.191,31.286"/><path style="fill:none;stroke:#f4f3dd;stroke-width:1.5;stroke-miterlimit:10" d="M623.701,321.113 c-15.427,27.963-31.358,55.762-44.256,85.621c-4.608,10.666-8.816,21.593-12.542,32.767"/></g><g><path style="fill:#e5cb80" d="M677.271,344.999c-0.717-3.402-3.887-4.811-6.804-5.362c-11.544-2.18-24.33,7.671-33.015,14.111 c-10.933,8.106-19.621,17.907-27.995,28.532c-8.139,10.326-15.536,21.006-21.049,32.988l11.712,1.476 c9.566-8.738,20.456-14.514,30.952-21.006c10.59-6.55,20.598-14.323,29.674-23.922c5.46-5.775,12.538-12.882,15.685-20.837 C677.192,349.056,677.672,346.9,677.271,344.999z"/><path style="fill:none;stroke:#f4f3dd;stroke-width:1.5;stroke-miterlimit:10" d="M670.999,339.006 c-25.351,10.41-46.556,31.994-65.301,56.663c-5.071,6.674-9.999,13.51-14.922,20.348"/><path style="fill:none;stroke:#f4f3dd;stroke-width:1.5;stroke-miterlimit:10" d="M677.833,345.177 c-19.218,15.86-38.755,31.457-56.683,49.418c-6.404,6.416-12.593,13.136-18.504,20.174"/></g><g><path style="fill:#e5cb80" d="M506.762,349.722c-1.262-3.239-4.619-4.114-7.587-4.182c-11.745-0.27-22.754,11.533-30.274,19.302 c-9.465,9.779-16.44,20.865-22.972,32.713c-6.347,11.514-11.905,23.257-15.392,35.977l11.796-0.452 c8.014-10.181,17.817-17.653,27.116-25.769c9.381-8.188,17.989-17.488,25.38-28.438c4.446-6.587,10.271-14.753,12.08-23.114 C507.344,353.737,507.467,351.532,506.762,349.722z"/><path style="fill:none;stroke:#f4f3dd;stroke-width:1.5;stroke-miterlimit:10" d="M499.597,344.831 c-23.316,14.402-40.72,39.153-55.195,66.546c-3.916,7.411-7.663,14.959-11.407,22.507"/><path style="fill:none;stroke:#f4f3dd;stroke-width:1.5;stroke-miterlimit:10" d="M507.345,349.805 c-16.376,18.78-33.111,37.351-47.872,57.994c-5.273,7.374-10.284,15.013-14.969,22.92"/></g><g><path style="fill:#e5cb80" d="M693.813,375.947c-1.036-2.658-3.79-3.375-6.225-3.431c-9.637-0.221-18.67,9.463-24.84,15.837 c-7.766,8.023-13.489,17.12-18.848,26.841c-5.208,9.447-9.768,19.082-12.629,29.519l9.678-0.371 c6.576-8.353,14.619-14.484,22.248-21.143c7.697-6.718,14.76-14.349,20.824-23.333c3.648-5.405,8.427-12.105,9.911-18.965 C694.292,379.241,694.392,377.432,693.813,375.947z"/><path style="fill:none;stroke:#f4f3dd;stroke-width:1.5;stroke-miterlimit:10" d="M687.935,371.933 c-19.13,11.817-33.41,32.125-45.287,54.601c-3.213,6.08-6.288,12.273-9.359,18.467"/><path style="fill:none;stroke:#f4f3dd;stroke-width:1.5;stroke-miterlimit:10" d="M694.292,376.015 c-13.437,15.409-27.167,30.646-39.279,47.583c-4.327,6.05-8.438,12.318-12.282,18.805"/></g><path style="fill:#f4f3dd;stroke:#e5cb80;stroke-width:1.5;stroke-linejoin:round;stroke-miterlimit:10" d="M642.899,431.231 c1.88-7.718,3.772-15.524,3.792-23.468c0.015-6.122-2.284-12.827-7.343-16.592c-5.864-4.364-16.649-2.923-22.927-0.501 c-20.297,7.83-33.205,23.248-46.09,40.466c-0.895,1.196-5.719,8.353-5.719,8.353s-4.535-17.052-17.408-21.572 c-7.663-2.69-15.197-2.425-21.361,2.224c-0.308-11.585-11.497-20.645-22.985-22.169c-11.488-1.523-22.937,2.76-33.318,7.911 c-22.742,11.284-43.177,27.18-59.741,46.418h259.016c0.638-5.501-0.45-11.153-3.658-15.625 C660.262,429.854,650.089,426.897,642.899,431.231z"/><path style="fill:#f4f3dd;stroke:#e5cb80;stroke-width:1.5;stroke-linejoin:round;stroke-miterlimit:10" d="M279.006,429.786 c-13.069-1.442-26.67,2.864-36.529,11.563c3.169-6.07,2.485-11.362-1.896-14.754c-4.381-3.391-13.881-2.522-18.814,0 c-1.488,0.761-8.683,5.524-8.683,5.524s-1.447-5.765-6.512-11.072c-8.428-8.829-18.358-10.694-30.317-8.252 c-11.545,2.358-21.953,8.492-31.248,15.532c-4.684,3.547-9.141,7.385-13.494,11.329c-2.123,1.924-4.24,3.857-6.319,5.828 c-1.121,1.063-5.581,6.815-6.923,6.815c0.002,0,193.866,0,193.866,0C304.411,441.66,292.076,431.228,279.006,429.786z"/><path style="fill:#f4f3dd;stroke:#e5cb80;stroke-width:1.5;stroke-linejoin:round;stroke-miterlimit:10" d="M237.692,149.727 c-3.862,0.599-8.588,1.771-11.069-1.249c-0.918-1.118-1.262-2.585-1.579-4c-1.461-6.514-0.328-15.507-7.555-18.708 c-9.67-4.279-23.395,2.506-31.78,7.154c-5.042,2.795-10.956,6.424-16.098,3.82c-3.569-1.807-5.297-6.099-8.777-8.072 c-4.662-2.643-10.485-0.245-15.161,2.373c-15.757,8.821-30.077,22.148-42.228,35.506H266.26 C262.129,155.319,249.519,147.893,237.692,149.727z"/><path style="fill:none;stroke:#e5cb80;stroke-width:1.5;stroke-linejoin:round;stroke-miterlimit:10" d="M620.36,105.352 c-2.083-0.012-4.262,0.31-6.18-0.505c-2.177-0.925-3.506-3.088-5.068-4.865c-5.229-5.952-14.508-7.901-21.691-4.558 c-1.823,0.849-3.567,2.013-5.565,2.239c-5.004,0.565-8.446-4.592-12.145-8.008c-6.937-6.407-17.719-7.394-26.615-4.227 c-8.896,3.167-21.218,16.074-25.595,26.441h116.934C630.964,107.823,625.692,105.382,620.36,105.352z"/></g><g><path style="fill:#f4ae51" d="M488.902,251.626c-7.047,2.253-14.938,2.315-22.137,0.174c-7.199-2.141-13.666-6.473-18.142-12.153 l3.879-15.061c12.931,2.676,23.232,4.685,37.471,5.051"/><g><ellipse transform="matrix(0.7071 -0.7071 0.7071 0.7071 -197.6147 289.0067)" style="fill:none;stroke:#e5783c;stroke-width:2;stroke-linecap:round;stroke-linejoin:round;stroke-miterlimit:10" cx="250.055" cy="383.045" rx="69.254" ry="69.254"/><path style="fill:#f7946d" d="M255.475,383.046c0,2.994-2.427,5.421-5.421,5.421c-2.994,0-5.421-2.427-5.421-5.421 c0-2.994,2.427-5.421,5.421-5.421C253.048,377.625,255.475,380.052,255.475,383.046z"/><line style="fill:none;stroke:#e5783c;stroke-width:2;stroke-linecap:round;stroke-linejoin:round;stroke-miterlimit:10" x1="250.055" x2="302.782" y1="383.046" y2="233.891"/><ellipse transform="matrix(0.7071 -0.7071 0.7071 0.7071 -125.596 462.8754)" style="fill:none;stroke:#e5783c;stroke-width:2;stroke-linecap:round;stroke-linejoin:round;stroke-miterlimit:10" cx="495.942" cy="383.045" rx="69.254" ry="69.254"/><path style="fill:none;stroke:#e5783c;stroke-width:2;stroke-linejoin:round;stroke-miterlimit:10" d="M432.615,338.433 c14.023-19.868,37.159-32.844,63.327-32.844c30.295,0,56.527,17.392,69.258,42.736"/><path style="fill:none;stroke:#e5783c;stroke-width:2;stroke-linejoin:round;stroke-miterlimit:10" d="M186.725,338.433 c14.023-19.868,37.159-32.844,63.327-32.844c30.295,0,56.527,17.392,69.258,42.736"/><path style="fill:#f7946d" d="M501.363,383.046c0,2.994-2.427,5.421-5.421,5.421c-2.994,0-5.421-2.427-5.421-5.421 c0-2.994,2.427-5.421,5.421-5.421C498.936,377.625,501.363,380.052,501.363,383.046z"/><path style="fill:#f7946d" d="M397.555,383.046c0,2.994-2.427,5.421-5.421,5.421c-2.994,0-5.421-2.427-5.421-5.421 c0-2.994,2.427-5.421,5.421-5.421C395.128,377.625,397.555,380.052,397.555,383.046z"/><path style="fill:none;stroke:#e5783c;stroke-width:2;stroke-linejoin:round;stroke-miterlimit:10" d="M343.225,242.659 l0.76-1.471c1.745-3.38-0.708-7.408-4.512-7.408h-68.57c-3.55,0-6.802,1.981-8.431,5.135l-1.933,3.744"/><line style="fill:none;stroke:#e5783c;stroke-width:2;stroke-linecap:round;stroke-linejoin:round;stroke-miterlimit:10" x1="287.635" x2="392.134" y1="276.738" y2="383.046"/><ellipse transform="matrix(0.2326 -0.9726 0.9726 0.2326 -71.6254 675.3126)" style="fill:none;stroke:#e5783c;stroke-width:2;stroke-linecap:round;stroke-linejoin:round;stroke-miterlimit:10" cx="392.134" cy="383.045" rx="28.946" ry="28.946"/><polyline style="fill:none;stroke:#e5783c;stroke-width:2;stroke-linecap:round;stroke-linejoin:round;stroke-miterlimit:10" points="392.134 383.046 495.57 383.046 524.215 302.013"/><line style="fill:none;stroke:#e5783c;stroke-width:2;stroke-linejoin:round;stroke-miterlimit:10" x1="280.707" x2="272.678" y1="296.337" y2="292.475"/><polygon style="fill:none;stroke:#e5783c;stroke-width:2;stroke-linejoin:round;stroke-miterlimit:10" points="276.273 285.01 270.472 298.678 263.239 297.396 270.325 280.698"/></g><line style="fill:none;stroke:#161313;stroke-linejoin:round;stroke-miterlimit:10" x1="392.086" x2="432.617" y1="383.046" y2="268.392"/><g><g><polyline style="fill:#efbb8f" points="360.626 359.908 367.879 378.319 403.584 357.592 393.113 334.803"/><g><path style="fill:#847dcc" d="M364.727,372.422c0,0,0.465,1.445-0.634,4.409c-1.099,2.964-9.338,10.528-11.067,17.152 c-1.974,7.562,3.007,11.623,3.007,11.623l55.967-34.789l-9.427-18.094"/><line style="fill:none;stroke:#a9a7ea;stroke-width:1.5;stroke-linejoin:round;stroke-miterlimit:10" x1="353.793" x2="410.149" y1="402.636" y2="366.779"/><path style="fill:none;stroke:#a9a7ea;stroke-width:1.5;stroke-linejoin:round;stroke-miterlimit:10" d="M357.406,385.864 c0,0,3.443,1.536,8.125-1.194c7.548-4.402,13.796-18.741,13.796-18.741"/><line style="fill:none;stroke:#a9a7ea;stroke-width:1.5;stroke-linejoin:round;stroke-miterlimit:10" x1="360.626" x2="367.987" y1="381.737" y2="382.871"/><line style="fill:none;stroke:#a9a7ea;stroke-width:1.5;stroke-linejoin:round;stroke-miterlimit:10" x1="363.601" x2="371.751" y1="377.791" y2="378.796"/><path style="fill:none;stroke:#a9a7ea;stroke-width:1.5;stroke-linejoin:round;stroke-miterlimit:10" d="M396.915,375.199 c0,0-2.086-11.721,7.533-18.879"/></g><path style="fill:#4d3c7c" d="M372.342,246.837c0,0-20.475,20.382-28.065,27.972c-7.59,7.59-18.991,23.596-10.58,38.982 c8.411,15.386,27.434,52.976,27.434,52.976l39.713-17.886l-23.302-52.501c0,0,39.455-16.798,47.427-25.75 c12.97-14.564,2.012-36.85,2.012-36.85"/><path style="fill:none;stroke:#6f5eaa;stroke-width:1.5;stroke-miterlimit:10" d="M364.404,255.277 c4.203-0.599,8.443-1.564,12.207-3.88c3.765-2.316,7.039-6.146,8.273-10.992"/><path style="fill:none;stroke:#161313;stroke-linejoin:round;stroke-miterlimit:10" d="M336.405,307.26 c3.356,4.206,6.849,8.527,11.599,11.056"/><path style="fill:none;stroke:#161313;stroke-linejoin:round;stroke-miterlimit:10" d="M345.251,310.564 c1.948,1.779,4.403,2.997,6.999,3.472"/></g><g><path style="fill:#e8ad80" d="M305.382,221.943c-0.971,2.868-1.971,5.793-3.751,8.18c-0.929,1.246-2.049,2.316-3.21,3.315 c-0.89,0.766-1.813,1.498-2.83,2.055c-0.776,0.425-1.598,0.743-2.417,1.059c-1.035,0.4-2.07,0.8-3.105,1.2 c-0.882,0.341-1.925,0.665-2.703,0.107c-0.474-0.34-0.728-0.942-0.832-1.541c-0.354-2.051,0.787-4.031,1.949-5.708 c1.575-2.275,3.285-4.445,5.116-6.491"/><path style="fill:#e8ad80" d="M317.161,187.422l-5.615,10.353l-34.23,12.873l20.968,16.798c0,0,33.811-11.87,38.516-14.186 c5.797-2.854,9.599-8.245,12.257-16.092c2.658-7.847,7.468-20.125,7.468-20.125"/><path style="fill:#e2603d" d="M371.871,142.246c-7.058-1.008-14.238-1.155-21.332-0.438c-4.888,0.494-9.952,1.493-13.809,4.535 c-3.415,2.693-5.508,6.69-7.349,10.629c-3.604,7.712-16.056,36.279-16.056,36.279s38.389-0.16,38.228,0 c-0.161,0.161,13.089-29.918,13.089-29.918"/><line style="fill:none;stroke:#b23e24;stroke-miterlimit:10" x1="316.921" x2="356.525" y1="185.026" y2="185.026"/><path style="fill:#e2603d" d="M427.133,155.241c12.954,17.026,36.805,91.596,36.805,91.596h-94.792 c-6.401-27.987-23.947-53.814-31.396-81.541l32.041-25.57l24.24,2.734C394.03,142.46,414.179,138.214,427.133,155.241z"/><path style="fill:none;stroke:#b23e24;stroke-miterlimit:10" d="M359.914,141.472c-0.537,5.284,4.511,10.508,8.57,12.166"/><path style="fill:none;stroke:#b23e24;stroke-miterlimit:10" d="M373.22,154.736c4.668,1.102,9.602,0.914,14.227-0.306 c4.329-1.142,9.142-3.161,11.967-6.791"/><path style="fill:none;stroke:#161313;stroke-linejoin:round;stroke-miterlimit:10" d="M338.696,167.307 c2.477,8.712,6.055,17.719,9.059,25.881"/></g><g><path style="fill:#efbb8f" d="M402.603,104.346c-0.033-0.055-0.067-0.109-0.102-0.163c-1.671-2.58-4.744-4.194-7.539-5.23 c-3.978-1.475-8.42-1.759-12.52-0.62c-7.177,1.994-12.99,8.252-14.45,15.556c-0.608,3.041-0.511,6.174-0.397,9.274 c0.135,3.675,0.634,7.406,2.845,10.445c2.059,2.829,4.701,5.406,7.959,6.685c6.852,2.689,18.259,4.44,20.273-4.56 c0.527-2.353,1.095-4.697,1.623-7.05c1.129-5.034,2.189-10.085,3.094-15.164C403.903,110.632,404.195,106.97,402.603,104.346z"/><path style="fill:#efbb8f" d="M363.318,116.176l-1.179,6.866l2.106,18.499c0,0,1.57,6.599,11.713,7.785 c14.315,1.674,20.104-4.452,20.104-4.452l-4.061-20.009L363.318,116.176z"/><path style="fill:#31131d" d="M401.958,95.121c-1.155-2.119-2.528-4.223-4.566-5.517c-0.946-0.601-2.404-0.904-3.025,0.028 c-0.137,0.206-0.214,0.453-0.386,0.632c-0.476,0.494-1.298,0.18-1.906-0.14c-3.976-2.097-8.411-3.317-12.901-3.547 c-1.274-0.065-2.845,0.133-3.324,1.316c-0.316,0.781-0.149,1.937-0.941,2.224c-0.221,0.08-0.463,0.057-0.696,0.031 c-1.522-0.171-3.049-0.438-4.576-0.321c-1.527,0.117-3.097,0.675-4.059,1.867c-1.244,1.541-1.205,3.752-0.782,5.687 c-1.391-0.951-3.541-0.488-4.417,0.951c-0.577,0.948-0.607,2.124-0.548,3.232c0.098,1.86,0.398,3.71,0.893,5.506 c-2.522-1.835-3.268,2.676-3.393,3.477c-0.762,4.888,3.672,13.614,5.459,18.227l6.519-6.806 c0.092-0.945,0.286-1.911,0.823-2.695c1.154-1.686,3.481-2.038,5.114-3.265c2.188-1.645,2.847-4.605,3.174-7.323 c4.747,1.5,9.681,2.301,14.596,3.096c3.369,0.545,6.821,1.09,10.174,0.449c-0.2,1.917-0.4,3.833-0.6,5.75 c2.328-1.035,3.281-3.84,3.507-6.377C406.609,105.876,404.708,100.168,401.958,95.121z"/><path style="fill:none;stroke:#161313;stroke-linejoin:round;stroke-miterlimit:10" d="M396.994,119.463 c0,0-0.205,3.694-0.022,5.554c0.067,0.684,0.134,1.369,0.202,2.053c0.073,0.738,0.086,1.603-0.561,2.032 c-0.566,0.375-1.393,0.232-2.068-0.029c-0.863-0.334-1.651-0.835-2.293-1.457"/><path style="fill:#31131d" d="M381.855,114.14c-0.085,0.083-0.157,0.175-0.211,0.28c-0.287,0.56,0.298,0.934,0.756,1.065 c0.969,0.277,8.354,0.402,7.219-1.806c-0.488-0.948-1.458-1.388-2.498-1.372c-0.618,0.01-1.225,0.161-1.817,0.341 c-0.7,0.214-1.388,0.47-2.057,0.766C382.821,113.602,382.218,113.786,381.855,114.14z"/><path style="fill:#31131d" d="M400.234,114.776c-1.126,0.139-1.824,1.504-0.779,2.288c0.285,0.214,0.644,0.3,0.966,0.453 c0.421,0.2,0.776,0.514,1.179,0.747c0.694,0.401,1.864,0.472,1.866-0.618c0.001-0.638-0.567-1.256-0.983-1.68 C401.901,115.373,401.129,114.665,400.234,114.776z"/><path style="fill:#161313" d="M388.119,121.505c-0.274,1.174-1.118,1.981-1.887,1.802c-0.768-0.179-1.169-1.276-0.895-2.451 c0.274-1.174,1.118-1.981,1.887-1.802S388.392,120.33,388.119,121.505z"/><path style="fill:#161313" d="M401.524,125.188c-0.274,1.174-1.118,1.981-1.887,1.802c-0.768-0.179-1.169-1.276-0.895-2.451 c0.274-1.174,1.118-1.981,1.887-1.802C401.397,122.916,401.798,124.014,401.524,125.188z"/><g><path style="fill:#efbb8f" d="M372.491,121.409c-0.953-1.531-2.756-2.327-4.885-1.768c-2.537,0.666-3.547,3.411-3.334,5.578 c0.328,3.33,4.236,8.054,7.966,6.57c1.698-0.676,2.199-2.126,2.032-3.691c-0.192-1.797-0.768-3.672-1.231-5.412 C372.915,122.222,372.73,121.793,372.491,121.409z"/><path style="fill:none;stroke:#161313;stroke-linejoin:round;stroke-miterlimit:10" d="M367.471,124.049 c1.713,0.915,4.37,2.725,6.037,3.707"/><path style="fill:none;stroke:#161313;stroke-linejoin:round;stroke-miterlimit:10" d="M364.623,127.061 c1.068,2.299,4.649,6.918,9.044,4.383"/><path style="fill:none;stroke:#161313;stroke-linejoin:round;stroke-miterlimit:10" d="M369.791,119.533 c0.665,0.073,1.292,0.37,1.828,0.77c0.537,0.4,0.99,0.9,1.411,1.42"/></g><path style="fill:none;stroke:#aa5f52;stroke-linejoin:round;stroke-miterlimit:10" d="M389.428,128.54 c-1.113,2.272,0.602,4.29,2.588,4.259"/><path style="fill:none;stroke:#161313;stroke-linejoin:round;stroke-miterlimit:10" d="M376.84,137.475 c4.885,4.187,12.341,5.624,18.634,3.591"/></g></g><g><g><path style="fill:#e8ad80" d="M289.401,206.58c-3.535,1.208-7.186,2.031-10.665,3.412c-3.478,1.381-6.85,3.398-9.132,6.507 c-2.742,3.737-3.63,8.664-3.673,13.401c-0.011,1.204,0.031,2.432,0.419,3.564c0.387,1.131,1.173,2.166,2.249,2.545 c1.076,0.38,2.43-0.063,2.919-1.148c1.404,1.642,3.988,1.951,5.701,0.682c0.262-0.194,0.539-0.431,0.857-0.404 c0.238,0.02,0.439,0.185,0.635,0.329c1.521,1.118,3.627,1.264,5.271,0.365c0.386-0.211,0.777-0.482,1.211-0.462 c0.676,0.031,1.429,0.57,2.033,0.868c0.581,0.287,1.121,0.274,1.758,0.166c0.696-0.118,1.373-0.365,1.991-0.725 c0.322-0.188,0.628-0.407,0.912-0.654c0.101-0.088,0.57-0.682,0.661-0.677c-0.345-0.021-0.691-0.042-1.036-0.063 c-0.064-0.004-0.137-0.013-0.174-0.069c-0.037-0.055-0.02-0.131-0.003-0.195c0.292-1.075,0.559-2.158,0.938-3.198 c0.496-1.362,1.273-2.687,2.481-3.385c0.81-0.469,1.745-0.618,2.657-0.767c8.308-1.356,8.654-3.179,8.654-3.179"/><path style="fill:none;stroke:#161313;stroke-linejoin:round;stroke-miterlimit:10" d="M277.884,235.062 c-0.377-1.849-0.642-3.757-0.549-5.664c0.092-1.907,0.564-3.823,1.527-5.292"/><path style="fill:none;stroke:#161313;stroke-linejoin:round;stroke-miterlimit:10" d="M271.662,235.062 c-1.325-3.747-0.961-7.834,1.016-11.408"/><path style="fill:none;stroke:#161313;stroke-linejoin:round;stroke-miterlimit:10" d="M295.045,226.673 c-2.645,2.273-3.985,4.983-3.789,7.667c0.299,0,0.745-0.175,1.014-0.071c0.172,0.067-0.844,0.995-0.928,1.056 c-0.405,0.294-0.853,0.53-1.323,0.703c-1.533,0.563-3.582,0.531-4.692-0.834c-0.548-0.674-0.781-1.547-0.934-2.402 c-0.382-2.134-0.338-4.335,0.231-6.432c0.169-0.622,0.461-1.225,0.579-1.858"/></g><g><path style="fill:#efbb8f" d="M387.409,188.538l-6.137,19.13l-37.909,2.282l-7.409,23.594c0,0,51.877,0,59.923,0 c8.046,0,15.787-6.413,19.767-22.226c2.473-9.822,5.087-20.567,5.087-20.567"/><path style="fill:#efbb8f" d="M354.452,209.346c0,0-24.999,0.406-27.714,0.406c-2.715,0-10.649,1.575-14.607,6.226 c-1.652,1.942-4.006,4.564-5.202,6.797c-1.282,2.393-2.593,5.188-2.298,8.222c0.114,1.174,0.47,2.289,0.903,3.333 c1.029,2.483,2.536,4.663,4.417,6.097c0.381,0.291,0.793,0.557,1.236,0.579c0.632,0.032,1.228-0.448,1.629-1.079 c0.401-0.631,0.64-1.403,0.873-2.161c0.543,0.35,1.099,0.706,1.702,0.805c0.602,0.099,1.271-0.105,1.655-0.711 c0.183-0.287,0.328-0.68,0.611-0.749c0.171-0.042,0.343,0.054,0.501,0.146c1.076,0.628,2.49,1.167,3.311,0.073 c0.107-0.142,0.203-0.313,0.347-0.38c0.37-0.172,0.657,0.402,0.887,0.813c0.797,1.423,2.388,1.51,3.75,1.46 c1.365-0.05,2.729-0.1,4.093-0.15c0.588-0.022,1.2-0.051,1.721-0.403c0.521-0.352,0.919-1.131,0.759-1.86 c-0.125-0.567-0.559-1.072-0.425-1.635c0.101-0.425,0.475-0.617,0.806-0.744c2.007-0.77,4.084-1.232,6.057-2.136 c1.973-0.904,3.889-2.321,5.066-4.552"/><path style="fill:#e2603d" d="M426.167,159.896c1.797,5.014,0.808,10.643-0.198,15.714 c-2.395,12.071-5.197,24.893-5.197,24.893h-37.416l4.849-29.917"/><path style="fill:none;stroke:#161313;stroke-linejoin:round;stroke-miterlimit:10" d="M328.447,235.401 c1.438-0.081,2.869-0.279,4.275-0.591"/><path style="fill:none;stroke:#161313;stroke-linejoin:round;stroke-miterlimit:10" d="M336.764,233.369 c2.737-0.416,5.366-1.531,7.567-3.211"/><path style="fill:none;stroke:#161313;stroke-linejoin:round;stroke-miterlimit:10" d="M322.205,237.068 c-0.482-1.894-0.315-3.953,0.483-5.739c0.88-1.97,2.592-3.217,4.305-4.417"/><path style="fill:none;stroke:#161313;stroke-linejoin:round;stroke-miterlimit:10" d="M317.425,237.322 c-0.709-2.585-0.841-5.243-0.104-7.86c0.553-1.965,1.547-3.71,2.824-4.959"/><path style="fill:none;stroke:#161313;stroke-linejoin:round;stroke-miterlimit:10" d="M313.556,237.72 c-1.669-1.726-2.501-4.1-2.507-6.481c-0.006-2.632,1.051-4.797,2.364-7.007"/><line style="fill:none;stroke:#b23e24;stroke-miterlimit:10" x1="384.884" x2="422.792" y1="191.07" y2="191.07"/><path style="fill:none;stroke:#161313;stroke-linejoin:round;stroke-miterlimit:10" d="M383.355,200.11 c0.102-0.237,5.722-32.067,5.722-32.067"/><line style="fill:none;stroke:#161313;stroke-linejoin:round;stroke-miterlimit:10" x1="420.772" x2="425.683" y1="200.503" y2="177.044"/></g><g><polyline style="fill:#efbb8f" points="354.229 388.466 349.814 408.106 395.992 404.58 401.7 381.234"/><g><path style="fill:#847dcc" d="M349.435,401.428c0,0-0.219,1.505-2.754,3.718c-2.535,2.213-14.522,5.542-19.448,10.797 c-5.624,5.999-2.509,11.796-2.509,11.796l73.486-7.607l-0.913-20.386"/><line style="fill:none;stroke:#a9a7ea;stroke-width:1.5;stroke-linejoin:round;stroke-miterlimit:10" x1="323.869" x2="398.261" y1="424.096" y2="415.689"/><path style="fill:none;stroke:#a9a7ea;stroke-width:1.5;stroke-linejoin:round;stroke-miterlimit:10" d="M335.566,410.466 c0,0,2.762,2.857,8.823,2.384c9.772-0.763,22.98-11.07,22.98-11.07"/><line style="fill:none;stroke:#a9a7ea;stroke-width:1.5;stroke-linejoin:round;stroke-miterlimit:10" x1="340.811" x2="347.743" y1="408.106" y2="412.27"/><line style="fill:none;stroke:#a9a7ea;stroke-width:1.5;stroke-linejoin:round;stroke-miterlimit:10" x1="345.721" x2="353.516" y1="405.805" y2="410.188"/><path style="fill:none;stroke:#a9a7ea;stroke-width:1.5;stroke-linejoin:round;stroke-miterlimit:10" d="M380.792,417.663 c0,0,3.492-11.492,16.686-13.866"/></g><path style="fill:#4d3c7c" d="M409.873,246.837c0,0-32.879,36.168-40.729,58.519c-7.85,22.351-20.388,89.675-20.388,89.675 h52.088c0,0,15.387-66.319,18.931-72.043c3.543-5.724,32.284-39.514,38.008-46.29c5.724-6.775,7.844-14.8,3.874-29.86"/><path style="fill:none;stroke:#6f5eaa;stroke-width:1.5;stroke-miterlimit:10" d="M393.113,395.031 c0,0,15.387-66.319,18.931-72.043s32.284-39.514,38.008-46.29c5.724-6.775,7.479-13.678,5.911-29.86"/><path style="fill:none;stroke:#161313;stroke-linejoin:round;stroke-miterlimit:10" d="M398.261,260.431 c0,0-21.267,22.575-29.117,44.925c-3.762,10.71-8.6,31.747-12.619,50.755"/><path style="fill:none;stroke:#161313;stroke-linejoin:round;stroke-miterlimit:10" d="M374.636,323.554 c1.971,6.592,4.534,13.007,7.646,19.144"/><path style="fill:none;stroke:#161313;stroke-linejoin:round;stroke-miterlimit:10" d="M381.612,325.712 c2.434,4.17,5.17,8.164,8.181,11.94"/><path style="fill:none;stroke:#6f5eaa;stroke-width:1.5;stroke-miterlimit:10" d="M435.49,246.781 c4.115,8.128,11.14,16.475,20.322,18.154"/></g></g><g><g><g><path style="fill:#dd802c" d="M449.069,287.405c-2.282,4.715-7.337,7.495-12.403,8.826c-0.671,0.176-1.443,0.412-1.701,1.057 c-0.212,0.531,0.023,1.134,0.331,1.615c1.048,1.64,2.865,2.599,4.629,3.421c1.216,0.567,5.123,2.412,7.05,3.007 c0.553,0.171,5.006-0.546,5.587-0.553l-1.992,1.825c-0.093,0.086-0.073,0.237,0.043,0.288c0.628,0.277,2.366,1.031,3.747,1.495 c0.404,0.136,0.833,0.267,1.249,0.178c0.42-0.09,0.76-0.388,1.079-0.676c3.723-3.357,7.447-6.715,11.17-10.072"/><path style="fill:none;stroke:#161313;stroke-width:.75;stroke-linejoin:round;stroke-miterlimit:10" d="M452.872,304.625 c1.975-0.035,3.956,0.435,5.705,1.352"/></g><path style="fill:#ffc166" d="M500.451,223.56c7.902,10.05,14.812,18.249,23.764,41.442 c3.944,10.218,12.103,36.786-4.76,36.786c-5.37,0-34.422,0-34.422,0l-7.482,8.214l-32.093-20.031c0,0,6.407-9.405,15.88-17.581 c4.331-3.738,6.74-5.898,13.923-5.677c1.986-6.235,5.737-33.715,5.737-33.715"/><g><path style="fill:#f9d1aa" d="M460.474,233.922c-3.509-0.611-6.914-1.814-10.029-3.542c-0.169-0.094-0.365-0.192-0.546-0.126 c-0.168,0.061-0.259,0.241-0.316,0.411c-0.283,0.835-0.141,1.803,0.37,2.522c-1.227,0.076-2.462,0.001-3.671-0.222 c-0.557-0.103-1.253-0.186-1.576,0.279c-0.35,0.504,0.068,1.186,0.529,1.591c0.603,0.529,1.303,0.931,1.998,1.33 c-1.123-0.054-2.245-0.107-3.368-0.161c-0.223-0.011-0.475-0.011-0.632,0.147c-0.21,0.212-0.125,0.57,0.015,0.834 c0.344,0.651,0.938,1.165,1.631,1.412c-0.259,0.141-0.57,0.131-0.861,0.172c-0.292,0.041-0.612,0.171-0.709,0.449 c-0.058,0.168-0.02,0.356,0.047,0.521c0.313,0.774,1.151,1.175,1.918,1.506c-0.346-0.053-0.621,0.129-0.703,0.356 c-0.097,0.271,0.05,1.173,0.833,1.796c1.557,1.238,3.251,1.906,5.182,2.389c2.662,0.665,5.437,0.762,7.956,1.099"/><path style="fill:none;stroke:#161313;stroke-width:.75;stroke-linejoin:round;stroke-miterlimit:10" d="M445.278,241.087 c1.439,0.559,2.913,0.949,4.386,1.159"/><path style="fill:none;stroke:#161313;stroke-width:.75;stroke-linejoin:round;stroke-miterlimit:10" d="M444.802,238.388 c1.621,0.465,3.256,0.815,4.891,1.044"/><path style="fill:none;stroke:#161313;stroke-width:.75;stroke-linejoin:round;stroke-miterlimit:10" d="M447.108,236.144 c1.194,0.153,2.42,0.218,3.663,0.195"/><path style="fill:none;stroke:#161313;stroke-width:.75;stroke-linejoin:round;stroke-miterlimit:10" d="M450.096,233.204 c1.401-0.11,2.805-0.178,4.209-0.202"/></g><g><path style="fill:#ffc166" d="M493.891,256.453c-6.841,2.817-14.701,3.519-22.05,1.969s-14.146-5.344-19.068-10.642 l2.645-15.326c13.106,1.619,23.535,2.786,37.757,1.996"/><path style="fill:none;stroke:#ffe092;stroke-miterlimit:10" d="M454.474,238.252c1.551-0.415,3.154,0.355,4.53,1.182 c1.407,0.845,2.911,1.84,4.627,1.718c1.756-0.125,3.429-1.365,5.225-0.867c1.311,0.364,2.251,1.626,3.584,1.898 c1.453,0.297,2.826-0.655,4.224-1.151c1.407-0.499,2.974-0.536,4.403-0.104c1.866,0.564,3.631,1.913,5.55,1.567 c1.52-0.274,2.787-1.592,4.329-1.519c0.961,0.045,1.83,0.637,2.79,0.701c1.106,0.074,2.12-0.552,3.176-0.889 c0.835-0.266,1.756-0.351,2.581-0.057c0.825,0.294,1.528,1.019,1.63,1.889c0.132,1.119-0.781,2.18-1.868,2.474 c-1.624,0.438-2.833-0.515-4.167-1.237c-0.556-0.301-1.196-0.515-1.815-0.391c-1.279,0.256-1.942,1.797-3.187,2.185 c-0.717,0.224-1.514,0.013-2.15-0.387c-1.392-0.876-1.984-2.437-3.891-1.704c-0.702,0.27-1.315,0.725-1.956,1.119 c-1.907,1.173-4.361,1.809-6.382,0.847c-1.013-0.482-1.823-1.319-2.835-1.804c-2.041-0.98-3.802-0.012-5.743,0.637 c-1.516,0.507-3.528,0.514-4.339-0.864c-0.191-0.326-0.293-0.7-0.501-1.015c-0.536-0.812-1.624-1.032-2.597-1.056 c-1.979-0.047-3.969,0.439-5.704,1.392"/></g><path style="fill:none;stroke:#161313;stroke-linejoin:round;stroke-miterlimit:10" d="M481.636,234.878 c4.281-0.282,8.548-0.79,12.776-1.521"/><path style="fill:none;stroke:#161313;stroke-linejoin:round;stroke-miterlimit:10" d="M476.798,259.812 c10.306,0.619,19.286-4.014,25.867-8.357"/><path style="fill:none;stroke:#dd802c;stroke-miterlimit:10" d="M463.81,233.522c-0.628,6.924-3.018,20.637-3.018,20.637"/><path style="fill:none;stroke:#161313;stroke-linejoin:round;stroke-miterlimit:10" d="M475.212,266.783 c5.789-0.069,12.707,1.812,16.893,2.861"/><path style="fill:none;stroke:#161313;stroke-linejoin:round;stroke-miterlimit:10" d="M490.355,265.712 c3.585,0.899,7.342,1.889,10.018,4.438"/><path style="fill:none;stroke:#161313;stroke-linejoin:round;stroke-miterlimit:10" d="M485.788,301.645 c3.645-2.43,7.29-4.861,10.935-7.292"/><path style="fill:none;stroke:#ffe092;stroke-miterlimit:10" d="M451.917,282.15c1.652-0.027,3.49,0.015,4.681,1.16 c0.937,0.901,1.272,2.325,2.294,3.128c1.607,1.263,3.952,0.399,5.974,0.701c1.898,0.284,3.568,1.744,4.103,3.587 c0.274,0.944,0.301,2.026,0.969,2.748c0.751,0.812,1.994,0.84,3.096,0.93c1.102,0.09,2.389,0.459,2.732,1.51 c0.234,0.716-0.07,1.512,0.108,2.244c0.35,1.439,2.168,1.798,3.477,2.49c1.456,0.77,2.499,2.272,2.712,3.904"/><path style="fill:none;stroke:#ffe092;stroke-miterlimit:10" d="M450.286,284.253c0.63,1.338,1.884,2.482,3.297,2.954 c1.487,0.497,3.259-0.042,4.617,0.874c1.232,0.831,1.464,2.506,2.083,3.857c1.01,2.204,3.363,3.723,5.787,3.737 c1.408,0.008,3.031-0.382,4.066,0.573c0.752,0.694,0.872,1.865,1.558,2.625c0.679,0.752,1.758,0.952,2.692,1.344 c1.898,0.795,1.533,2.649,2.67,4.06c0.976,1.21,2.359,2.116,3.89,2.423"/></g><g><path style="fill:none;stroke:#e5783c;stroke-width:1.5;stroke-linecap:round;stroke-linejoin:round;stroke-miterlimit:10" d="M485.626,301.721h50.939l9.594-25.651h-44.589c-3.559,0-6.884,2.5-8.368,6.294L485.626,301.721z"/><line style="fill:none;stroke:#e5783c;stroke-width:1.5;stroke-linecap:round;stroke-linejoin:round;stroke-miterlimit:10" x1="526.844" x2="536.437" y1="301.721" y2="276.07"/><line style="fill:none;stroke:#e5783c;stroke-width:1.5;stroke-linecap:round;stroke-linejoin:round;stroke-miterlimit:10" x1="516.443" x2="526.037" y1="301.721" y2="276.07"/><line style="fill:none;stroke:#e5783c;stroke-width:1.5;stroke-linecap:round;stroke-linejoin:round;stroke-miterlimit:10" x1="506.043" x2="515.636" y1="301.721" y2="276.07"/><line style="fill:none;stroke:#e5783c;stroke-width:1.5;stroke-linecap:round;stroke-linejoin:round;stroke-miterlimit:10" x1="495.643" x2="505.236" y1="301.721" y2="276.07"/><line style="fill:none;stroke:#e5783c;stroke-width:1.5;stroke-linecap:round;stroke-linejoin:round;stroke-miterlimit:10" x1="488.72" x2="539.403" y1="293.929" y2="293.929"/><line style="fill:none;stroke:#e5783c;stroke-width:1.5;stroke-linecap:round;stroke-linejoin:round;stroke-miterlimit:10" x1="491.983" x2="542.667" y1="284.897" y2="284.897"/></g><g><path style="fill:#f9d1aa" d="M511.207,213.811c0.157-1.179,0.073-2.378-0.134-3.542c-0.744-4.187-3.134-8.005-6.513-10.404 c-6.013-4.268-16.09-3.535-22.202,0.696c-3.02,2.091-5.065,5.349-7.022,8.511c-2.408,3.892-5.892,9.093-4.451,13.885 c3.065,10.19,15.864,11.126,24.545,9.166c0.155-0.035,0.31-0.071,0.465-0.109c0.166-0.04,0.331-0.081,0.496-0.124 c6.677-1.714,10.986-7.992,13.615-14.194C510.538,216.445,511.027,215.158,511.207,213.811z"/><path style="fill:#edbc94" d="M488.376,219.337c-0.976-0.836-2.497-1.233-3.68-0.75c-1.082,0.441-1.757,1.454-1.864,2.604 c-0.258,2.768,4.674,3.269,6.044,1.926c0.985-0.965,0.679-2.486-0.155-3.44C488.616,219.557,488.5,219.443,488.376,219.337z"/><path style="fill:#edbc94" d="M473.489,213.551c-0.105-0.12-0.221-0.234-0.345-0.34c-0.063-0.054-0.134-0.1-0.201-0.15 c-0.813,1.482-1.536,3.047-1.97,4.634c1.085,0.055,2.143-0.186,2.671-0.703C474.629,216.026,474.323,214.505,473.489,213.551z"/><path style="fill:#401f00" d="M497.531,218.669c0.238,1.74,0.413,3.16-0.182,4.849c-0.524,1.487-2.063,2.275-2.81,3.633 c-1.887,3.429-0.384,7.165,2.549,9.317c2.066,1.516,4.541,2.417,7.072,2.722c2.61,0.314,5.081-0.177,7.634-0.709 c1.94-0.404,3.917-0.511,5.875-0.315c2.71,0.271,7.147,0.502,8.161-2.896c0.544-1.823-0.536-3.709-1.755-5.137 c-1.22-1.427-2.683-2.786-3.123-4.628c-0.38-1.592,0.08-3.277-0.078-4.91c-0.14-1.456-0.79-2.852-1.806-3.88 c-0.585-0.592-1.281-1.06-1.877-1.64c-2.115-2.058-1.788-4.854-2.971-7.354c-0.333-0.703-0.786-1.388-1.325-1.933 c-0.605-0.611-1.522-0.885-2.039-1.579c-0.176-0.236-0.286-0.518-0.384-0.801c-0.734-2.127-1.958-4.043-3.524-5.628 c-1.536-1.555-3.138-2.459-5.09-3.303c-1.019-0.441-1.893-1.194-2.915-1.656c-1.025-0.463-2.107-0.797-3.213-0.999 c-2.21-0.404-4.525-0.282-6.677,0.414c-0.43,0.139-0.854,0.301-1.268,0.486c-1.697,0.757-3.324,1.883-5.169,1.955 c-1.652,0.064-3.247-0.741-4.897-0.63c-2.113,0.141-4.01,1.976-4.255,4.115c-0.245,2.139,1.191,4.335,3.221,4.924 c1.431,0.415,3.013,0.098,4.42,0.591c1.75,0.613,2.862,2.329,4.4,3.372c1.63,1.106,3.772,1.401,5.65,0.778 c1.438-0.477,3.069-1.438,4.306-0.575c0.841,0.587,1.041,1.779,1.761,2.512c0.52,0.529,1.255,0.766,1.881,1.159 c0.626,0.393,1.193,1.092,1.02,1.825c-0.185,0.785-1.068,1.132-1.656,1.678C497.364,215.447,497.327,217.178,497.531,218.669z"/><g><g><path style="fill:#f7b7a4" d="M521.356,209.045c-0.223-1.053-0.789-1.991-1.442-2.825c-0.835-1.067-1.829-1.999-2.935-2.76 c-1.041-0.716-2.445-1.133-3.275-2.128c-0.589-0.707-0.889-1.553-1.252-2.393c-0.475-1.098-1.074-2.122-1.78-3.074 c-1.351-1.82-2.994-3.506-5.071-4.417c-1.535-0.673-3.51-0.552-4.775,0.707c-1.089,1.083-1.256,2.564-1.133,4.025 c0.349,4.153,2.316,8.048,5.166,10.954c2.851,2.905,6.544,4.854,10.439,5.903c0.936,0.252,1.903,0.456,2.873,0.371 c0.97-0.085,1.955-0.493,2.576-1.278C521.418,211.285,521.578,210.099,521.356,209.045z"/></g><g><path style="fill:#f7b7a4" d="M512.867,203.148c-0.278-0.078-0.537-0.233-0.744-0.464c-0.577-0.646-0.523-1.638,0.123-2.216 c0.817-0.731,1.704-1.374,2.638-1.913c0.752-0.433,1.711-0.175,2.144,0.575c0.433,0.751,0.176,1.71-0.575,2.144 c-0.746,0.431-1.458,0.947-2.113,1.534C513.923,203.179,513.365,203.289,512.867,203.148z"/></g></g><path style="fill:none;stroke:#161313;stroke-linejoin:round;stroke-miterlimit:10" d="M480.533,232.02 c3.811,0.662,7.75,0.577,11.529-0.25"/><path style="fill:none;stroke:#161313;stroke-linejoin:round;stroke-miterlimit:10" d="M476.951,212.82 c-0.462,0.163-0.902,0.391-1.301,0.676c-0.497,0.356-0.968,0.903-0.867,1.506c0.087,0.521,0.564,0.874,1.002,1.169"/><path style="fill:none;stroke:#161313;stroke-linejoin:round;stroke-miterlimit:10" d="M485.08,209.548 c1.26-0.543,2.66,0.036,3.337,1.178c0.38,0.642,0.568,1.375,0.798,2.079"/><path style="fill:none;stroke:#161313;stroke-linejoin:round;stroke-miterlimit:10" d="M478.301,205.157 c0.917-0.487,1.881-0.095,2.307,0.774c0.239,0.489,0.338,1.058,0.468,1.603"/><path style="fill:#161313" d="M485.516,214.843c-0.581,0.735-1.419,1.04-1.874,0.681c-0.454-0.359-0.352-1.246,0.228-1.981 c0.581-0.735,1.419-1.04,1.874-0.682C486.199,213.221,486.097,214.107,485.516,214.843z"/><path style="fill:#161313" d="M478.005,209.7c-0.581,0.735-1.419,1.04-1.874,0.681c-0.454-0.359-0.352-1.246,0.228-1.981 c0.581-0.735,1.419-1.04,1.874-0.681C478.688,208.078,478.586,208.965,478.005,209.7z"/><path style="fill:#fff" d="M474.827,218.696l6.166-0.544c0,0,1.093,5.873-2.939,5.867 C474.284,224.013,474.827,218.696,474.827,218.696z"/><g><path style="fill:#f9d1aa" d="M493.638,217.586c1.084-0.989,2.672-1.217,4.217-0.31c1.842,1.081,2.029,3.454,1.384,5.105 c-0.99,2.537-5.093,5.379-7.689,3.395c-1.182-0.903-1.255-2.151-0.779-3.34c0.546-1.366,1.41-2.709,2.156-3.97 C493.127,218.129,493.367,217.833,493.638,217.586z"/><path style="fill:none;stroke:#161313;stroke-linejoin:round;stroke-miterlimit:10" d="M496.991,220.759 c-1.544,0.34-4.024,1.173-5.547,1.576"/><path style="fill:none;stroke:#161313;stroke-linejoin:round;stroke-miterlimit:10" d="M498.559,223.747 c-1.343,1.566-5.166,4.398-8.052,1.444"/><path style="fill:none;stroke:#161313;stroke-linejoin:round;stroke-miterlimit:10" d="M498.039,217.027 c-1.394-0.741-2.966-0.311-3.474-0.116c-0.508,0.195-0.974,0.487-1.419,0.802"/></g></g></g></g><g><path style="fill:none;stroke:#e5783c;stroke-width:3.5;stroke-linecap:round;stroke-linejoin:round;stroke-miterlimit:10" d="M273.359,77.22c5.05,1.323,9.288,5.393,10.815,10.385c0.603,1.97,0.951,4.278,2.665,5.422c1.923,1.284,4.474,0.404,6.786,0.347 c3.482-0.086,6.922,2.022,8.427,5.163"/><path style="fill:none;stroke:#e5783c;stroke-width:3.5;stroke-linecap:round;stroke-linejoin:round;stroke-miterlimit:10" d="M462.438,122.326c-0.54-2.906,1.779-5.625,4.377-7.034c2.598-1.409,5.586-2.014,8.116-3.543c3.375-2.039,5.696-5.731,6.071-9.657 c0.425-4.45,0.396-6.164,4.153-8.588"/><path style="fill:none;stroke:#ffcd65;stroke-width:3.5;stroke-linecap:round;stroke-linejoin:round;stroke-miterlimit:10" d="M236.228,203.192c4.132-5.329,11.522-6.978,18.263-6.773c2.143,0.065,4.395,0.259,6.328-0.668c3.821-1.831,4.918-7.286,8.84-8.892"/><path style="fill:none;stroke:#ffcd65;stroke-width:3.5;stroke-linecap:round;stroke-linejoin:round;stroke-miterlimit:10" d="M494.44,152.148c2.115-2.306,5.329-3.324,8.451-3.529c3.122-0.206,6.24,0.302,9.358,0.565c0.826,0.07,1.684,0.118,2.458-0.18 c1.008-0.387,1.706-1.29,2.429-2.092c4.062-4.51,10.503-6.745,16.486-5.721"/><path style="fill:none;stroke:#847dcc;stroke-width:3.5;stroke-linecap:round;stroke-linejoin:round;stroke-miterlimit:10" d="M327.972,35.267c5.103,3.448,6.666,10.185,7.299,16.311c0.165,1.595,0.3,3.218,0.874,4.716c1.131,2.951,3.781,5.006,5.646,7.558 c2.84,3.887,3.786,9.094,2.496,13.731"/><path style="fill:none;stroke:#847dcc;stroke-width:3.5;stroke-linecap:round;stroke-linejoin:round;stroke-miterlimit:10" d="M485.792,173.464c1.1-2.303,3.734-3.499,6.267-3.813c2.533-0.314,5.099,0.066,7.649-0.027c5.421-0.198,10.726-2.635,14.408-6.619"/><circle style="fill:#847dcc" cx="262.378" cy="124.771" r="3.69"/><circle style="fill:#847dcc" cx="558.255" cy="200.776" r="3.69"/><circle style="fill:#e5783c" cx="455.724" cy="152.452" r="3.69"/><circle style="fill:#e5783c" cx="244.634" cy="221.943" r="3.69"/><circle style="fill:#ffcd65" cx="335.566" cy="115.257" r="3.69"/><circle style="fill:#ffcd65" cx="425.683" cy="71.498" r="3.69"/></g><g><line style="fill:#fff;stroke:#231f20;stroke-width:1.6;stroke-miterlimit:10" x1="110.814" x2="688.677" y1="452.3" y2="452.3"/><line style="fill:#fff;stroke:#231f20;stroke-width:1.6;stroke-miterlimit:10" x1="61.323" x2="99.749" y1="452.3" y2="452.3"/></g></g></svg>