<svg xmlns="http://www.w3.org/2000/svg" xmlns:xlink="http://www.w3.org/1999/xlink" x="0" y="0" version="1.1" viewBox="0 0 750 500" style="enable-background:new 0 0 750 500" xml:space="preserve"><g id="BACKGROUND"><rect style="fill:#f4f3dd" width="750" height="500"/></g><g id="OBJECTS"><g><defs><rect id="SVGID_1_" width="750" height="500"/></defs><clipPath id="SVGID_00000008855317126595976820000006679506028568489102_"><use xlink:href="#SVGID_1_" style="overflow:visible"/></clipPath><g style="clip-path:url(#SVGID_00000008855317126595976820000006679506028568489102_)"><g><path style="fill:#f7946d" d="M333.01,326.056c-48.642,19.966-96.616,31.4-147.971,41.192 c-51.356,9.792-82.836,14.859-132.75-3.811c55.972,52.836,39.522,121.402,92.364,153.634 c16.816,10.257,35.939,14.708,53.384,23.552c18.963,9.613,35.533,24.194,53.754,35.461 c32.654,20.191,71.295,29.366,107.61,22.042c15.635-3.153,30.596-9.236,46.085-13.093c29.109-7.249,155.908,6.852,185.03,15.594 c10.858-39.225-36.505-99.584-25.647-138.809c4.757-17.186,0.499-34.447-6.005-50.545c-9.194-22.758-14.818-48.63-37.057-62.35 c-25.189-15.54-56.207-16.076-83.203-27.008c-6.163-2.495-12.172-5.39-18.48-7.49c-10.258-3.414-23.371-6.708-34.199-5.983 c-8.626,0.577-17.278,4.217-25.436,6.879C351.156,318.366,342.084,322.331,333.01,326.056z"/><path style="fill:none;stroke:#e2603d;stroke-width:1.5;stroke-miterlimit:10" d="M144.292,434.072 c52.869-14.752,87.372-30.025,129.12-52.085c10.904-5.762,21.531-12.117,31.631-19.201"/><g><path style="fill:#d8946f" d="M389.285,146.522c0,0-87.576,21.668-137.536,48.42c-32.993,17.667-34.679,62.425-22.146,89.819 c12.042,26.321,56.118,93.844,56.118,93.844l96.428-64.345l-44.232-53.899l84.211-48.453"/><path style="fill:#d8946f" d="M375,159.694c11.479-16.027,22.582-17.874,36.882-21.443c2.297-0.573,4.625-1.13,6.731-2.211 c2.421-1.242,4.444-3.121,6.452-4.957c8.666-7.924,18.14-15.733,29.582-18.373c1.741-0.402,3.577-0.675,5.298-0.196 c1.721,0.479,3.292,1.888,3.454,3.667c0.137,1.51-0.723,2.921-1.649,4.12c-5.529,7.163-14.512,11.332-19.09,19.138 c11.028-7.105,22.49-14.379,35.461-16.342c2.434-0.368,5.013-0.526,7.269,0.458c2.256,0.984,4.044,3.423,3.534,5.831 c-0.421,1.988-2.184,3.368-3.855,4.524c-8.196,5.669-29.636,19.355-29.636,19.355s24.248-7.944,33.405-11.259 c6.244-2.261,13.541-4.435,19.19-0.944c1.347,0.833,2.605,2.178,2.509,3.759c-0.106,1.746-1.755,2.935-3.241,3.857 c-10.67,6.624-41.12,21.517-41.121,21.517c4.265-2.086,9.504-2.924,13.997-4.445c6.883-2.33,13.894-4.127,20.682-6.793 c1.627-0.639,3.273-1.31,5.013-1.48c1.74-0.17,3.625,0.235,4.85,1.483c2.008,2.045,1.499,5.59-0.215,7.887 c-1.714,2.297-4.311,3.726-6.659,5.371c-2.637,1.847-35.482,16.352-36.87,20.827c-0.303,0.976,1.119,1.627,2.071,2 c7.239,2.836,14.99,5.402,20.234,11.142c1.63,1.784,3.022,4.025,2.885,6.438c-0.197,3.483-3.606,6.08-7.052,6.624 c-3.446,0.545-6.925-0.447-10.302-1.323c-7.842-2.036-15.547-2.309-23.639-2.649c-8.63-0.362-17.301-0.369-25.89,0.639 c-9.791,1.149-19.823,3.592-29.345,1.039"/><path style="fill:none;stroke:#161313;stroke-linejoin:round;stroke-miterlimit:10" d="M458.266,190.872 c-6.741-4.77-14.354-8.302-22.349-10.368c-4.782-1.236-9.904-1.938-14.614-0.451"/><path style="fill:none;stroke:#161313;stroke-linejoin:round;stroke-miterlimit:10" d="M466.07,169.182 c1.713-0.714,3.426-1.427,5.139-2.141"/><path style="fill:none;stroke:#161313;stroke-linejoin:round;stroke-miterlimit:10" d="M454.084,153.134 c1.071-0.5,2.141-0.999,3.212-1.499"/><path style="fill:none;stroke:#161313;stroke-linejoin:round;stroke-miterlimit:10" d="M440.16,140.276 c1.858-0.995,3.715-1.991,5.573-2.986"/><path style="fill:none;stroke:#161313;stroke-linejoin:round;stroke-miterlimit:10" d="M426.856,146.906 c-4.405,8.057-10.284,15.304-17.259,21.276"/><path style="fill:none;stroke:#161313;stroke-linejoin:round;stroke-miterlimit:10" d="M413.83,216.734 c3.474-0.976,7.099-1.413,10.705-1.29"/><path style="fill:none;stroke:#161313;stroke-width:1.5;stroke-linejoin:round;stroke-miterlimit:10" d="M338.39,260.651 c-17.38,11.137-36.507,19.541-56.465,24.809"/></g><path style="fill:#d8946f" d="M484.679,304.123l-80.122,7.016c-1.044-0.816-20.439,7.215-21.125,7.443 c-0.686,0.229-10.513,21.255-10.513,21.255s0.914,30.168,34.477,51.376c33.562,21.207,75.684-24.01,75.684-24.01l-7.14-48.621 L484.679,304.123z"/><path style="fill:#847dcc" d="M555.198,609.206l-5.64-128.691l-29.146-115l-40.402-10.893c0,0-33.954,35.772-72.151,24.454 s-18.156-60.875-18.156-60.875l-37.388-40.296l-93.003,65.838l22.613,43.678l-87.219,221.785H555.198z"/><path style="fill:#847dcc" d="M488.924,484.018l95.776-3.503L563.88,374.411c0,0-40.013-12.141-52.745-15.999 c-12.733-3.858-31.124-3.79-31.124-3.79"/><g><path style="fill:#f7946d" d="M397.791,387.658c-8.57-5.691-13.172-15.101-13.074-24.335 c0.105-9.919,3.064-20.424,6.256-29.732c0.83-2.421,1.733-4.828,2.818-7.147c0.745-1.593,2.924-3.96,3.234-5.582 c0.367-1.916-0.364-1.816-2.297-3.056c-1.712-1.097-3.391-2.245-5.037-3.439c-6.921-5.024-12.728-10.448-16.141-18.46 c0.201,0.472-7.814,8.193-8.486,8.977c-3.081,3.596-5.953,7.383-8.457,11.406c-4.664,7.493-8.081,15.901-8.682,24.777 c-0.697,10.278,2.444,20.666,8.492,29.591s14.941,16.391,25.289,21.767"/><path style="fill:#f7946d" d="M499.375,349.839l-4.931-1.254c-15.306,2.553-28.216,12.482-40.24,22.292 c-12.023,9.81-24.461,20.131-39.552,23.744c4.166,3.514,9.236,5.695,14.162,7.904c9.907,4.441,18.555,5.24,29.211,3.07 c12.225-2.489,23.293-9.017,32.832-16.787c6.277-5.113,12.815-9.905,19.581-14.35c6.594-4.332,12.797-8.644,20.75-9.732 c2.039-0.279,2.261-0.079,4.066,1.002C522.653,358.179,513.948,351.692,499.375,349.839z"/><path style="fill:#f7946d" d="M407.956,400.5c-0.137,11.359,4.988,21.649,9.291,31.608 c5.304,12.274,13.723,22.703,23.382,31.016c4.762,4.098,9.876,7.768,15.244,10.823c5.63,3.204,10.266-0.643,12.425-6.819 c3.089-8.836,1.806-18.977-1.728-27.607c-7.522-18.367-21.602-33.816-38.695-41.114c-5.696-2.432-11.539-4.897-17.645-5.011"/><path style="fill:none;stroke:#161313;stroke-width:1.5;stroke-linejoin:round;stroke-miterlimit:10" d="M412.087,400.428 c14.577,9.183,26.009,22.673,35.271,37.2c5.87,9.207,11.061,19.225,12.164,30.089"/><path style="fill:#f7946d" d="M392.187,390.274c-2.565-1.826-5.305-3.407-8.17-4.715c-4.184-1.91-8.82-3.247-13.362-2.524 c-4.251,0.677-8.007,3.082-11.514,5.578c-4.284,3.049-8.416,6.326-12.197,9.98c-9.12,8.812-16.114,19.809-20.228,31.805 c-2.16,6.298-3.533,13.142-1.911,19.599c0.603,2.398,1.802,4.895,4.064,5.895c2.759,1.22,5.914-0.221,8.542-1.702 c8.491-4.784,16.582-10.29,25.328-14.592c8.675-4.267,17.982-7.344,26.059-12.656c4.342-2.856,8.501-6.702,9.579-11.786"/><path style="fill:none;stroke:#161313;stroke-width:1.5;stroke-linejoin:round;stroke-miterlimit:10" d="M337.756,443.027 c10.339-12.181,24.226-21.312,39.507-25.977c3.85-1.175,7.843-2.079,11.865-1.908"/><path style="fill:#f7946d" d="M405.574,383.575c-2.125-0.361-4.171-1.102-6.295-1.469c-6.635-1.144-13.803,1.756-17.776,7.191 c-4.35,5.951-4.689,13.833-4.862,21.202c-0.043,1.826-0.081,3.688,0.448,5.437c0.488,1.612,1.435,3.044,2.462,4.378 c4.813,6.253,12.537,11.043,20.315,9.717c4.608-0.786,8.591-3.566,12.402-6.272c0.33-0.234,0.668-0.477,0.882-0.82 c0.341-0.544,0.309-1.233,0.281-1.874c-0.445-10.264,3.994-17.397,7.483-26.498 C438.016,389.773,412.288,384.716,405.574,383.575z"/><path style="fill:none;stroke:#161313;stroke-width:1.5;stroke-linejoin:round;stroke-miterlimit:10" d="M414.452,422.619 c-1.11-9.689,0.962-19.716,5.823-28.171c1.245-2.166,4.094-2.38,6.24-3.659"/><path style="fill:none;stroke:#161313;stroke-width:1.5;stroke-linejoin:round;stroke-miterlimit:10" d="M391.533,382.188 c-2.434,0.588-5.734,1.825-7.387,3.82c-1.451,1.752-2.781,4.023-3.813,6.061c-2.423,4.785-3.524,10.171-3.842,15.496 c-0.261,4.362,0.028,8.976,2.286,12.682c0.954,1.566,2.223,2.904,3.55,4.151c1.478,1.388,3.065,2.695,4.891,3.543"/><path style="fill:none;stroke:#161313;stroke-width:1.5;stroke-linejoin:round;stroke-miterlimit:10" d="M369.112,383.735 c3.872,2.202,7.905,4.121,12.057,5.735"/><path style="fill:none;stroke:#161313;stroke-width:1.5;stroke-linejoin:round;stroke-miterlimit:10" d="M420.192,395.298 c5.333,1.487,16.937,7.172,21.731,11.406"/><path style="fill:none;stroke:#161313;stroke-width:1.5;stroke-linejoin:round;stroke-miterlimit:10" d="M375.477,348.068 c-1.263,5.969,0.16,12.169,2.027,17.977c2.031,6.316,4.72,12.648,9.478,17.272"/><path style="fill:none;stroke:#161313;stroke-width:1.5;stroke-linejoin:round;stroke-miterlimit:10" d="M421.903,393.194 c2.527,0.343,5.075,0.571,7.626,0.539c8.904-0.11,17.501-3.381,25.32-7.642c7.819-4.261,15.042-9.528,22.689-14.09 c12.276-7.323,25.646-12.809,39.528-16.22"/></g><path style="fill:none;stroke:#161313;stroke-width:1.5;stroke-linejoin:round;stroke-miterlimit:10" d="M509.332,481.263 c13.635-0.101,27.269-0.202,40.904-0.303"/><path style="fill:none;stroke:#161313;stroke-width:1.5;stroke-linejoin:round;stroke-miterlimit:10" d="M283.33,387.526 c4.177-9.353,7.731-18.984,10.63-28.809"/></g><g><g><path style="fill:#ffcd65" d="M466.951,177.993c-12.919-4.158-26.871-2.599-39.905,1.115 c-13.033,3.714-25.479,9.506-38.327,13.919c-21.453,7.368-35.286,14.376-57.422,10.004 c17.855,34.651,45.835,55.458,81.684,68.719c12.107,4.478,24.757,6.904,37.212,10.058c11.835,2.997,23.526,6.662,35.012,10.976 c4.339-16.423,19.776-25.772,30.13-38.631c15.28-18.979,19.231-45.532,21.389-70.639"/><path style="fill:#f9d1aa" d="M542.477,262.043c1.115,9.345,4.021,18.43,4.771,27.811c0.898,11.248-1.33,22.477-2.39,33.711 c-1.227,13.003-0.887,26.098-0.547,39.155l-65.594,4.287c-5.419-29.868-4.344-60.898,3.128-90.32"/><path style="fill:#f9d1aa" d="M461.187,288.683c-7.928,5.07-14.844,11.64-22.964,16.396 c-9.737,5.703-20.817,8.582-31.393,12.516c-12.242,4.553-23.884,10.557-35.492,16.544l-32.4-57.194 c24.535-17.875,52.941-30.409,82.683-36.483"/><g><path style="fill:#fff" d="M545.107,348.564l-69.789,1.913l1.892,16.529c0,0-12.432,8.335-8.607,12.638 c3.825,4.303,58.175-2.231,67.26-2.709c9.085-0.478,11.594-3.334,11.594-7.332c0-4.769-2.19-9.404-2.19-11.635 C545.266,355.736,545.107,348.564,545.107,348.564z"/><path style="fill:none;stroke:#d2d8e6;stroke-miterlimit:10" d="M483.114,350.498c-0.026,3.146,0.301,6.295,0.974,9.369"/><path style="fill:none;stroke:#d2d8e6;stroke-miterlimit:10" d="M494.129,350.03c0.218,3.065,0.436,6.13,0.654,9.196"/><path style="fill:none;stroke:#d2d8e6;stroke-miterlimit:10" d="M505.244,349.572c-0.193,1.805,0.131,3.619,0.27,5.428 c0.084,1.097,0.1,2.198,0.088,3.299"/><path style="fill:none;stroke:#d2d8e6;stroke-miterlimit:10" d="M515.766,349.19c0.426,3.013,0.608,6.064,0.543,9.109"/><path style="fill:none;stroke:#d2d8e6;stroke-miterlimit:10" d="M526.652,349.106c0.129,2.872,0.208,5.751,0.238,8.632"/><path style="fill:none;stroke:#d2d8e6;stroke-miterlimit:10" d="M537.416,348.829c0.529,3.185,0.637,6.44,0.319,9.654"/></g><g><path style="fill:#f9d1aa" d="M457.566,171.511c-10.71-16.413-21.704-32.64-32.976-48.671l-29.908,19.009 c6.752,22.204,16.899,43.372,29.981,62.542"/><g><path style="fill:#f9d1aa" d="M425.472,127c0.156-7.681-3.601-16.739-3.719-24.421c-0.02-1.28,0.002-2.727-0.93-3.619 c-1.255-1.201-3.429,1.066-4.164,2.694c-0.714,1.581-1.551,4.707-2.905,4.452c-4.28-1.349-6.518-8.217-8.064-10.213 c-0.628-0.811-1.441-1.545-2.205-2.239c-0.831-0.756-1.833-0.611-2.603,0.07c-0.799,0.707-0.986,1.897-0.879,2.95 c0.281,2.782,0.85,4.904,1.377,7.608c-2.193-3.182-2.613-7.544-5.593-10.029c-0.718-0.598-1.609-1.067-2.549-1.035 c-0.931,0.032-2.347,0.582-2.714,1.414c-0.663,1.507,0.53,4.138,0.878,5.652c0.493,2.139,1.158,4.228,1.963,6.273 c-2.983-2.705-4.427-5.852-8.304-7.022c-1.098-0.331-2.515-0.223-3.098,0.752c-0.482,0.807-0.184,1.83,0.13,2.714 c1.266,3.564,3.267,6.389,4.688,9.896c-1.345-1.466-2.761-2.288-4.105-3.754c-0.81-0.883-1.679-1.804-2.835-2.149 c-1.156-0.345-2.663,0.157-2.947,1.313c-0.133,0.54,0.017,1.105,0.174,1.639c4.578,15.64,13.919,27.884,25.047,39.915"/><path style="fill:none;stroke:#161313;stroke-linejoin:round;stroke-miterlimit:10" d="M390.965,136.922 c1.257,1.502,2.514,3.005,3.771,4.507"/><path style="fill:none;stroke:#161313;stroke-linejoin:round;stroke-miterlimit:10" d="M388.743,115.106 c2.012,1.909,4.405,3.375,6.645,5.019c2.241,1.644,4.391,3.54,5.646,5.998"/><path style="fill:none;stroke:#161313;stroke-linejoin:round;stroke-miterlimit:10" d="M393.359,106.981 c1.165,1.705,2.52,3.285,4.033,4.701"/><path style="fill:none;stroke:#161313;stroke-linejoin:round;stroke-miterlimit:10" d="M401.824,105.135 c0.492,0.878,1.048,1.72,1.661,2.521"/><path style="fill:none;stroke:#161313;stroke-linejoin:round;stroke-miterlimit:10" d="M413.506,106.362 c-0.072,0.98-0.003,1.97,0.204,2.931"/><path style="fill:none;stroke:#161313;stroke-linejoin:round;stroke-miterlimit:10" d="M413.876,108.778 c-0.824,1.598-2.602,4.7-3.058,6.435c-0.455,1.735-0.549,3.604,0.034,5.302"/></g></g><g><path style="fill:#f9d1aa" d="M531.474,183.767c13.174-14.509,26.599-28.791,40.268-42.835l26.52,23.506 c-10.183,20.855-23.555,40.149-39.507,57.005"/><g><path style="fill:#f9d1aa" d="M570.212,144.901c1.063-7.609,6.206-15.958,7.54-23.524c0.222-1.261,0.43-2.693,1.492-3.426 c1.43-0.987,3.217,1.596,3.685,3.32c0.454,1.674,0.786,4.893,2.163,4.856c4.44-0.655,7.737-7.081,9.579-8.808 c0.748-0.701,1.668-1.297,2.532-1.862c0.94-0.614,1.907-0.313,2.559,0.482c0.677,0.824,0.673,2.029,0.401,3.052 c-0.718,2.703-1.615,4.708-2.564,7.294c2.669-2.795,3.775-7.035,7.111-9.016c0.803-0.477,1.758-0.799,2.681-0.619 c0.914,0.179,2.226,0.946,2.456,1.826c0.417,1.593-1.178,4.002-1.762,5.442c-0.826,2.034-1.813,3.991-2.932,5.883 c3.374-2.199,5.298-5.077,9.311-5.618c1.137-0.153,2.518,0.178,2.94,1.233c0.349,0.873-0.108,1.836-0.558,2.659 c-1.815,3.319-4.238,5.791-6.196,9.029c1.56-1.235,3.088-1.822,4.648-3.057c0.939-0.744,1.943-1.516,3.139-1.673 c1.196-0.157,2.604,0.577,2.702,1.764c0.046,0.555-0.192,1.088-0.431,1.591c-6.997,14.717-18.159,25.328-31.052,35.445"/><path style="fill:none;stroke:#161313;stroke-linejoin:round;stroke-miterlimit:10" d="M602.713,160.162 c-1.479,1.284-2.958,2.569-4.437,3.853"/><path style="fill:none;stroke:#161313;stroke-linejoin:round;stroke-miterlimit:10" d="M608.361,138.973 c-2.289,1.566-4.884,2.635-7.356,3.903c-2.473,1.268-4.896,2.8-6.525,5.029"/><path style="fill:none;stroke:#161313;stroke-linejoin:round;stroke-miterlimit:10" d="M605.09,130.22 c-1.421,1.499-3.009,2.845-4.726,4.004"/><path style="fill:none;stroke:#161313;stroke-linejoin:round;stroke-miterlimit:10" d="M597.025,127.057 c-0.625,0.788-1.307,1.533-2.039,2.226"/><path style="fill:none;stroke:#161313;stroke-linejoin:round;stroke-miterlimit:10" d="M585.296,126.418 c-0.084,0.979-0.309,1.946-0.666,2.862"/><path style="fill:none;stroke:#161313;stroke-linejoin:round;stroke-miterlimit:10" d="M584.548,128.745 c0.561,1.708,1.825,5.053,2,6.838c0.175,1.786-0.029,3.646-0.874,5.23"/></g></g><path style="fill:#e2603d" d="M544.427,168.286l-21.614,11.697c0,0-24.96,3.082-40.388,2.983 c-15.428-0.099-19.695-8.083-19.695-8.083l-8.362-9.933c-12.409,10.193-25.086,20.017-38.011,29.455l11.223,17.596 c0,0-2.308,12.401-5.236,22.904c-0.411,1.475-0.764,2.956-1.07,4.413l-26.59,7.132l42.342,61.614l14.258-8.41 c0,0,3.224,1.663,8.89,2.394c5.665,0.731,15.145,0,15.145,0l-0.707,9.948l72.846-1.358c0,0,3.077-17.362,2.764-26.317 c-0.198-5.652-3.036-14.723-5.104-20.648c-0.166-2.795-0.093-5.732,0.409-7.428c1.098-3.708,9.925-27.708,9.925-27.708 s20.393-21.496,21.22-21.462C577.497,207.108,544.427,168.286,544.427,168.286z"/><g><path style="fill:#ffcd65" d="M473.845,190.675c-6.086,0.637-11.141-0.585-15.902-4.464c-3.288-2.679-6.57-5.732-7.849-9.775 c3.388-1.213,6.583-2.962,9.43-5.162c3.538,3.96,7.085,7.93,11.045,11.467c1.819,1.624,3.819,3.202,6.203,3.714"/><path style="fill:#ffcd65" d="M489.462,193.781c7.903,2.442,14.926,2.148,22.258-1.746 c5.063-2.689,10.216-5.876,12.974-10.902c-4.174-2.497-7.952-5.655-11.15-9.32c-5.73,4.323-11.475,8.656-17.656,12.307 c-2.838,1.676-5.904,3.244-9.2,3.298"/><path style="fill:#ffcd65" d="M481.62,197.528c1.535,3.557,4.17,6.629,7.452,8.687c2.561,1.606,5.508,2.616,7.814,4.571 c1.253,1.062,2.272,2.367,3.435,3.527c0.807,0.805,1.681,1.538,2.554,2.27c2.131,1.787,4.262,3.574,6.393,5.361 c0.13,0.109,0.277,0.225,0.447,0.219c0.265-0.008,0.423-0.291,0.525-0.536c2.158-5.174,3.328-10.943,2.126-16.418 c-0.402-1.832-1.062-3.6-1.86-5.297c-1.016-2.161-2.282-4.245-4.036-5.865c-2.92-2.695-6.954-3.881-10.912-4.233 c-3.958-0.352-7.939,0.044-11.913,0.075"/><path style="fill:#ffcd65" d="M478.639,189.582c-3.239-1.086-6.506-2.171-9.896-2.596c-3.39-0.425-6.95-0.152-10.008,1.371 c-2.982,1.485-5.313,4.081-6.909,7.005s-2.505,6.174-3.154,9.441c-0.747,3.757-1.118,7.865,0.709,11.231 c0.303,0.559,0.707,1.123,1.311,1.322c0.504,0.167,1.061,0.047,1.551-0.159c1.815-0.763,2.96-2.571,4.603-3.657 c0.791-0.523,1.683-0.868,2.563-1.222c4.013-1.615,7.918-3.485,11.819-5.355c2.096-1.004,4.206-2.017,6.083-3.388 c0.411-0.3,0.854-0.813,0.594-1.251"/><path style="fill:none;stroke:#161313;stroke-linejoin:round;stroke-miterlimit:10" d="M453.044,211.758 c0.466-1.271,1.252-2.395,2.029-3.503c1.74-2.48,3.511-4.994,5.864-6.903c3.397-2.757,7.793-4.053,12.154-4.404"/><path style="fill:none;stroke:#161313;stroke-linejoin:round;stroke-miterlimit:10" d="M507.703,216.737 c-1.003-2.835-2.516-5.489-4.445-7.797c-1.737-2.079-3.799-3.867-5.966-5.492c-4.686-3.514-10.077-6.357-15.905-6.946"/><path style="fill:#ffcd65" d="M485.609,192.048l3.659-2.536c-1.852-2.891-5.012-4.907-8.414-5.367 c-1.068-0.145-2.179-0.139-3.194,0.224c-1.005,0.359-1.858,1.047-2.628,1.785c-2.245,2.152-3.979,4.885-4.71,7.908 c-0.731,3.023-0.413,6.334,1.112,9.045c0.625,1.111,1.478,2.141,2.623,2.7c1.929,0.94,4.218,0.373,6.283-0.21 c2.619-0.74,5.05-2.027,5.05-2.027S485.688,194.982,485.609,192.048z"/><path style="fill:none;stroke:#161313;stroke-linejoin:round;stroke-miterlimit:10" d="M473.221,188.099 c-1.95,2.49-3.056,5.629-3.097,8.791c-0.041,3.165,1.086,6.479,3.569,8.442"/><path style="fill:none;stroke:#161313;stroke-linejoin:round;stroke-miterlimit:10" d="M488.998,189.91 c-1.151,0.178-2.092,1.111-2.617,2.194c-0.525,1.083-0.698,2.309-0.843,3.512c-0.299,2.482-0.486,5.128,0.579,7.37"/><path style="fill:none;stroke:#161313;stroke-linejoin:round;stroke-miterlimit:10" d="M490.337,188.862 c5.886-0.223,11.83,1.589,16.59,5.057"/><path style="fill:none;stroke:#161313;stroke-linejoin:round;stroke-miterlimit:10" d="M461.765,187.325 c2.719-1.46,5.916-1.712,9.002-1.685c0.996,0.009,2.047,0.06,2.886,0.596"/></g><path style="fill:#cc5033" d="M491.17,223.862c-1.54-2.365-3.144-4.69-4.88-6.915c-1.619-2.075-3.56-4.969-6.031-6.103 c-3.959-1.818-22.304,8.051-19.52,10.741c0.511,0.494,1.193,0.764,1.866,0.994c8.831,3.012,17.955,4.339,27.222,5.105 c2.685,0.222,3.185-0.967,1.783-3.143C491.463,224.314,491.317,224.088,491.17,223.862z"/><path style="fill:#e2603d" d="M484.297,221.358c-0.837-1.094-1.707-2.17-2.648-3.201c-0.877-0.961-1.931-2.3-3.259-2.835 c-2.126-0.857-11.869,3.562-10.366,4.812c0.276,0.23,0.642,0.358,1.003,0.467c4.736,1.434,9.619,2.096,14.574,2.503 c1.436,0.118,1.696-0.425,0.934-1.431C484.457,221.567,484.377,221.463,484.297,221.358z"/><path style="fill:none;stroke:#161313;stroke-linejoin:round;stroke-miterlimit:10" d="M554.668,229.455 c-4.237,4.1-8.686,7.982-13.323,11.625"/><path style="fill:none;stroke:#161313;stroke-linejoin:round;stroke-miterlimit:10" d="M427.415,211.263 c0.043-1.637,0.594-3.213,1.14-4.757c1.312-3.715,2.624-7.429,3.936-11.144"/><path style="fill:none;stroke:#161313;stroke-linejoin:round;stroke-miterlimit:10" d="M434.626,267.375 c4.227,8.935,8.665,17.746,13.309,26.42"/><path style="fill:none;stroke:#161313;stroke-linejoin:round;stroke-miterlimit:10" d="M493.891,288.543 c8.47-3.446,17.192-6.271,26.073-8.447"/><path style="fill:none;stroke:#161313;stroke-linejoin:round;stroke-miterlimit:10" d="M500.243,280.049 c7.247-3.548,14.798-6.477,22.542-8.745"/><path style="fill:none;stroke:#161313;stroke-linejoin:round;stroke-miterlimit:10" d="M433.681,254.589 c4.383,6.907,8.037,14.277,10.882,21.948"/><g><path style="fill:#fff" d="M383.888,328.762L353,266.151l-14.228,8.623c0,0-12.765-7.814-15.078-2.541 c-1.181,2.696,2.101,8.061,3.154,10.354c2.869,6.249,6.184,12.301,9.515,18.312c6.294,11.355,11.663,25.277,20.558,34.891 c1.237,1.338,2.63,2.579,4.294,3.322c6.39,2.853,9.283-4.019,14.195-6.278C377.438,331.902,383.888,328.762,383.888,328.762z"/><path style="fill:none;stroke:#d2d8e6;stroke-miterlimit:10" d="M356.238,273.243c-2.869,1.29-5.594,2.903-8.106,4.798"/><path style="fill:none;stroke:#d2d8e6;stroke-miterlimit:10" d="M361.263,283.056c-2.694,1.478-5.388,2.957-8.082,4.435"/><path style="fill:none;stroke:#d2d8e6;stroke-miterlimit:10" d="M366.322,292.964c-1.72,0.578-3.233,1.63-4.819,2.512 c-0.962,0.535-1.956,1.009-2.961,1.458"/><path style="fill:none;stroke:#d2d8e6;stroke-miterlimit:10" d="M371.064,302.365c-2.56,1.646-5.256,3.085-8.05,4.298"/><path style="fill:none;stroke:#d2d8e6;stroke-miterlimit:10" d="M375.687,312.221c-2.555,1.317-5.138,2.591-7.743,3.822"/><path style="fill:none;stroke:#d2d8e6;stroke-miterlimit:10" d="M380.434,321.885c-2.673,1.811-5.586,3.269-8.638,4.322"/></g></g><g><path style="fill:#f9d1aa" d="M544.495,140.453c-2.85-11.669-11.127-22.648-20.539-29.776 c-10.861-8.226-30.382-13.097-44.175-9.391c-15.513,4.169-25.947,9.188-34.999,21.396c-6.796,9.166-11.397,24.414-8.003,35.443 c5.717,18.579,22.483,26.642,36.014,29.212c15.106,2.869,31.854,2.572,46.287-3.195c17.075-6.823,29.628-23.324,25.731-42.282 C544.715,141.389,544.609,140.921,544.495,140.453z"/><path style="fill:#401f00" d="M564.158,117.382c-1.886-5.308-5.09-10.39-9.969-13.206c-0.764-0.441-1.586-0.842-2.135-1.532 c-0.681-0.855-0.827-2.003-1.005-3.081c-0.68-4.106-2.202-8.081-4.444-11.588c-2.168-3.391-5.714-3.86-8.931-5.957 c-4.971-3.242-6.963-9.752-11.803-13.187c-6.975-4.95-15.64-2.277-23.393-0.855c-7.071,1.298-12.516,0.846-18.908-2.733 c-2.526-1.414-4.981-2.981-7.668-4.059c-7.706-3.092-15.841-0.139-21.705,5.24c-2.99,2.743-5.473,6.079-7.256,9.723 c-1.507,3.078-2.451,6.44-4.273,9.359c-1.794,2.874-4.361,4.89-6.97,6.99c-5.59,4.5-9.369,12.201-6.668,19.231 c1.82,4.738,6.903,7.652,11.541,9.725c8.312,3.715,15.52-0.013,23.061-3.832c-1.341,1.923-2.641,4.382-2.129,6.168 c0.685,2.386,3.199,3.555,5.405,3.702c2.207,0.147,4.373-0.651,6.433-1.563c6.463-2.859,12.457-6.908,18.417-10.938 c-1.938,2.626-3.214,5.874-3.64,9.265c-0.082,0.652-0.129,1.344,0.111,1.944c0.267,0.67,0.847,1.111,1.444,1.395 c2.566,1.222,5.499,0.101,8.033-1.202c3.737-1.921,7.315-4.245,10.668-6.928c-2.032,2.384-4.168,6.035-2.393,8.67 c1.462,2.173,4.417,1.702,6.718,0.896c4.787-1.677,9.434-3.871,13.857-6.543c-1.835,7.508-0.697,15.884,3.044,22.415 c3.742,6.531,3.849,24.452,10.637,25.592C566.841,160.166,569.559,132.582,564.158,117.382z"/><path style="fill:none;stroke:#161313;stroke-linejoin:round;stroke-miterlimit:10" d="M478.018,136.487 c-0.592,0.571-1.28,1.042-2.027,1.386c-0.878,0.405-1.903,0.688-2.434,1.496c-0.393,0.599-0.422,1.369-0.316,2.078 c0.27,1.807,1.367,3.474,2.92,4.438"/><path style="fill:none;stroke:#161313;stroke-width:2;stroke-linejoin:round;stroke-miterlimit:10" d="M503.483,140.617 c1.408-0.803,2.921-1.504,4.537-1.635c2.976-0.242,4.826,1.677,5.776,4.298"/><path style="fill:none;stroke:#161313;stroke-width:2;stroke-linejoin:round;stroke-miterlimit:10" d="M459.649,137.186 c-0.994-1.28-2.124-2.507-3.567-3.246c-2.658-1.361-5.1-0.296-6.98,1.763"/><path style="fill:#fff" d="M457.64,150.601c0,0,5.74-2.659,19.005-1.178c18.872,2.107,24.106,7.277,24.106,7.277 s-2.211,20.029-25.382,16.579C455.414,170.307,457.64,150.601,457.64,150.601z"/><g><path style="fill:#f9d1aa" d="M529.837,150.254c2.557-3.426,7.17-5.206,12.459-3.946c6.302,1.501,8.546,7.653,7.779,12.508 c-1.376,8.711-9.596,18.722-20.71,14.697c-4.194-1.519-5.296-4.771-4.71-8.277c0.674-4.026,2.32-8.226,3.669-12.122 C528.686,152.072,529.197,151.111,529.837,150.254z"/><path style="fill:none;stroke:#161313;stroke-linejoin:round;stroke-miterlimit:10" d="M542.164,156.182 c-4.4,2.046-11.267,6.093-15.559,8.288"/><path style="fill:none;stroke:#161313;stroke-linejoin:round;stroke-miterlimit:10" d="M540.999,172.616 c-3.78,1.813-11.352,2.499-14.571-0.95c-0.57-0.61-1.003-1.357-1.063-2.156"/><path style="fill:none;stroke:#161313;stroke-linejoin:round;stroke-miterlimit:10" d="M537.811,145.894 c-3.983,0.885-8.062,2.481-9.83,6.445"/></g><path style="fill:none;stroke:#161313;stroke-linejoin:round;stroke-miterlimit:10" d="M437.247,140.577 c-3.817,10.993-0.697,24.017,7.675,32.018"/><path style="fill:#f2b588" d="M452.329,143.895c-3.044-4.03-8.308-3.125-11.824-0.438c-0.498,0.38-0.98,0.797-1.354,1.316 c-1.33,1.844-0.934,4.686,0.52,6.417c2.997,3.569,9.854,3.418,12.858-0.164c1.631-1.945,1.29-5.119-0.154-7.068 C452.361,143.937,452.345,143.916,452.329,143.895z"/><path style="fill:#f2b588" d="M507.726,151.424c3.83-3.747,9.209-1.966,12.473,1.408c0.462,0.478,0.902,0.991,1.213,1.594 c1.104,2.144,0.24,5.063-1.559,6.65c-3.708,3.271-10.878,2.029-13.463-2.203c-1.404-2.298-0.544-5.574,1.277-7.391 C507.686,151.463,507.706,151.444,507.726,151.424z"/><path style="fill:none;stroke:#161313;stroke-width:2;stroke-linejoin:round;stroke-miterlimit:10" d="M501.741,129.27 c2.333-1.113,5.092-1.302,7.556-0.52c2.464,0.783,4.607,2.53,5.871,4.785"/><path style="fill:none;stroke:#161313;stroke-width:2;stroke-linejoin:round;stroke-miterlimit:10" d="M449.045,125.199 c1.855-0.648,3.881-1.19,5.849-1.272c2.32-0.097,4.264,1.112,5.849,3.13"/></g></g><g><path style="fill:#d8946f" d="M658.886,334.776c-19.122-38.785-48.39-77.895-48.39-77.895l-44.793,53.859l16.405,65.949 l-17.953-0.874l20.013,101.986c0,0,21.365,0.017,62.14-4.617c24.761-2.814,36.33-19.286,38.636-41.694 C688.717,394.838,670.763,358.866,658.886,334.776z"/><g><g><path style="fill:#d8946f" d="M525.253,244.947L525.253,244.947c0.864-4.161,2.56-8.544,6.036-10.885 c1.781-1.199,3.837-1.838,5.925-1.969c0.698-3.851,3.707-8.406,6.803-9.719c2.619-8.347,15.925-7.623,23.577-5.638 c18.879,4.896,36.54,30.701,46.673,45.652l-37.991,55.814c-11.535-4.369-25.176-17.321-32.889-32.671 c-2.125-4.228-3.952-8.849-4.31-13.597c-2.419-1.753-4.773-3.608-7.057-5.559l-0.001,0.001 c-1.698,2.939-4.985,6.711-8.104,7.554c-5.043,1.363-8.532-0.474-10.257-4.19c-0.921-1.984,2.214-9.09,3.346-13.062 C518.381,251.851,521.08,247.051,525.253,244.947z"/><path style="fill:none;stroke:#161313;stroke-linejoin:round;stroke-miterlimit:10" d="M563.693,225.361 c-3.176-1.365-6.377-2.739-9.711-3.472c-3.333-0.733-6.849-0.792-9.876,0.438"/><path style="fill:none;stroke:#161313;stroke-linejoin:round;stroke-miterlimit:10" d="M554.656,239.031 c-4.211-2.825-8.723-5.474-13.609-6.629c-1.253-0.296-2.55-0.407-3.835-0.323"/><path style="fill:none;stroke:#161313;stroke-linejoin:round;stroke-miterlimit:10" d="M545.743,252.407 c-2.74-2.509-5.518-5.046-8.755-6.734c-3.237-1.688-7.038-2.461-10.463-1.276c-0.613,0.212-1.198,0.48-1.755,0.798"/><path style="fill:none;stroke:#161313;stroke-linejoin:round;stroke-miterlimit:10" d="M533.207,267.375 c0,0-4.148-2.77-7.696-7.015"/><path style="fill:none;stroke:#161313;stroke-linejoin:round;stroke-miterlimit:10" d="M576.276,318.202 c-3.711-1.406-7.261-3.285-10.573-5.568"/><path style="fill:none;stroke:#161313;stroke-linejoin:round;stroke-miterlimit:10" d="M515.318,262.212 c0.458,0.367,1.054,0.425,1.582,0.642c0.528,0.217,1.035,0.699,1.021,1.444c-0.006,0.29-0.091,0.585-0.183,0.871 c-0.386,1.196-0.943,2.391-1.776,3.196c-0.833,0.804-1.218,0.889-2.358,0.706"/></g></g><path style="fill:none;stroke:#161313;stroke-width:1.5;stroke-linejoin:round;stroke-miterlimit:10" d="M582.108,376.69 c1.025,22.884,6.793,45.536,16.814,66.03"/></g><g><path style="fill:#d8946f" d="M453.098,259.069c-8.718-8.858-22.15-11.858-35.16-11.98c-9.942-0.093-19.546,3.7-25.47,11.931 c-2.928,4.069-5.251,9.01-6.658,13.824c-1.482,5.071-3.5,9.987-5.262,15.007c-4.63,13.19-10.987,30.093-1.458,42.642 c14.198,18.698,44.357,17.893,61.096,5.02c13.76-10.582,23.952-30.344,23.527-47.876 C463.458,277.128,459.827,265.906,453.098,259.069z"/><path style="fill:#31131d" d="M467.355,277.906c0,0-12.082,12.586-26.171,32.75c-20.428-10.147-43.961-16.589-61.649-21.279 c-0.48-0.127-3.751,5.531-4.141,6.154c-1.36,2.168-2.648,4.381-3.865,6.632c-3.525,6.523-6.456,13.363-8.81,20.394 c-2.301,6.874-5.101,13.02-5.801,20.434c-0.199,2.111-0.273,4.286,0.377,6.304c0.65,2.018,2.152,3.871,4.198,4.426 c0.583,0.158,1.257,0.247,1.611,0.737c0.247,0.341,0.266,0.791,0.279,1.212c0.185,5.737,1.327,11.964,5.643,15.749 c2.774,2.432,6.613,3.516,10.286,3.173c3.673-0.343,7.158-2.047,9.891-4.525c-0.709,4.071,1.744,8.295,5.338,10.333 c3.594,2.038,8.07,2.108,12.023,0.905c3.953-1.203,7.453-3.569,10.639-6.201c0.568,2.578,3.599,3.677,6.237,3.603 c3.673-0.103,7.616-2.018,8.298-6.218c1.367,2.27,5.454,3.116,8.539,2.27c9.816-2.691,17.768-16.84,20.173-23.045 c7.255-18.717,7.649-30.995,13.591-50.181c1.375-4.44,2.75-8.881,4.125-13.321C475.794,287.835,467.355,277.906,467.355,277.906 z"/><path style="fill:none;stroke:#161313;stroke-linejoin:round;stroke-miterlimit:10" d="M413.648,274.863 c-3.25,2.992-6.372,6.171-9.007,9.56c-1.67,2.148-3.885,5.849-0.938,7.888c2.052,1.42,5.256,1.546,7.804,1.581"/><g><path style="fill:#31131d" d="M445.394,268.943c3.469,3.748,6.172,8.423,7.895,12.805 c4.932,12.542,0.953,30.604,11.579,40.608c5.676,5.343,12.904,6.487,20.396,5.953c2.325-0.166,4.764-0.395,6.698-1.697 c1.934-1.302,3.103-4.047,1.899-6.043c2.781-0.627,5.66-1.298,7.916-3.042c2.756-2.13,4.195-5.616,4.588-9.077 c0.393-3.461-0.141-6.952-0.674-10.394c-0.101-0.655-0.65-1.525-1.188-1.138c-0.266,2.856-2.258,5.481-4.937,6.506 c-2.679,1.025-5.915,0.399-8.019-1.549c-2.74-2.538-3.286-6.727-2.66-10.408c0.626-3.681,2.223-7.124,3.138-10.744 c2.526-9.993-0.672-21.299-8.265-28.27c-4.04-3.71-9.074-6.143-13.449-9.451c-4.288-3.242-7.894-7.285-11.889-10.88 c-3.996-3.596-8.563-6.827-13.825-7.924c-8.972-1.872-21.801,1.494-26.858,9.566c-6.672-3.947-15.535-2.648-21.992,1.642 c-6.456,4.291-10.838,11.089-14.083,18.129c-2.206,4.787-4.112,9.969-8.083,13.434c-3.971,3.465-10.878,4.284-14.106,0.117 c-0.745,3.64,1.741,7.642,5.333,8.588c-1.375,0.519-2.86,0.742-4.327,0.649c-1.33,4.392,1.666,9.328,5.913,11.067 c4.246,1.74,9.244,0.736,13.164-1.651c3.919-2.386,6.929-5.999,9.626-9.711c2.698-3.712,5.181-7.615,8.387-10.898 c2.447-2.506,5.293-4.621,8.399-6.239c4.03-2.1,8.765-3.362,13.134-2.113c2.054,0.587,3.916,1.696,5.896,2.499 c4.224,1.715,8.95,2.029,13.049,4.025C440.761,264.621,443.227,266.601,445.394,268.943z"/><path style="fill:none;stroke:#542f3d;stroke-miterlimit:10" d="M493.809,320.103c-10.993-1.063-18.999-10.115-16.074-21.188 c1.052-3.982,2.931-7.7,4.128-11.641c2.259-7.436,0.066-13.702-4.202-19.899"/><path style="fill:none;stroke:#542f3d;stroke-miterlimit:10" d="M364.343,275.747c4.014-1.185,7.753-3.295,10.842-6.119 c2.54-2.323,4.622-5.094,6.688-7.848c2.155-2.873,4.311-5.747,6.467-8.62c1.89-2.52,3.795-5.055,6.109-7.192 c2.315-2.137,5.088-3.875,8.176-4.503"/><path style="fill:none;stroke:#542f3d;stroke-miterlimit:10" d="M407.085,240.312c2.054-0.279,4.17-0.556,6.176-0.036 c2.443,0.632,4.536,2.491,5.452,4.842"/><path style="fill:none;stroke:#542f3d;stroke-miterlimit:10" d="M418.553,244.758c4.723-4.779,11.302-7.246,17.979-7.221 c6.996,0.027,13.065,2.774,18.689,6.729c0.072,0.051,0.144,0.101,0.215,0.152c2.53,1.792,4.913,3.809,7.029,6.079 c2.079,2.23,4.262,4.433,6.826,6.108"/></g><g><path style="fill:#d8946f" d="M460.496,297.943c3.245-3.619,8.164-4.92,13.103-2.493c5.885,2.892,6.786,10.595,5,16.226 c-3.205,10.103-13.766,17.601-23.509,13.809c-4.265-1.66-4.199-6.6-2.878-10.66c1.519-4.663,4.032-9.361,6.188-13.751 C458.976,299.9,459.683,298.849,460.496,297.943z"/><path style="fill:none;stroke:#161313;stroke-linejoin:round;stroke-miterlimit:10" d="M471.37,307.155 c-4.766,1.655-12.385,5.252-17.077,7.103"/><path style="fill:none;stroke:#161313;stroke-linejoin:round;stroke-miterlimit:10" d="M465.229,325.526 c3.402-1.015,6.444-2.983,8.599-5.563"/></g><path style="fill:#161313" d="M438.568,286.431c-0.779,2.354-2.723,3.828-4.343,3.292c-1.62-0.536-2.302-2.879-1.523-5.233 c0.779-2.354,2.723-3.828,4.343-3.292C438.665,281.734,439.347,284.077,438.568,286.431z"/><path style="fill:#161313" d="M401.324,275.414c-1.326,2.095-3.57,3.053-5.012,2.141c-1.442-0.913-1.535-3.351-0.209-5.446 c1.326-2.095,3.57-3.053,5.012-2.141C402.557,270.881,402.65,273.319,401.324,275.414z"/><path style="fill:#31131d" d="M449.912,278.235c-0.725-1.186-1.77-2.136-2.801-3.069c-0.416-0.377-0.844-0.755-1.322-1.044 c0.359-0.513,0.336-1.317-0.02-1.876c-1.844-2.894-6.145-3.105-9.034-1.868c-1.404,0.602-2.895,1.644-2.959,3.171 c-0.047,1.129,0.748,2.148,1.708,2.745c0.96,0.597,2.079,0.868,3.149,1.231c2.234,0.757,4.32,1.948,6.108,3.487 c1.243,1.069,2.522,2.382,4.161,2.405c0.436,0.006,0.894-0.096,1.215-0.392c0.231-0.213,0.372-0.507,0.468-0.806 C451.01,280.897,450.637,279.421,449.912,278.235z"/><path style="fill:#31131d" d="M407.588,263.108c-1.498-2.675-4.8-4.977-7.679-3.671c-0.555,0.252-0.992,0.897-0.994,1.523 c-0.505-0.039-1.02,0.025-1.526,0.093c-1.252,0.17-2.523,0.345-3.681,0.898c-1.157,0.553-2.205,1.545-2.581,2.872 c-0.085,0.3-0.134,0.622-0.074,0.929c0.084,0.426,0.371,0.774,0.697,1.02c1.228,0.925,2.863,0.587,4.344,0.428 c2.13-0.229,4.3-0.003,6.353,0.663c0.983,0.319,1.956,0.741,2.979,0.805c1.023,0.064,2.146-0.312,2.7-1.263 C408.878,266.119,408.316,264.409,407.588,263.108z"/><path style="fill:#fff" d="M400.06,303.692l16.469,0.241c0,0,2.763,11.073-6.624,12.81 C399.612,318.647,400.06,303.692,400.06,303.692z"/></g></g></g><g><path style="fill:none;stroke:#e5783c;stroke-width:3.5;stroke-linecap:round;stroke-linejoin:round;stroke-miterlimit:10" d="M114.564,118.279c7.291,2.279,14.061,6.206,19.661,11.402c5.696,5.285,10.697,12.163,18.245,14.006 c5.742,1.402,11.695-0.471,17.51-1.529c5.815-1.058,12.576-1.007,16.701,3.225"/><path style="fill:none;stroke:#e5783c;stroke-width:3.5;stroke-linecap:round;stroke-linejoin:round;stroke-miterlimit:10" d="M646.66,229.064c7.072-1.156,13.297-6.636,20.439-6.046c4.825,0.398,8.932,3.512,13.422,5.323 c9.378,3.783,20.931,1.355,27.992-5.884"/><path style="fill:none;stroke:#e5783c;stroke-width:3.5;stroke-linecap:round;stroke-linejoin:round;stroke-miterlimit:10" d="M679.161,59.277c-6.692,2.044-14.007,4.569-17.476,10.646c-1.84,3.224-2.369,7.142-4.622,10.092 c-1.88,2.461-4.733,3.948-7.491,5.358c-4.359,2.228-8.718,4.455-13.076,6.683"/><path style="fill:none;stroke:#847dcc;stroke-width:3.5;stroke-linecap:round;stroke-linejoin:round;stroke-miterlimit:10" d="M246.236,50.887c5.802,3.649,9.956,9.819,11.154,16.568c1.244,7.009-0.332,15.079,4.161,20.601 c2.836,3.487,7.386,4.954,11.328,7.113c3.942,2.159,7.784,5.995,7.138,10.443"/><path style="fill:none;stroke:#847dcc;stroke-width:3.5;stroke-linecap:round;stroke-linejoin:round;stroke-miterlimit:10" d="M103.542,302.965c7.169-4.371,16.225-3.229,24.611-2.823c3.21,0.156,6.518,0.166,9.519-0.986c2.049-0.787,3.858-2.08,5.641-3.36 c5.986-4.296,11.972-8.591,17.957-12.887"/><path style="fill:none;stroke:#847dcc;stroke-width:3.5;stroke-linecap:round;stroke-linejoin:round;stroke-miterlimit:10" d="M645.351,273.154c6.371,0.523,13.377,1.342,17.703,6.049c2.731,2.971,3.985,7.13,6.951,9.868 c4.033,3.723,10.097,3.899,15.586,3.864"/><path style="fill:none;stroke:#ffcd65;stroke-width:3.5;stroke-linecap:round;stroke-linejoin:round;stroke-miterlimit:10" d="M355.776,27.431c1.298,4.651,1.759,9.534,1.353,14.345c-0.301,3.577-1.077,7.13-0.933,10.717 c0.223,5.564,2.644,10.88,2.729,16.448c0.063,4.114-1.153,8.127-2.357,12.062"/><path style="fill:none;stroke:#ffcd65;stroke-width:3.5;stroke-linecap:round;stroke-linejoin:round;stroke-miterlimit:10" d="M621.25,165.202c5.283-2.731,11.475-3.664,17.329-2.612c3.294,0.592,6.496,1.793,9.841,1.919 c7.265,0.273,13.649-4.462,19.358-8.963"/><path style="fill:none;stroke:#ffcd65;stroke-width:3.5;stroke-linecap:round;stroke-linejoin:round;stroke-miterlimit:10" d="M155.07,228.421c4.907-4.089,11.92-5.498,18.026-3.62c2.841,0.874,5.463,2.397,8.346,3.121c5.532,1.388,11.763-0.527,15.561-4.782"/><path style="fill:none;stroke:#847dcc;stroke-width:3.5;stroke-linecap:round;stroke-linejoin:round;stroke-miterlimit:10" d="M467.111,19.149c-1.911,5.915-9.394,8.767-10.997,14.773c-0.635,2.378-0.227,4.912-0.599,7.345 c-0.661,4.316-3.987,8.109-8.18,9.328"/><rect x="623.406" y="189.595" transform="matrix(0.9553 -0.2958 0.2958 0.9553 -29.783 195.0382)" style="fill:none;stroke:#847dcc;stroke-width:3.5;stroke-linecap:round;stroke-linejoin:round;stroke-miterlimit:10" width="12.734" height="12.734"/><rect x="222.159" y="168.694" transform="matrix(0.9706 0.2406 -0.2406 0.9706 48.8398 -49.8464)" style="fill:none;stroke:#e5783c;stroke-width:3.5;stroke-linecap:round;stroke-linejoin:round;stroke-miterlimit:10" width="12.734" height="12.734"/><rect x="221.667" y="98.753" transform="matrix(0.5837 0.812 -0.812 0.5837 180.9002 -141.592)" style="fill:none;stroke:#ffcd65;stroke-width:3.5;stroke-linecap:round;stroke-linejoin:round;stroke-miterlimit:10" width="13.718" height="13.718"/><polygon style="fill:none;stroke:#ffcd65;stroke-width:3.5;stroke-linecap:round;stroke-linejoin:round;stroke-miterlimit:10" points="219.622 320.75 207.326 312.191 204.791 330.46"/><polygon style="fill:none;stroke:#847dcc;stroke-width:3.5;stroke-linecap:round;stroke-linejoin:round;stroke-miterlimit:10" points="335.786 105.612 325.281 118.279 344.404 123.987"/><polygon style="fill:none;stroke:#ffcd65;stroke-width:3.5;stroke-linecap:round;stroke-linejoin:round;stroke-miterlimit:10" points="679.701 328.241 676.794 344.493 697.698 337.477"/><path style="fill:#847dcc" d="M183.855,172.813c0,2.038-1.652,3.69-3.69,3.69c-2.038,0-3.69-1.652-3.69-3.69 c0-2.038,1.652-3.69,3.69-3.69C182.203,169.122,183.855,170.775,183.855,172.813z"/><circle style="fill:#847dcc" cx="401.06" cy="45.543" r="3.69"/><circle style="fill:#847dcc" cx="651.461" cy="144.296" r="3.69"/><circle style="fill:#e5783c" cx="569.142" cy="61.878" r="3.69"/><circle style="fill:#e5783c" cx="210.219" cy="252.529" r="3.69"/><circle style="fill:#ffcd65" cx="621.706" cy="244.772" r="3.69"/><circle style="fill:#ffcd65" cx="325.281" cy="143.277" r="3.69"/><circle style="fill:#e5783c" cx="141.26" cy="349.633" r="3.69"/></g></g></svg>