<?xml version="1.0" encoding="utf-8"?>
<!-- Generator: Adobe Illustrator 27.5.0, SVG Export Plug-In . SVG Version: 6.00 Build 0)  -->
<svg version="1.1" xmlns="http://www.w3.org/2000/svg" xmlns:xlink="http://www.w3.org/1999/xlink" x="0px" y="0px"
	 viewBox="0 0 500 500" style="enable-background:new 0 0 500 500;" xml:space="preserve">
<g id="Layer_1">
	<rect style="fill:#F2DCCB;" width="500" height="500"/>
	<g>
		<path style="opacity:0.5;fill:#EDC5A9;" d="M0,0v149.65c26.32-11.73,76.4-26.02,132.16-0.66c81.97,37.28,179.24,22.5,182.64-72.75
			C316.17,37.77,331.12,14.3,348.45,0H0z"/>
		<path style="opacity:0.5;fill:#EDC5A9;" d="M500,355V205.35c-26.32,11.73-76.4,26.02-132.16,0.66
			c-81.97-37.28-179.24-22.5-182.64,72.75c-1.37,38.47-16.32,61.94-33.65,76.24H500z"/>
	</g>
	<g>
		<path style="fill:#FAF1ED;" d="M253,181H0v-75.638c10.145-11.89,24.465-20.228,40.044-21.823
			c29.637-3.041,59.785,18.719,66.241,47.796c12.737-11.541,31.507-16.015,48.095-11.478c16.576,4.536,30.447,17.947,35.532,34.373
			C210.675,142.19,244.326,158.616,253,181z"/>
		<path style="fill:#FAF1ED;" d="M500,0v55H373.13c5.59-14.42,27.27-25,40.65-17.25c3.27-10.58,12.21-19.22,22.89-22.14
			c10.69-2.93,22.78-0.04,30.99,7.39c2.06-9.28,7.87-17.4,15.53-23H500z"/>
		<g>
			<path style="fill:#FAF1ED;" d="M500,241.67v219.19c-73.45-15.02-148.57-27.52-222.66-17.08c-15.43,2.18-30.98,5.35-46.47,4.24
				c-1.19-0.09-2.39-0.2-3.58-0.34c-4.5-0.53-9.19-1.57-12.56-4.59c-7.09-6.34-5.17-17.92-1.13-26.53
				c3.82-8.16,9.3-15.93,17.21-20.25c7.9-4.32,18.58-4.38,25.29,1.63c1.63-8.55,3.32-17.29,7.74-24.78
				c4.41-7.5,12.15-13.63,20.85-13.69c10.5-0.06,19.01,8.34,25.17,16.84c-4.01-5.51-1.91-14.4,4.15-17.53
				c6.05-3.13,14.52,0.3,16.7,6.75c0.03-17.32,2.28-35.37,11.84-49.82c9.56-14.44,28.09-24.08,44.58-18.79
				c12.28,3.95,20.81,14.84,28.55,25.16c-1.86-6.86-0.47-14.96,4.91-19.62c5.38-4.65,14.92-4.22,18.69,1.8
				c-3-19.57,5.6-40.49,21.5-52.3C471.9,243.7,486.26,240.14,500,241.67z"/>
		</g>
		<g>
			<path style="fill:#FAF1ED;" d="M0,241.67v219.19c73.45-15.02,148.57-27.52,222.66-17.08c15.43,2.18,30.98,5.35,46.47,4.24
				c1.19-0.09,2.39-0.2,3.58-0.34c4.5-0.53,9.19-1.57,12.56-4.59c7.09-6.34,5.17-17.92,1.13-26.53c-3.82-8.16-9.3-15.93-17.21-20.25
				c-7.9-4.32-18.58-4.38-25.29,1.63c-1.63-8.55-3.32-17.29-7.74-24.78c-4.41-7.5-12.15-13.63-20.85-13.69
				c-10.5-0.06-19.01,8.34-25.17,16.84c4.01-5.51,1.91-14.4-4.15-17.53c-6.05-3.13-14.52,0.3-16.7,6.75
				c-0.03-17.32-2.28-35.37-11.84-49.82c-9.56-14.44-28.09-24.08-44.58-18.79c-12.28,3.95-20.81,14.84-28.55,25.16
				c1.86-6.86,0.47-14.96-4.91-19.62c-5.38-4.65-14.92-4.22-18.69,1.8c3-19.57-5.6-40.49-21.5-52.3
				C28.1,243.7,13.74,240.14,0,241.67z"/>
		</g>
	</g>
</g>
<g id="Layer_3">
	<g>
		<g>
			<path style="fill:#DB802E;" d="M463.27,500H30.93l64.92-100.98l5.93-9.23l0.97-1.52l11.31-17.59l0.16-0.23l0.37-0.59l0.35-0.55
				l2.23-3.47l7.96-12.36c0-0.01,0-0.01,0-0.01l5.69-8.87c0.01,0,0.01,0,0.01-0.01l7.11-11.05l0.09-0.14l16.97-3.15l37.32-6.93
				l6.18-1.15l22.91-4.25l1.12-0.21l6.88-1.28l2.89-0.53l0.02-0.01l12.95-2.4h0.01l26.29-4.89c0,0,0.01,0,0.02,0l0.39-0.07
				l0.58,0.05c0.01-0.01,0.01-0.01,0.02,0l8.48,0.67l10.19,0.81l19,1.5h0.01l29.57,2.35l31.84,48l11.1,16.74l33.69,50.79L463.27,500
				z"/>
			<g>
				<g>
					<path style="fill:#845040;" d="M339.783,470.76l32.88-34.628c2.698-2.841,2.398-7.38-0.65-9.842l-53.966-43.588l56.183-21.785
						l35.186,42.672c10.629,12.891,9.8,31.729-1.921,43.636l-51.61,52.429L339.783,470.76z"/>
					<g>
						<g>
							<g>
								<g>
									<g>
										<path style="fill:#CEB797;" d="M390.28,371.24c-9.86,12.24-33.447,24.544-47.81,31.18h-0.01
											c-4.4,2.04-7.21,3.21-7.21,3.21c-1.15,8.95,0.27,34.36,2.11,58.66c0.99,13.15,2.09,25.98,2.96,35.71H170.8
											c0.006-0.202,1.058-25.65,1.26-25.65c0.001-0.023,0.527-8.77,0.55-8.77c1.343-19.792,3.381-46.646,5.12-66.39
											c-17.011-7.725-31.899-18.915-43.37-32.91v-0.01c-4.14-5.11-6.04-8.52-6.04-8.52s0.63-0.71,1.75-1.94
											c7.972-8.841,32.031-34.646,42.9-39.29c15.547-6.669,46.948-7.591,108.31-10.98c10.944-0.602,19.349-1.745,39.86,1.4
											c6.65,1.02,13.56,2.47,19.19,4.58C353.08,316.3,390.28,371.24,390.28,371.24z"/>
									</g>
								</g>
								<path style="fill:#DB802E;" d="M321.143,306.935l-63.086,26.796l-54.337-23.436c8.164-0.906,14.481-1.284,14.481-1.284
									l78.175-4.3C296.376,304.711,308.289,304.974,321.143,306.935z"/>
								<g>
									<g>
										<g>
											<path style="fill:#020600;" d="M181.743,255.638c-0.001-0.001-0.001-0.001-0.002,0.001
												C181.742,255.637,181.742,255.637,181.743,255.638z"/>
										</g>
									</g>
								</g>
							</g>
						</g>
						<g>
							<circle style="fill:#C46B22;" cx="258.436" cy="330.472" r="9.956"/>
							<g>
								<path style="fill:#C46B22;" d="M288.236,356.516c-2.181-16.068-17.547-27.813-32.516-27.571
									C262.129,340.239,272.269,356.708,288.236,356.516L288.236,356.516z"/>
							</g>
							<g>
								<path style="fill:#C46B22;" d="M228.339,356.516c2.181-16.068,17.547-27.813,32.516-27.571
									C254.446,340.239,244.306,356.708,228.339,356.516L228.339,356.516z"/>
							</g>
						</g>
					</g>
				</g>
				
					<ellipse transform="matrix(0.4398 -0.8981 0.8981 0.4398 -315.611 330.6009)" style="fill:#774337;" cx="107.214" cy="418.304" rx="36.933" ry="16.262"/>
			</g>
		</g>
		<g>
			<g>
				<g>
					<g>
						<path style="fill:#845040;" d="M228.461,314.39c7.482,3.196,19.354,6.722,34.012,5.706c15.251-1.059,24.335-6.319,29.211-10.4
							c-8.069-1.256-19.399-1.861-34.05,0.1C244.038,311.615,234.248,313.303,228.461,314.39z"/>
					</g>
				</g>
			</g>
			<g>
				<g>
					<g>
						<path style="fill:#845040;" d="M280.967,310.629l0.476-7.625l0.262-4.191c-14.504,4.495-37.6,5.35-48.871,5.484l0.557,10.142
							L280.967,310.629z"/>
					</g>
				</g>
				<g>
					<g>
						<path style="fill:#774337;" d="M282.579,284.833l-50.702,2.015l0.702,12.773l0.256,4.676
							c11.27-0.134,34.367-0.989,48.871-5.484L282.579,284.833z"/>
					</g>
				</g>
			</g>
			<g>
				<g>
					<g>
						<path style="fill:#774337;" d="M320.315,252.399c-0.528-7.985,9.853-30.456,9.853-30.456s28.552-9.278,29.016,19.703
							C359.647,270.626,321.677,273.004,320.315,252.399z"/>
					</g>
				</g>
				<g>
					<g>
						<g>
							<path style="fill:#331F1A;" d="M330.144,254.42c0.08,0.003,0.163-0.012,0.242-0.044c0.296-0.122,0.436-0.462,0.314-0.758
								c-0.058-0.143-5.761-14.264,4.165-20.397c3.487-2.155,6.877-2.833,10.082-2.023c5.53,1.403,8.701,6.841,8.733,6.895
								c0.16,0.278,0.513,0.374,0.791,0.216c0.279-0.158,0.375-0.513,0.217-0.791c-0.138-0.241-3.434-5.912-9.444-7.442
								c-3.522-0.893-7.218-0.171-10.987,2.158c-10.769,6.653-4.69,21.677-4.627,21.828
								C329.719,254.279,329.925,254.412,330.144,254.42z"/>
						</g>
					</g>
				</g>
				<g>
					<g>
						<g>
							<path style="fill:#331F1A;" d="M344.819,243.574c0.176,0.006,0.353-0.068,0.473-0.217c0.2-0.251,0.159-0.616-0.091-0.816
								c-0.094-0.075-9.576-7.513-17.044-0.534c-0.234,0.218-0.247,0.587-0.028,0.82c0.218,0.234,0.585,0.247,0.82,0.028
								c6.74-6.297,15.44,0.524,15.527,0.593C344.577,243.528,344.697,243.569,344.819,243.574z"/>
						</g>
					</g>
				</g>
				<g>
					<g>
						<path style="fill:#774337;" d="M199.546,248.221c1.079-7.93-7.724-31.065-7.724-31.065s-27.842-11.229-30.308,17.65
							C159.048,263.684,196.763,268.681,199.546,248.221z"/>
					</g>
				</g>
				<g>
					<g>
						<g>
							<path style="fill:#331F1A;" d="M189.601,249.556c-0.08-0.003-0.161-0.022-0.238-0.061c-0.287-0.142-0.404-0.491-0.261-0.778
								c0.068-0.138,6.734-13.832-2.745-20.636c-3.33-2.391-6.664-3.302-9.918-2.715c-5.614,1.018-9.152,6.223-9.188,6.275
								c-0.179,0.266-0.538,0.338-0.804,0.161c-0.268-0.177-0.339-0.538-0.162-0.804c0.154-0.23,3.834-5.66,9.936-6.771
								c3.576-0.648,7.213,0.329,10.812,2.913c10.284,7.382,3.181,21.949,3.108,22.096
								C190.035,249.445,189.82,249.564,189.601,249.556z"/>
						</g>
					</g>
				</g>
				<g>
					<g>
						<g>
							<path style="fill:#331F1A;" d="M175.712,237.721c-0.177-0.006-0.348-0.093-0.457-0.249c-0.182-0.264-0.116-0.626,0.147-0.808
								c0.098-0.069,10.072-6.833,17.04,0.645c0.219,0.234,0.206,0.603-0.028,0.82c-0.234,0.218-0.601,0.206-0.82-0.029
								c-6.288-6.748-15.439-0.544-15.531-0.482C175.955,237.693,175.833,237.725,175.712,237.721z"/>
						</g>
					</g>
				</g>
				<g>
					<g>
						<path style="fill:#D8986B;" d="M231.425,271.056l-1.312,14.193c14.143,6.459,29.352,9.634,44.034,9.067l3.811-19.958
							L231.425,271.056z"/>
					</g>
					<g>
						<g>
							<path style="fill:#845040;" d="M339.657,206.314c-0.255,6.265-0.845,13.741-1.849,23.05
								c-0.558,5.133-1.642,10.234-3.236,15.207c-8.496,26.525-31.483,48.922-65.261,49.942
								c-32.901,0.988-68.497-11.143-81.807-49.942c-1.929-5.611-3.395-11.78-4.304-18.555c-0.893-6.615-1.355-13.231-1.339-19.703
								c0.111-37.652,16.403-71.063,57.577-79.639c48.252-10.074,85.999,13.199,95.261,42.753
								C338.286,180.889,340.326,188.875,339.657,206.314z"/>
						</g>
					</g>
					<path style="fill:#331F1A;" d="M261,109c-11.91-0.66-91.19,6.03-88.81,89.72c0.33,11.54,7.05,21.96,17.33,27.22
						c4,2.04,8.76-0.79,8.88-5.28l1.24-48.43c0.041,0.009,0.094,0.021,0.16,0.035c39.985,8.831,81.415,8.831,121.399,0l0.16-0.035
						l1.24,48.43c0.12,4.49,4.88,7.32,8.88,5.28c10.28-5.26,17-15.68,17.33-27.22C351.19,115.03,272.91,108.34,261,109z"/>
					<path style="fill:#774337;" d="M232.51,268.936c-2.689,7.453-10.91,11.316-18.364,8.627
						c-7.453-2.689-11.315-10.91-8.627-18.364c2.689-7.453,10.911-11.315,18.364-8.627
						C231.337,253.261,235.199,261.482,232.51,268.936z"/>
					<path style="fill:#774337;" d="M316.651,268.614c-2.689,7.453-10.91,11.316-18.364,8.627
						c-7.453-2.689-11.315-10.91-8.627-18.364c2.689-7.453,10.91-11.316,18.364-8.627
						C315.477,252.939,319.34,261.161,316.651,268.614z"/>
					<g>
						<g>
							<path style="fill:#331F1A;" d="M245.301,221.008l-0.32,7.941c-0.173,4.286-3.788,7.629-8.074,7.457
								c-4.286-0.173-7.62-3.796-7.448-8.082l0.043-1.076l4.482-2.787l-4.283-2.174l0.077-1.904
								c0.173-4.286,3.787-7.621,8.074-7.449c2.143,0.086,4.046,1.036,5.399,2.493C244.594,216.892,245.387,218.865,245.301,221.008
								z"/>
						</g>
					</g>
					<g>
						<g>
							<path style="fill:#331F1A;" d="M293.824,221.425l-0.32,7.941c-0.173,4.286-3.788,7.629-8.074,7.456
								c-4.286-0.172-7.62-3.796-7.448-8.082l0.043-1.076l4.482-2.787l-4.283-2.174l0.077-1.904
								c0.173-4.286,3.787-7.621,8.074-7.449c2.143,0.087,4.046,1.036,5.399,2.493C293.118,217.309,293.91,219.282,293.824,221.425z
								"/>
						</g>
					</g>
					<g>
						<g>
							<path style="fill:#331F1A;" d="M219.611,206.327c0,0-5.59-5.326,6.826-11.313c12.416-5.986,16.652-4.428,18.519-1.155
								c1.703,2.985-1.242,7.272-8.282,10.492C228.221,208.217,222.639,209.382,219.611,206.327z"/>
						</g>
					</g>
					<g>
						<g>
							<path style="fill:#331F1A;" d="M305.918,209.243c0,0,5.945-4.926-6.027-11.757c-11.973-6.83-16.306-5.569-18.395-2.433
								c-1.905,2.861,0.736,7.34,7.537,11.04C297.198,210.534,302.685,212.081,305.918,209.243z"/>
						</g>
					</g>
				</g>
				<path style="fill:#331F1A;" d="M276.311,248.864c-0.412-0.539-1.161-0.602-1.727-0.229c-15.75,12.028-25.372,0.652-25.775,0.16
					c-0.434-0.526-1.239-0.597-1.73-0.175c-0.527,0.427-0.608,1.198-0.181,1.725c0.107,0.132,10.205,12.257,26.173,2.333
					c0.982-0.61,1.986-1.303,3.01-2.086C276.62,250.177,276.724,249.406,276.311,248.864z"/>
			</g>
		</g>
		<path style="fill:#DB802E;" d="M329.902,194c-27.565,2.682-52.34,8.149-67.902,22.867c-15.562-14.718-40.338-20.186-67.902-22.867
			c-0.826,21.516,3.487,38.521,16.407,47.959c6.607,4.823,14.571,6.59,22.389,5.821c10.277-0.998,19.985-4.366,29.106-10.124
			c9.121,5.758,18.829,9.126,29.106,10.124c7.818,0.769,15.783-0.998,22.389-5.821C326.415,232.521,330.728,215.516,329.902,194z
			 M251.521,232.521c-6.313,3.971-13.03,6.299-20.132,7.006c-5.414,0.52-10.92-0.686-15.489-4.033
			c-8.937-6.527-11.929-18.294-11.36-33.179c19.086,1.85,36.227,5.634,46.981,15.82
			C257.504,224.289,257.265,229.029,251.521,232.521z M308.1,235.494c-4.57,3.347-10.075,4.553-15.489,4.033
			c-7.102-0.707-13.819-3.035-20.132-7.006c-5.744-3.492-5.983-8.232,0-14.386c10.754-10.186,27.895-13.97,46.981-15.82
			C320.029,217.2,317.038,228.967,308.1,235.494z"/>
		<g>
			<g>
				<g>
					<g>
						<g>
							<path style="fill:#3F2B25;" d="M151.286,414.114c1.878-4.351,5.229-8.203,8.409-11.499c5.65-5.857,12.5-10.737,19.067-15.504
								c7.2-5.227,14.586-10.162,21.415-15.879c5.395-4.517,10.638-9.215,16.191-13.533c-1.431-4.898-5.408-9.07-7.676-13.819
								c-1.273-2.665-2.01-5.549-3.026-8.323c-4.735-12.931-15.622-23.118-28.288-28.521c-12.666-5.403-26.951-6.305-40.561-4.215
								c-13.611,2.091-26.633,7.054-39.05,13.008l-9.339,10.425c-8.924,7.499-11.451,21.585-5.692,31.719
								c0.443,0.78,0.937,1.559,1.101,2.441c0.203,1.089-0.12,2.197-0.358,3.279c-0.859,3.918-0.592,8.077,0.762,11.853
								c0.991,2.762,3.835,5.728,6.396,4.294c0.481,6.092,1.902,12.508,6.223,16.83c3.815,3.816,9.69,5.435,14.921,4.113
								c1.1-0.278,2.358-0.652,3.292-0.007c0.641,0.443,0.916,1.242,1.13,1.991c1.058,3.719,2.47,8.462,6.319,8.818
								c2.302,0.213,4.512-1.427,6.796-1.068c3.096,0.486,5.001,4.416,8.135,4.348c3.016-0.066,4.948-3.863,7.964-3.931
								c2.201-0.049,3.848,1.883,5.693,3.084C151.167,414.052,151.228,414.078,151.286,414.114z"/>
							<g>
								<g>
									<path style="fill:#825243;" d="M181.162,405.4l0.162,12.81c-13.132,4.778-26.985,6.538-40.098,4.983l-1.99-18.153
										L181.162,405.4z"/>
								</g>
							</g>
							<g>
								<g>
									<path style="fill:#915D4A;" d="M181.324,418.209l-0.558,11.289c0,0-1.295,10.558-17.077,12.081
										c-17.686,1.706-21.276-8.381-21.276-8.381l-1.188-10.007C154.339,424.747,168.192,422.987,181.324,418.209z"/>
								</g>
							</g>
						</g>
						<g>
							<g>
								<path style="fill:#825243;" d="M201.296,373.026l4.846-26.319c0,0,22.655-10.803,26.199,13.168
									C235.885,383.845,210.694,387.506,201.296,373.026z"/>
							</g>
						</g>
						<g>
							<g>
								<g>
									<path style="fill:#3F2B25;" d="M209.663,373.628c0.067-0.006,0.133-0.027,0.196-0.063c0.232-0.134,0.312-0.43,0.178-0.663
										c-0.064-0.112-6.331-11.195,1.229-17.361c2.656-2.167,5.391-3.098,8.137-2.776c4.737,0.56,7.957,4.722,7.99,4.763
										c0.163,0.213,0.466,0.254,0.679,0.093c0.214-0.162,0.255-0.466,0.093-0.679c-0.14-0.184-3.49-4.526-8.64-5.14
										c-3.017-0.356-6.002,0.646-8.872,2.987c-8.201,6.689-1.524,18.479-1.456,18.598
										C209.295,373.558,209.48,373.646,209.663,373.628z"/>
								</g>
							</g>
						</g>
						<g>
							<g>
								<path style="fill:#68322F;" d="M220.644,363.038c0.147-0.014,0.285-0.095,0.369-0.231c0.139-0.229,0.065-0.528-0.164-0.667
									c-0.086-0.052-8.756-5.183-14.186,1.416c-0.17,0.207-0.141,0.513,0.066,0.683c0.207,0.17,0.512,0.141,0.682-0.066
									c4.9-5.955,12.855-1.249,12.935-1.202C220.439,363.027,220.543,363.048,220.644,363.038z"/>
							</g>
						</g>
						<g>
							<g>
								<path style="fill:#915D4A;" d="M98.272,305.201c0,0-6.837,24.828-3.463,59.792c2.632,27.281,26.99,51.882,60.505,50.831
									c31.501-0.988,62.809-16.729,68.33-61.579c5.521-44.85-11.676-78.479-52.459-84.393
									C130.401,263.939,103.775,277.177,98.272,305.201z"/>
							</g>
						</g>
						<path style="fill:#3F2B25;" d="M81.491,345.854c-0.756,9.12,8.456,17.035,17.604,16.803
							c9.148-0.232,17.217-6.946,21.278-15.147s4.732-17.66,4.433-26.806c0.891,4.044,5.631,6.299,9.734,5.741
							c4.103-0.559,7.603-3.198,10.657-5.995c-0.04,5.44,5.068,10.366,10.504,10.127c3.397-0.149,6.484-1.995,9.162-4.091
							c3.705-2.899,6.951-6.384,9.58-10.285c-0.654,2.275,1.86,4.465,4.226,4.385c2.365-0.08,4.395-1.648,6.143-3.244
							c1.748-1.595,3.51-3.355,5.793-3.979c-0.589,2.941,1.294,6.172,4.143,7.111c2.849,0.938,6.283-0.542,7.558-3.257
							c-0.012,3.313,0.382,6.626,1.171,9.843c0.207,0.843,0.483,1.744,1.185,2.255c2.349,1.71,4.807-2.685,7.708-2.839
							c-1.195,6.184-0.551,12.712,1.828,18.543c0.773,1.895,1.952,3.907,3.937,4.406c2.969,0.747,5.462-2.255,6.876-4.97
							c5.405-10.373,7.719-22.332,6.572-33.973c-0.272-2.763-0.773-5.609-2.341-7.901c-1.568-2.292-4.455-3.884-7.139-3.172
							c2.959-7.762-0.523-16.877-6.615-22.524c-6.093-5.647-14.298-8.413-22.41-10.202c-0.892-0.197-1.798-0.387-2.612-0.801
							c-1.244-0.632-2.173-1.729-3.17-2.706c-4.999-4.901-12.51-7.09-19.36-5.643c-2.736,0.578-5.428,1.701-8.217,1.493
							c-1.79-0.133-3.486-0.81-5.193-1.364c-16.253-5.284-34.292,0.445-48.553,9.862c-4.183,2.762-8.328,6.047-10.296,10.657
							c-0.719,1.684-1.151,3.547-2.347,4.934c-1.098,1.274-2.697,1.975-4.151,2.819c-6.962,4.041-11.168,12.383-10.276,20.383
							c0.179,1.603,0.541,3.245,0.134,4.806c-0.367,1.412-1.319,2.583-2.116,3.805c-4.749,7.281-3.828,17.762,2.119,24.103"/>
						<path style="fill:#845040;" d="M121.418,389.931c0.725,7.359,7.279,12.737,14.638,12.012
							c7.359-0.725,12.737-7.279,12.012-14.638c-0.725-7.359-7.279-12.737-14.638-12.012
							C126.07,376.018,120.692,382.572,121.418,389.931z"/>
						<path style="fill:#845040;" d="M185.082,383.656c0.725,7.359,7.279,12.737,14.638,12.012
							c7.359-0.725,12.737-7.279,12.012-14.638c-0.725-7.359-7.279-12.737-14.638-12.012
							C189.734,369.743,184.356,376.297,185.082,383.656z"/>
						<g>
							<g>
								<path style="fill:#3F2B25;" d="M200.145,362.737c0.431-0.042,0.748-0.425,0.707-0.857
									c-0.012-0.118-1.201-11.829-10.837-12.25c-9.639-0.405-11.478,11.183-11.497,11.3c-0.063,0.43,0.234,0.83,0.665,0.895
									c0.431,0.068,0.827-0.236,0.895-0.665c0.064-0.421,1.68-10.325,9.867-9.953c8.259,0.36,9.297,10.391,9.337,10.819
									c0.04,0.434,0.426,0.753,0.858,0.712C200.143,362.738,200.143,362.738,200.145,362.737z"/>
							</g>
						</g>
						<g>
							<g>
								<path style="fill:#3F2B25;" d="M135.248,369.134c-0.432,0.042-0.817-0.271-0.861-0.702
									c-0.012-0.119-1.132-11.836,8.237-14.13c9.375-2.278,13.44,8.727,13.482,8.838c0.146,0.41-0.068,0.86-0.477,1.008
									c-0.41,0.15-0.858-0.07-1.008-0.477c-0.145-0.4-3.663-9.798-11.621-7.835c-8.03,1.965-7.089,12.006-7.045,12.433
									c0.045,0.434-0.271,0.821-0.702,0.866C135.25,369.134,135.25,369.134,135.248,369.134z"/>
							</g>
						</g>
						<g>
							<path style="fill:#AA4639;" d="M157.963,379.242c0.183,0.529,0.43,1.035,0.753,1.486c2.372,3.314,6.971,5.241,13.831,2.98
								c2.759-0.91,4.525-2.372,5.637-3.897C172.016,377.24,164.826,377.165,157.963,379.242z"/>
							<path style="fill:#3F2B25;" d="M179.76,374.195c-0.442-1.579-2.997-3.697-6.882-1.124c0,0-3.049,2.052-9.122,0.116
								c-5.247-1.673-6.954,2.698-5.794,6.056c6.863-2.077,14.053-2.002,20.22,0.568
								C179.834,377.545,180.024,375.139,179.76,374.195z"/>
						</g>
						<g>
							<g>
								<path style="fill:#915D4A;" d="M122.149,378.502l-9.789-24.907c0,0-24.303-6.272-23.198,17.934
									C90.266,395.735,115.692,394.513,122.149,378.502z"/>
							</g>
						</g>
						<g>
							<g>
								<g>
									<path style="fill:#3F2B25;" d="M114.051,380.694c-0.067,0.007-0.136-0.001-0.204-0.024
										c-0.253-0.087-0.388-0.363-0.301-0.616c0.042-0.122,4.074-12.199-4.525-16.806c-3.021-1.619-5.884-2.01-8.517-1.169
										c-4.542,1.456-6.908,6.156-6.932,6.203c-0.119,0.24-0.409,0.338-0.648,0.22c-0.241-0.117-0.34-0.409-0.222-0.648
										c0.103-0.208,2.561-5.11,7.498-6.697c2.893-0.926,6.015-0.514,9.28,1.236c9.328,4.998,5.029,17.847,4.984,17.976
										C114.399,380.554,114.234,380.676,114.051,380.694z"/>
								</g>
							</g>
						</g>
						<g>
							<g>
								<g>
									<path style="fill:#3F2B25;" d="M101.248,372.398c-0.147,0.014-0.299-0.039-0.406-0.157
										c-0.18-0.199-0.165-0.506,0.034-0.686c0.074-0.068,7.604-6.762,14.195-1.323c0.207,0.17,0.236,0.477,0.066,0.683
										c-0.171,0.207-0.476,0.236-0.683,0.066c-5.948-4.908-12.857,1.232-12.926,1.294
										C101.447,372.348,101.349,372.389,101.248,372.398z"/>
								</g>
							</g>
						</g>
						<g>
							<g>
								<path style="fill:#3F2B25;" d="M126.224,354.879c0,0-5.23-3.784,4.383-10.139c9.613-6.355,13.297-5.541,15.211-3.039
									c1.746,2.282-0.211,6.163-5.682,9.624C133.57,355.477,129.077,357.069,126.224,354.879z"/>
							</g>
						</g>
						<g>
							<path style="fill:#3F2B25;" d="M204.684,346.974c0,0,4.371-4.751-6.315-9.063c-10.686-4.312-14.134-2.78-15.512,0.053
								c-1.257,2.584,1.435,5.998,7.485,8.298C197.605,349.023,202.325,349.688,204.684,346.974z"/>
						</g>
					</g>
				</g>
			</g>
		</g>
		<g>
			<g>
				<path style="fill:#05665C;" d="M247.86,480.56c0,0,0,0,0,0.01c0.29,4.18-5.24,12.77-13.41,19.43H90.33
					c-0.95-1.27-1.55-2.46-1.75-3.5c0-0.02,0-0.06-0.01-0.08c-0.07-0.31-0.08-0.61-0.05-0.89v-0.01
					c1.066-12.41,11.504-55.015,27.75-66.57c0.03-0.03,0.05-0.05,0.08-0.06c2.49-1.78,5.09-3.04,7.66-3.91
					c0.01,0,0.03-0.01,0.04-0.01c0.52-0.18,1.02-0.34,1.53-0.49h0.01c10.609-3.016,19.36-0.01,20.36-0.01
					c0.037,0.037,31.858-3.129,31.92-3.16c0.01,0,0.01,0,0.02,0v-0.01c14.113-5.378,30.29-4.108,41.25,6.92
					c17.02,17.2,26.81,45.42,28.59,51.61c0.01,0.04,0.02,0.08,0.03,0.11c0,0,0,0,0,0.01c0.01,0.03,0.02,0.05,0.02,0.07
					c0.01,0.06,0.02,0.14,0.03,0.22v0.01C247.83,480.34,247.84,480.44,247.86,480.56z"/>
			</g>
			<path style="fill:#915D4A;" d="M140.464,426.372c0.524,5.315,11.549,8.579,24.638,7.289c13.088-1.29,23.264-6.643,22.74-11.958
				c-0.098-0.992-0.563-1.918-1.333-2.754c-5.246,0.921-8.733,2.401-8.733,2.401l-31.802,3.134c0,0-1.85-0.565-4.804-0.962
				C140.619,424.458,140.369,425.41,140.464,426.372z"/>
			<g>
				<path style="fill:#00564C;" d="M183.096,477.509c6.45-7.674,13.523-10.717,13.523-10.717l-4.064,16.572l-14.364,7.281
					C178.19,490.645,180.84,480.193,183.096,477.509z"/>
			</g>
			<g>
				<path style="fill:#00564C;" d="M146.279,477.627c7.807,6.288,10.997,13.297,10.997,13.297l-16.653-3.718l-4.171-14.502
					C136.451,472.704,143.548,475.428,146.279,477.627z"/>
			</g>
			<g>
				<g>
					<path style="fill:#915D4A;" d="M214.66,481.04c-4.27,5.91-7.91,12.33-10.55,18.96h-8.95c-6.82-5.18-6.34-5.19-13.06-11.34
						c-0.2-0.19-0.42-0.39-0.64-0.59c-0.61-0.56-1.28-1.17-2.02-1.83c-0.26-0.24-0.53-0.48-0.81-0.73c-1.45-0.59-3.21-1.34-5.1-2.19
						c-1.91-0.87-3.96-1.84-5.94-2.83c-0.06-0.03-0.12-0.06-0.18-0.09c-0.07-0.04-0.14-0.07-0.2-0.1
						c-5.81-2.95-10.95-6.11-10.47-7.65c0.57-1.84,6.21-0.36,9.5,0.68c0.08,0.03,0.15,0.05,0.22,0.07c0.09,0.03,0.18,0.06,0.27,0.09
						c0.09,0.03,0.18,0.06,0.26,0.08c0.78,0.26,1.35,0.46,1.54,0.53c-0.17-0.08-0.66-0.31-1.34-0.64c-0.07-0.03-0.14-0.07-0.22-0.11
						s-0.18-0.08-0.27-0.13c-0.06-0.03-0.13-0.06-0.19-0.09c-1.16-0.58-2.68-1.36-4.17-2.22c-0.07-0.03-0.13-0.06-0.19-0.1
						l-0.01-0.01c-0.06-0.03-0.12-0.06-0.18-0.1c-3.02-1.75-5.83-3.76-5.36-4.96c0.26-0.67,1.41-0.66,2.96-0.29
						c0.06,0.01,0.13,0.03,0.2,0.04c0.07,0.02,0.14,0.04,0.22,0.05v0.01c0.04,0.01,0.09,0.02,0.14,0.03
						c0.07,0.03,0.14,0.05,0.21,0.06c0.08,0.03,0.15,0.05,0.23,0.07c1.48,0.44,3.19,1.1,4.77,1.77c0.06,0.03,0.12,0.05,0.18,0.08
						c0.07,0.03,0.14,0.06,0.21,0.09c0.08,0.03,0.16,0.06,0.23,0.1c0.08,0.03,0.15,0.06,0.22,0.09c0.08,0.03,0.15,0.07,0.22,0.1
						c1.91,0.84,3.51,1.63,4.12,1.93c0.08,0.04,0.14,0.07,0.18,0.1c0.05,0.02,0.08,0.03,0.08,0.03s-0.02-0.01-0.07-0.04
						c-0.04-0.02-0.09-0.06-0.17-0.11c-0.54-0.33-1.94-1.19-3.59-2.3c-0.06-0.03-0.12-0.07-0.18-0.12
						c-0.06-0.03-0.12-0.07-0.18-0.11c-0.1-0.07-0.21-0.15-0.32-0.21c-0.05-0.05-0.11-0.09-0.17-0.13
						c-0.05-0.03-0.11-0.07-0.16-0.11c-1.26-0.86-2.6-1.82-3.76-2.76c-0.05-0.04-0.11-0.09-0.16-0.13c-0.05-0.04-0.1-0.08-0.15-0.13
						c-0.2-0.16-0.39-0.32-0.57-0.47c-0.06-0.05-0.12-0.1-0.17-0.15c-0.05-0.04-0.1-0.09-0.14-0.13c-1.41-1.26-2.33-2.4-2.11-3.09
						c0.43-1.19,1.98-1.09,3.93-0.36c0.06,0.02,0.12,0.04,0.18,0.07s0.14,0.05,0.21,0.08c0.66,0.27,1.37,0.6,2.09,0.98
						c0.07,0.03,0.13,0.06,0.2,0.1c0.06,0.03,0.13,0.07,0.19,0.1c1.24,0.66,2.5,1.42,3.66,2.16c0.05,0.04,0.11,0.07,0.16,0.1
						c0.06,0.04,0.12,0.08,0.18,0.12c0.56,0.37,1.1,0.72,1.59,1.06c0.07,0.04,0.14,0.09,0.2,0.13c0.06,0.04,0.11,0.08,0.17,0.12
						c1.2,0.83,2.09,1.48,2.4,1.71c0.04,0.03,0.07,0.05,0.09,0.07c-0.02-0.03-0.05-0.05-0.08-0.08c-0.27-0.27-0.99-0.98-1.91-1.94
						c-0.04-0.05-0.09-0.1-0.14-0.15c-0.05-0.05-0.09-0.1-0.14-0.15c-0.47-0.5-0.99-1.05-1.5-1.64c-0.05-0.05-0.1-0.1-0.14-0.15
						c-0.04-0.05-0.08-0.09-0.12-0.14c-0.79-0.89-1.58-1.85-2.27-2.78c-0.04-0.06-0.08-0.11-0.12-0.16
						c-0.04-0.05-0.08-0.11-0.12-0.16c-1.44-2.01-2.38-3.89-1.71-4.8c1.01-1.38,5.43,1.97,9.15,5.22c2.97,2.59,5.49,5.12,5.49,5.12
						s-3.77-7.26-0.01-7.05c3.75,0.21,9.69,12.96,9.69,12.96s0.06,0.02,0.18,0.07c0.42,0.15,1.56,0.57,3.34,1.27
						c0.46,0.18,0.96,0.38,1.51,0.6C199.42,474.18,206.11,477,214.66,481.04z"/>
				</g>
			</g>
			<g>
				<path style="fill:#05665C;" d="M247.27,500h-53.95c-6.549-3.929-15.31-9.58-15.31-9.58c-0.01-0.01-0.01-0.01-0.01-0.01
					c6.344-3.172,12.289-12.253,15.71-18.52c1.06-1.93,1.82-3.49,2.23-4.35c0.05-0.12,0.1-0.22,0.13-0.31l0.11-0.21
					c0-0.01,0-0.02,0.01-0.03c0.05-0.12,0.08-0.18,0.08-0.18s0.01,0,0.02,0.02c0,0,0.02,0.01,0.05,0.02c0.02,0,0.05,0.01,0.08,0.03
					c0.04,0.02,0.1,0.04,0.16,0.07c15.506,6.93,38.157,16.49,51.15,12.88c0.01,0,0.01,0,0.01,0s0.01,0.04,0.02,0.11c0,0,0,0,0,0.01
					c0.01,0.07,0.03,0.16,0.05,0.29v0.01c0.02,0.09,0.03,0.19,0.05,0.31c0,0,0,0,0,0.01C248.25,483.16,249.36,492.17,247.27,500z"/>
			</g>
			<g>
				<g>
					<path style="fill:#561802;" d="M225.794,479.198c-17.78-5.219-29.762-11.609-29.88-11.673l0.376-0.696
						c0.118,0.062,12.031,6.414,29.728,11.61L225.794,479.198z"/>
				</g>
			</g>
			<g>
				<g>
					<path style="fill:#561802;" d="M216.846,475.403l0.772-0.17c-0.044-0.202-4.519-20.233-5.747-24.267l-0.756,0.231
						C212.334,455.203,216.8,475.204,216.846,475.403z"/>
				</g>
			</g>
			<g style="opacity:0.25;">
				<path style="fill:#561802;" d="M189.83,497.87c1.12,0.69,2.29,1.41,3.49,2.13h-4.9c-4.83-4.27-9.19-8.41-10.2-9.38
					c-0.01-0.01-0.02-0.01-0.02-0.01v-0.01c-0.08-0.08-0.14-0.13-0.16-0.16c0.03,0.02,0.09,0.06,0.17,0.11
					c0.02,0.01,0.04,0.03,0.07,0.04c0.05,0.03,0.11,0.07,0.17,0.11c0.1,0.07,0.22,0.14,0.35,0.23c1.54,0.99,5.22,3.35,9.85,6.21
					C189.04,497.38,189.43,497.62,189.83,497.87z"/>
			</g>
			<g>
				<g>
					<path style="fill:#915D4A;" d="M174.04,474.65v0.01c-1.68,1.71-4.08,3.74-6.63,5.74c-3.29,2.57-6.84,5.1-9.49,6.86
						c-0.18,0.11-0.35,0.23-0.52,0.34c-0.39,0.52-0.76,1.02-1.11,1.49c-0.33,0.44-0.64,0.86-0.93,1.25
						c-0.03,0.05-0.06,0.09-0.09,0.13c-3.99,5.4-5.05,7.12-6.97,9.53h-18c-2.77-3.45-5.84-6.71-9.11-9.74
						c8.11-5.6,13.53-9.31,16.95-11.66c0.66-0.45,1.25-0.86,1.77-1.21v-0.01c1.43-0.97,2.33-1.58,2.81-1.9
						c0.29-0.2,0.42-0.29,0.42-0.29s3.34-13.67,6.98-14.61c3.64-0.93,1.36,6.92,1.36,6.92s10.07-15.09,12.34-13
						c0.85,0.78,0.25,2.89-0.84,5.22c-0.53,1.16-1.19,2.38-1.86,3.51c-0.46,0.82-0.94,1.58-1.36,2.26
						c-0.96,1.52-1.69,2.56-1.69,2.56s0.91-1.02,2.26-2.41c0.51-0.51,1.08-1.08,1.68-1.66c1.08-1.04,2.28-2.14,3.47-3.1
						c0.76-0.62,1.51-1.17,2.22-1.62c1.85-1.18,3.42-1.64,4.1-0.52c0.36,0.66-0.37,2.02-1.59,3.6c-0.22,0.29-0.46,0.59-0.72,0.9
						c-1.01,1.24-2.24,2.56-3.4,3.74l-0.58,0.58c-1.66,1.67-3.07,2.97-3.37,3.24c-0.01,0.02-0.02,0.03-0.03,0.04
						c0.01-0.01,0.02-0.02,0.04-0.03c0.34-0.27,1.99-1.55,4.02-2.97c0.19-0.13,0.39-0.27,0.59-0.41c1.54-1.05,3.23-2.13,4.7-2.88
						c0.18-0.1,0.36-0.18,0.53-0.27c1.18-0.55,2.17-0.85,2.75-0.67v0.01c0.18,0.05,0.32,0.14,0.41,0.29
						c0.29,0.46,0.03,1.18-0.57,2.04v0.01c-0.84,1.19-2.32,2.64-3.88,4c0,0,0,0-0.01,0.01c-1.42,1.24-2.9,2.41-3.99,3.25
						c-0.09,0.07-0.17,0.13-0.24,0.18c-0.64,0.49-1.12,0.84-1.32,1c0.24-0.14,0.82-0.48,1.59-0.91c0.08-0.05,0.16-0.09,0.24-0.14
						c2.04-1.13,5.23-2.75,7.34-3.11c0.99-0.17,1.74-0.07,2.04,0.48C176.75,471.45,175.78,472.88,174.04,474.65z"/>
				</g>
			</g>
			<g>
				<path style="fill:#561802;" d="M158.028,487.42c5.263-3.5,19.959-14.1,18.499-16.795c-0.156-0.288-0.423-0.486-0.792-0.586
					c-1.712-0.448-5.505,1.332-8.119,2.734c3.393-2.652,8.787-7.255,7.698-8.969c-0.144-0.229-0.372-0.368-0.678-0.422
					c-1.862-0.308-6.724,2.931-9.864,5.206c3.218-3.145,8.1-8.319,7.201-9.945c-0.268-0.441-0.664-0.687-1.178-0.733
					c-2.711-0.248-8.336,5.227-11.173,8.188c2.253-3.486,6.131-10.096,4.334-11.748c-0.211-0.191-0.478-0.274-0.796-0.243
					c-0.01,0.001-0.021,0.002-0.031,0.003c-2.706,0.327-9.136,9.373-11.187,12.355c0.367-1.635,0.852-4.639-0.21-5.734
					c-0.397-0.408-0.955-0.528-1.664-0.34l0.098,0.382c0.569-0.14,0.986-0.071,1.283,0.234c1.078,1.112,0.248,5.024-0.161,6.439
					l-0.358,1.232l0.713-1.069c0.084-0.126,8.541-12.745,11.535-13.106c0.007-0.003,0.014-0.004,0.022-0.005
					c0.203-0.02,0.363,0.027,0.49,0.143c1.757,1.614-3.573,10.146-5.777,13.296l0.31,0.246c0.088-0.098,8.524-9.519,12.171-9.878
					c0.128-0.013,0.249-0.014,0.366-0.002c0.389,0.035,0.674,0.211,0.872,0.536c0.827,1.494-5.336,7.919-9.68,11.87l0.256,0.302
					c0.099-0.075,9.795-7.671,12.365-7.24c0.193,0.033,0.327,0.112,0.409,0.242c0.968,1.525-5.496,6.999-10.077,10.307l0.221,0.328
					c0.079-0.047,7.996-4.87,10.511-4.227c0.263,0.071,0.442,0.199,0.547,0.393c1.054,1.942-9.993,10.701-18.373,16.275
					L158.028,487.42z"/>
			</g>
			<g>
				<path style="fill:#05665C;" d="M157.13,490.96c0,0-0.02,0.02-0.05,0.06c-0.01,0.01-0.02,0.02-0.02,0.02
					c-0.05,0.05-0.11,0.12-0.2,0.22c-0.06,0.07-0.14,0.15-0.22,0.24c-1.08,1.24-3.96,4.48-7.68,8.5H88.97
					c-0.21-1.5-0.32-2.72-0.39-3.5c0-0.02,0-0.06-0.01-0.08c-0.04-0.57-0.05-0.89-0.05-0.89c10.118,0.686,22.013-6.011,30.19-11.01
					h0.02c0.15-0.1,0.31-0.21,0.46-0.31h0.01c7.24-4.48,14.19-9.34,16.47-10.95c0.51-0.37,0.78-0.56,0.78-0.56s0,0,0.01,0.01
					c0,0,0,0.01,0.01,0.01c0.15,0.23,1.41,2.13,3.44,4.66v0.01c3.47,4.3,9.17,10.4,15.45,12.95c0.34,0.14,0.67,0.26,1,0.37
					c0.03,0.02,0.07,0.03,0.1,0.04h0.01C156.69,490.83,156.91,490.89,157.13,490.96z"/>
			</g>
			<g style="opacity:0.25;">
				<path style="fill:#561802;" d="M157.13,490.96c0,0-0.46,3.98-2.54,9.04h-5.74c3.59-3.87,6.63-7.22,7.79-8.5
					c0.08-0.09,0.16-0.17,0.22-0.24c0.09-0.1,0.15-0.17,0.2-0.22c0,0,0.01-0.01,0.02-0.02
					C157.11,490.98,157.13,490.96,157.13,490.96z"/>
			</g>
			<g>
				<g>
					<path style="fill:#561802;" d="M108.802,490.729c16.419-8.59,26.923-17.196,27.027-17.282l-0.504-0.609
						c-0.104,0.083-10.547,8.639-26.889,17.19L108.802,490.729z"/>
				</g>
			</g>
			<g>
				<g>
					<polygon style="fill:#561802;" points="119.159,484.558 121.317,462.224 120.531,462.15 118.373,484.484 					"/>
				</g>
			</g>
		</g>
		<g>
			<path style="fill:#845040;" d="M96.982,448.778c12.649,30.292,21.896,27.719,7.264-3.515c0,0,12.427,22.31,16.58,21.133
				c6.957-2.272-10.281-26.78-10.281-26.78c20.905,23.318,32.945,20.531,3.529-10.891c0,0,12.328,6.931,12.183,0.434
				c-0.047-2.126-2.402-4.733-5.548-7.28c-18.66-15.103-45.177,5.486-35.19,27.362C100.227,481.458,104.133,470.25,96.982,448.778z"
				/>
			<path style="fill:#845040;" d="M359.18,496.3c-0.25,1.24-0.59,2.48-1.04,3.7h-28.98c0.91-0.73,1.85-1.47,2.84-2.24
				c-0.4,0.26-1.68,1.1-3.49,2.24h-18.33c7.25-5.61,17.39-11.02,18.34-11.52c-34.09,13.02-45.07,3.7,2.23-13.23
				c0,0-16.51,0.62-12.89-6.05c1.18-2.19,5.03-3.63,9.65-4.6c3.48-0.72,6.78-0.79,9.85-0.31c2.36,0.37,4.59,1.05,6.65,2.01
				C355.15,471.44,361.55,484.33,359.18,496.3z"/>
		</g>
	</g>
	<g>
		<path style="fill:#E25740;" d="M106.777,165.451c-8.044,1.408-10.834,6.628-16.576,14.176c-7.904-5.111-12.333-9.118-20.405-7.706
			c-18.592,3.253-22.496,34.012-1.803,45.091l24.262,12.977l7.458,4.005c7.242-8.066,2.433-2.721,24.07-26.744
			C139.485,189.803,125.37,162.197,106.777,165.451z"/>
		<g>
			<g>
				<g>
					<path style="fill:#6D7200;" d="M46.619,474.159c1.746-10,3.127-74.044,28.93-63.709c26.318,10.541-17.204,56.318-26.528,63.911
						"/>
				</g>
				<g>
					<path style="fill:#6D7200;" d="M46.344,474.639c-9.423-12.717-20.869-25.303-25.848-40.6
						c-2.481-6.683-3.903-21.276,4.241-24.918c24.09-10.774,23.074,56.677,23.36,65.187"/>
				</g>
				<g>
					<path style="fill:#788D01;" d="M47.332,474.695c-6.737-18.225-13.028-38.169-12.726-57.841
						c0.145-9.428,5.038-30.08,18.84-24.752c31.241,12.057-2.843,68.45-5.116,82.474"/>
				</g>
				<g>
					<path style="fill:#6F7A00;" d="M47.826,474.724c1.358-11.128,26.192-65.614,42.865-39.483
						c5.637,8.836-8.397,19.075-14.384,24.456c-3.548,3.188-7.384,6.175-11.522,8.566c-3.852,1.824-13.362,7.008-17.439,6.185"/>
				</g>
				<g>
					<path style="fill:#788D01;" d="M47.823,474.776c4.12-8.985,11.177-21.404,18.682-28.048c7.537-6.67,18.563,0.945,18.29,10.012
						C84.366,470.983,58.524,475.642,47.823,474.776"/>
				</g>
				<g>
					<path style="fill:#6F7A00;" d="M48.083,474.554c-10.8-3.363-27.838-12.516-35.621-20.95
						c-5.688-6.163-8.406-19.995,1.343-24.191c20.224-8.705,33.444,32.42,34.54,44.909"/>
				</g>
				<g>
					<path style="fill:#788D01;" d="M47.811,474.966c-2.719-7.609-9.484-20.062-17.577-23.068c-7.718-2.866-17.3,2.56-14.99,11.475
						C18.331,475.294,38.436,474.432,47.811,474.966"/>
				</g>
			</g>
			<g>
				<g>
					<path style="fill:#4B4F00;" d="M48.515,474.781c2.201-10.759,0.329-21.858-0.106-32.707
						c-0.228-5.699-0.197-11.374-0.037-17.073c0.149-5.317-0.136-10.731,1.617-15.835c0.298-0.868-1.076-1.241-1.373-0.378
						c-1.474,4.289-1.541,8.797-1.615,13.289c-0.094,5.71-0.285,11.399-0.117,17.112c0.341,11.619,2.612,23.704,0.258,35.214
						C46.959,475.297,48.331,475.679,48.515,474.781L48.515,474.781z"/>
				</g>
				<g>
					<path style="fill:#4B4F00;" d="M47.963,474.457c-6.031-5.466-16.387-6.021-20.163-13.864c-0.397-0.825-1.625-0.104-1.229,0.718
						c3.91,8.122,14.202,8.549,20.385,14.152C47.634,476.078,48.644,475.074,47.963,474.457L47.963,474.457z"/>
				</g>
				<g>
					<path style="fill:#4B4F00;" d="M47.834,475.647c4.805-1.89,10.05-3.818,13.982-7.268c4.747-4.165,6.664-10.537,11.808-14.368
						c0.726-0.541,0.017-1.777-0.719-1.229c-4.432,3.301-6.456,8.037-9.854,12.222c-3.884,4.783-10.028,7.081-15.596,9.271
						C46.612,474.606,46.979,475.983,47.834,475.647L47.834,475.647z"/>
				</g>
				<g>
					<path style="fill:#4B4F00;" d="M26.843,414.506c0.101,6.277,2.08,11.691,4.705,17.316c0.387,0.829,1.615,0.107,1.229-0.718
						c-2.542-5.446-4.413-10.517-4.51-16.597C28.251,413.591,26.828,413.588,26.843,414.506L26.843,414.506z"/>
				</g>
				<g>
					<path style="fill:#4B4F00;" d="M73.473,415.428c-0.4,6.837-3.627,12.802-7.275,18.44c-0.499,0.771,0.733,1.486,1.229,0.718
						c3.794-5.864,7.054-12.064,7.47-19.159C74.95,414.513,73.527,414.516,73.473,415.428L73.473,415.428z"/>
				</g>
				<g>
					<path style="fill:#4B4F00;" d="M15.072,435.523c1.572,3.829,3.956,6.864,7.527,9.016c3.964,2.388,9.68,2.877,11.713,7.558
						c0.364,0.838,1.591,0.114,1.229-0.719c-1.343-3.092-4.056-4.455-7.047-5.696c-5.414-2.248-9.714-4.845-12.05-10.537
						C16.102,434.308,14.724,434.674,15.072,435.523L15.072,435.523z"/>
				</g>
				<g>
					<path style="fill:#4B4F00;" d="M84.925,436.121c-3.043,2.632-7.746,2.43-10.321,5.713c-0.559,0.713,0.442,1.727,1.007,1.007
						c2.5-3.188,7.3-3.1,10.321-5.713C86.625,436.527,85.615,435.524,84.925,436.121L84.925,436.121z"/>
				</g>
				<g>
					<path style="fill:#4B4F00;" d="M42.325,412.663c0.109,3.218,1.52,9.2,5.483,9.57c4.433,0.414,7.653-4.721,9.001-8.275
						c0.325-0.857-1.05-1.228-1.373-0.378c-1.042,2.747-3.523,7.035-6.842,7.217c-3.546,0.194-4.754-5.394-4.846-8.134
						C43.718,411.749,42.294,411.745,42.325,412.663L42.325,412.663z"/>
				</g>
				<g>
					<path style="fill:#4B4F00;" d="M39.657,425.74c1.946,3.264,3.615,7.955,8.032,8.317c4.401,0.361,6.994-4.16,9.233-7.211
						c0.543-0.739-0.692-1.45-1.229-0.719c-2.037,2.775-4.518,7.317-8.579,6.296c-3.378-0.849-4.606-4.684-6.227-7.402
						C40.418,424.235,39.187,424.95,39.657,425.74L39.657,425.74z"/>
				</g>
				<g>
					<path style="fill:#4B4F00;" d="M40.876,440.13c0.964,2.704,3.093,7.441,6.398,7.863c3.649,0.466,5.884-5.02,7.878-7.181
						c0.62-0.672-0.384-1.682-1.007-1.007c-1.754,1.901-3.166,5.634-5.682,6.558c-3.023,1.109-5.423-4.394-6.214-6.612
						C41.943,438.895,40.567,439.265,40.876,440.13L40.876,440.13z"/>
				</g>
				<g>
					<path style="fill:#4B4F00;" d="M66.101,453.027c-0.314,2.455-2.494,6.687-0.393,8.824c2.213,2.252,6.407,0.444,9.03,0.182
						c0.903-0.09,0.912-1.515,0-1.423c-2.04,0.204-6.388,1.989-8.007,0.211c-0.91-0.999-0.227-3.062,0.038-4.234
						c0.268-1.185,0.601-2.353,0.756-3.56C67.64,452.121,66.216,452.129,66.101,453.027L66.101,453.027z"/>
				</g>
				<g>
					<path style="fill:#4B4F00;" d="M59.123,460.21c-0.375,2.755-2.376,6.816,0.729,8.71c2.6,1.586,6.457,0.716,9.178-0.094
						c0.876-0.261,0.503-1.635-0.378-1.373c-2.199,0.654-4.878,1.282-7.143,0.625c-3.413-0.99-1.343-5.062-1.013-7.491
						C60.617,459.693,59.246,459.306,59.123,460.21L59.123,460.21z"/>
				</g>
				<g>
					<path style="fill:#4B4F00;" d="M25.522,467.721c2.239,0.375,5.386,0.984,6.87-1.273c1.331-2.024,0.608-5.334,0.088-7.528
						c-0.211-0.891-1.584-0.514-1.373,0.378c0.401,1.694,0.899,3.975,0.384,5.69c-0.706,2.355-3.788,1.661-5.591,1.36
						C25.004,466.198,24.619,467.57,25.522,467.721L25.522,467.721z"/>
				</g>
				<g>
					<path style="fill:#4B4F00;" d="M31.973,471.776c2.433,0.473,6.23,1.233,8.353-0.47c2.341-1.878,0.191-5.891-1.098-7.764
						c-0.516-0.749-1.751-0.038-1.229,0.719c1.001,1.453,3.307,5.322,0.767,6.277c-1.92,0.722-4.464,0.245-6.414-0.134
						C31.456,470.229,31.073,471.601,31.973,471.776L31.973,471.776z"/>
				</g>
				<g>
					<path style="fill:#4B4F00;" d="M13.925,441.846c1.811,1.237,5.661,3.323,7.799,1.859c2.255-1.545,1.606-5.394,1.172-7.639
						c-0.174-0.898-1.546-0.518-1.373,0.378c0.286,1.48,1.074,5.465-0.861,6.217c-1.694,0.659-4.691-1.136-6.019-2.044
						C13.885,440.099,13.172,441.332,13.925,441.846L13.925,441.846z"/>
				</g>
				<g>
					<path style="fill:#4B4F00;" d="M20.182,449.869c2.93,0.056,7.131,1.194,9.301-1.471c1.744-2.142,1.684-5.885,0.529-8.262
						c-0.4-0.824-1.628-0.103-1.229,0.719c0.954,1.964,1.018,5.834-1.021,7.205c-2.033,1.367-5.32,0.431-7.58,0.387
						C19.266,448.427,19.266,449.851,20.182,449.869L20.182,449.869z"/>
				</g>
				<g>
					<path style="fill:#4B4F00;" d="M80.575,434.421c-0.832,1.392-2.91,4.284-1.972,5.971c1.082,1.945,4.473,1.323,6.267,1.711
						c0.893,0.193,1.275-1.179,0.378-1.373c-0.76-0.164-1.54-0.194-2.313-0.251c-0.771-0.056-2.322,0.007-2.902-0.616
						c-0.842-0.904,1.235-3.827,1.771-4.723C82.275,434.351,81.045,433.634,80.575,434.421L80.575,434.421z"/>
				</g>
				<g>
					<path style="fill:#4B4F00;" d="M68.497,417.823c0.204,2.377-0.452,7.274,2.081,8.658c2.78,1.518,6.143-1.802,7.539-3.875
						c0.513-0.762-0.72-1.475-1.229-0.719c-0.888,1.318-4.624,5.216-6.104,2.821c-1.136-1.838-0.686-4.815-0.863-6.885
						C69.843,416.918,68.419,416.909,68.497,417.823L68.497,417.823z"/>
				</g>
				<g>
					<path style="fill:#4B4F00;" d="M22.516,420.211c1.425,2.157,3.456,5.684,6.527,5.303c2.949-0.366,3.108-4.337,3.437-6.579
						c0.132-0.896-1.24-1.283-1.373-0.378c-0.215,1.467-0.232,5.076-2.098,5.532c-2.315,0.566-4.266-3.086-5.263-4.596
						C23.243,418.731,22.01,419.443,22.516,420.211L22.516,420.211z"/>
				</g>
			</g>
		</g>
		<g>
			<g>
				<path style="fill:#6F7A00;" d="M500,426.905v35.799c-0.29,0.527-0.592,1.043-0.882,1.549c-0.764,1.28-1.527,2.496-2.313,3.636
					c-0.398,0.549-0.785,1.065-1.183,1.571c-1.409,1.786-2.829,3.324-4.281,4.636c-6.734,6.132-14.059,7.648-23.063,8.487
					c-1.474,0.14-2.991,0.258-4.55,0.376c-0.237,0.011-0.484,0.032-0.721,0.054c-0.204,0.011-0.419,0.032-0.624,0.043
					c-0.032,0-0.075,0.011-0.108,0.011h-0.14l-0.484-0.011l-0.484-0.011h-0.011c-0.011,0-0.011,0-0.011,0l-0.14-0.011h-0.129
					c0.011-0.021,0.011-0.043,0.022-0.065c0-0.021,0.011-0.054,0.021-0.075c0-0.022,0.011-0.043,0.011-0.065
					c0.011-0.032,0.021-0.065,0.032-0.097c0.022-0.086,0.043-0.161,0.075-0.247c0,0-0.011-0.011,0-0.011
					c0.032-0.129,0.075-0.258,0.118-0.398c0.054-0.204,0.118-0.409,0.183-0.624c0.011-0.011,0-0.011,0-0.011
					c0.043-0.161,0.086-0.333,0.14-0.495c0-0.011,0.011-0.011,0-0.022c0.194-0.689,0.398-1.377,0.602-2.065
					c0-0.011,0.011-0.021,0.011-0.032c0.452-1.571,0.904-3.152,1.377-4.722v-0.011c0.775-2.582,1.592-5.142,2.485-7.681v-0.011
					c0.42-1.194,0.85-2.356,1.312-3.539l0.011-0.011c0.635-1.657,1.323-3.302,2.065-4.927c1.743-3.829,3.786-7.541,6.271-11.069
					c1.194-1.7,2.485-3.345,3.915-4.959l0.011-0.011c0.764-0.871,1.57-1.732,2.41-2.582c2.517-2.517,5.379-4.895,8.649-7.1
					C493.417,430.305,496.536,428.53,500,426.905z"/>
				<path style="fill:#788D01;" d="M459.042,481.12c2.298-19.624,3.101-35.065,12.371-52.195
					c3.907-7.411,12.635-17.818,16.974-26.802c-0.853,17.782,5.766,36.66,0.71,53.884c-2.525,8.376-15.998,24.948-26.808,26.589
					L459.042,481.12z"/>
			</g>
			<g>
				<g>
					<path style="fill:#4B4F00;" d="M462.806,483.342c5.56-8.869,11.494-17.685,15.085-27.586c1.769-4.876,3.034-9.964,3.867-15.082
						c0.908-5.582,0.957-11.135,3.156-16.433c0.487-1.173-1.423-1.684-1.905-0.525c-1.761,4.245-2.222,8.542-2.729,13.058
						c-0.636,5.672-1.883,11.302-3.689,16.717c-3.477,10.426-9.698,19.614-15.491,28.854
						C460.423,483.425,462.131,484.418,462.806,483.342L462.806,483.342z"/>
				</g>
				<g>
					<path style="fill:#4B4F00;" d="M463.691,482.131c9.504-13.353,21.958-25.731,23.813-42.797c0.137-1.262-1.839-1.252-1.975,0
						c-1.803,16.597-14.313,28.833-23.543,41.8C461.247,482.171,462.959,483.159,463.691,482.131L463.691,482.131z"/>
				</g>
				<g>
					<path style="fill:#4B4F00;" d="M500,433.779v2.926c-4.841,5.906-6.734,14.318-10.789,20.976
						c-0.473,0.785-0.979,1.538-1.517,2.27c-0.28,0.366-0.559,0.721-0.861,1.065c-0.172,0.215-0.355,0.419-0.538,0.624
						c-0.226,0.247-0.495,0.333-0.742,0.301c-0.344-0.032-0.656-0.28-0.818-0.602c-0.161-0.333-0.161-0.742,0.161-1.097
						c2.141-2.356,3.733-5.11,5.12-8.025C493.083,445.816,495.17,438.728,500,433.779z"/>
				</g>
				<g>
					<path style="fill:#4B4F00;" d="M500,448.603v2.764c-0.678,0.613-1.388,1.205-2.13,1.786c-2.237,1.786-4.443,3.604-6.648,5.432
						c-1.398,1.162-2.797,2.324-4.206,3.485c-0.29,0.247-0.624,0.29-0.914,0.204c-0.215-0.054-0.409-0.172-0.549-0.333
						c-0.237-0.258-0.344-0.592-0.204-0.904c0.043-0.129,0.14-0.247,0.269-0.355c0.818-0.678,1.635-1.355,2.442-2.044
						c0.387-0.323,0.775-0.635,1.151-0.957c2.055-1.721,4.12-3.442,6.228-5.11C497.053,451.292,498.623,450.022,500,448.603z"/>
				</g>
			</g>
			<g>
				<path style="fill:#6F7A00;" d="M456.672,482.474c-17.052-13.016-10.102-31.134-8.75-50.311
					c0.761-13.567,2.012-28.063,0.434-41.681c11.878,13.841,24.157,30.971,26.561,49.759c2.048,13.63,1.93,40.796-16.393,43.21
					L456.672,482.474z"/>
				<path style="fill:#788D01;" d="M457.589,483.431c5.045-16.754,5.919-35.472-5.972-48.846
					c-6.851-8.112-15.595-15.327-23.403-22.522c-2.634,13.528-6.327,32.652-2.873,46.312
					C429.178,475.79,441.669,483.087,457.589,483.431L457.589,483.431z"/>
				<path style="fill:#6F7A00;" d="M459.939,483.013c-10.385-18.025-23.73-29.087-45.185-33.298
					C414.236,473.595,436.794,491.922,459.939,483.013L459.939,483.013z"/>
				<path style="fill:#4EAF68;" d="M500,456.391v21.428c-3.12,2.033-6.712,3.571-11.005,4.421
					c-7.487,1.409-16.63,2.453-24.892,1.796c-0.441-0.032-0.871-0.065-1.302-0.118c-0.344-0.032-0.678-0.065-1.011-0.108
					c-0.054,0-0.097-0.011-0.14-0.022c-0.054,0-0.108-0.011-0.151-0.011c-0.021-0.011-0.043-0.011-0.054-0.011
					c-0.054-0.011-0.107-0.011-0.151-0.022c-0.301-0.032-0.592-0.075-0.882-0.118c-0.129-0.022-0.258-0.043-0.387-0.065
					c-0.097-0.021-0.194-0.032-0.29-0.054c-0.065-0.011-0.118-0.011-0.183-0.021c-0.032-0.011-0.064-0.011-0.097-0.022
					c0.054-0.065,0.097-0.129,0.161-0.194l0.011-0.011c0.011-0.021,0.032-0.043,0.043-0.075c0.022-0.022,0.032-0.054,0.054-0.075
					c0-0.011,0.011-0.011,0.022-0.022c0.011-0.011,0.021-0.011,0.021-0.011c0.032-0.054,0.075-0.108,0.118-0.151
					c0.129-0.172,0.258-0.344,0.398-0.506c0.064-0.086,0.129-0.161,0.194-0.247c0.075-0.097,0.151-0.194,0.237-0.29
					c0.183-0.237,0.376-0.473,0.57-0.699c0.032-0.043,0.064-0.086,0.118-0.129c0.022-0.032,0.043-0.075,0.075-0.108
					c0-0.011,0.011-0.011,0-0.022c0.667-0.785,1.291-1.538,1.958-2.291c0.011-0.011,0.011-0.011,0.021-0.022
					c0.43-0.495,0.871-1,1.312-1.474c0.28-0.323,0.57-0.635,0.861-0.936l0.032-0.032c0.387-0.419,0.775-0.839,1.173-1.237
					c1.022-1.065,2.055-2.087,3.109-3.066c1.226-1.14,2.463-2.227,3.722-3.238c0.172-0.161,0.355-0.301,0.538-0.441
					c3.345-2.689,6.852-4.991,10.531-6.852c0.204-0.108,0.409-0.204,0.613-0.301c0.656-0.333,1.312-0.635,1.979-0.936
					c0.118-0.054,0.247-0.108,0.366-0.151c1.162-0.506,2.334-0.968,3.528-1.366C494.041,457.585,496.966,456.853,500,456.391z"/>
			</g>
			<g>
				<g>
					<path style="fill:#4B4F00;" d="M461.111,483.458c-6.606-2.991-13.738-3.657-20.496-6.065
						c-7.233-2.577-11.198-8.714-14.561-15.22c-0.584-1.13-2.288-0.132-1.705,0.997c2.837,5.489,6.094,10.943,11.539,14.194
						c7.282,4.347,16.506,4.304,24.227,7.8C461.263,485.684,462.268,483.982,461.111,483.458L461.111,483.458z"/>
				</g>
				<g>
					<path style="fill:#4B4F00;" d="M460.845,482.767c-9.231-5.492-17.085-12.622-23.708-21.055
						c-0.784-0.999-2.173,0.408-1.396,1.397c6.725,8.563,14.744,15.793,24.108,21.364
						C460.943,485.123,461.938,483.417,460.845,482.767L460.845,482.767z"/>
				</g>
				<g>
					<path style="fill:#4B4F00;" d="M461.465,483.812c-5.598-8.971-8.847-19.147-15.297-27.616
						c-5.816-7.636-12.522-14.423-14.098-24.284c-0.2-1.252-2.104-0.72-1.905,0.525c1.437,8.991,7.034,15.617,12.536,22.52
						c7.299,9.158,10.922,20.018,17.059,29.852C460.431,485.885,462.14,484.895,461.465,483.812L461.465,483.812z"/>
				</g>
				<g>
					<path style="fill:#4B4F00;" d="M461.788,483.802c-1.613-9.643-5.716-18.569-8.96-27.729
						c-2.911-8.218-6.798-15.899-11.204-23.419c-0.642-1.096-2.35-0.103-1.705,0.997c4.655,7.946,8.534,16.036,11.619,24.714
						c3.057,8.598,6.831,16.901,8.346,25.963C460.093,485.578,461.996,485.048,461.788,483.802L461.788,483.802z"/>
				</g>
				<g>
					<path style="fill:#4B4F00;" d="M500,461.963v2.055c-0.29,0.075-0.581,0.161-0.882,0.237c-6.078,1.603-12.424,2.453-18.136,5.11
						h-0.011c-0.409,0.194-0.818,0.387-1.216,0.602c-4.045,2.108-7.648,4.937-11.004,8.046c-0.753,0.689-1.484,1.388-2.205,2.098
						c-0.011,0.011-0.022,0.022-0.032,0.032c-0.495,0.484-0.979,0.968-1.463,1.463c-0.14,0.14-0.269,0.28-0.409,0.419
						c-0.312,0.312-0.613,0.624-0.914,0.936c-0.312,0.323-0.624,0.645-0.925,0.957c-0.269,0.28-0.538,0.549-0.796,0.828
						c-0.054,0.054-0.108,0.097-0.161,0.14c-0.011,0-0.022,0.011-0.022,0.011c-0.107,0.086-0.237,0.129-0.355,0.14
						c-0.086,0.011-0.161,0.011-0.237,0c-0.022,0-0.043,0-0.054-0.011c-0.054-0.011-0.108-0.021-0.161-0.043
						c-0.194-0.075-0.366-0.215-0.484-0.387c-0.021-0.021-0.032-0.054-0.054-0.075c-0.161-0.258-0.215-0.592-0.064-0.893
						c0.043-0.097,0.107-0.194,0.194-0.28c0.021-0.021,0.043-0.054,0.075-0.075c0.011-0.011,0.021-0.022,0.021-0.032
						c0.011-0.011,0.022-0.022,0.043-0.032c0.043-0.054,0.108-0.118,0.161-0.172c0.022-0.021,0.032-0.043,0.054-0.065
						c0.011-0.011,0.022-0.011,0.022-0.021h0.011c0.011-0.011,0.022-0.032,0.032-0.043c0.161-0.172,0.333-0.344,0.506-0.516
						c0.022-0.032,0.054-0.065,0.086-0.097c0.086-0.086,0.172-0.183,0.269-0.28c0.592-0.613,1.183-1.226,1.786-1.829l0.011-0.011
						c0.484-0.495,0.968-0.979,1.463-1.452c0.473-0.473,0.957-0.936,1.441-1.388c0.699-0.667,1.42-1.334,2.151-1.979
						c0.011-0.011,0.011-0.011,0.021-0.011c1.119-0.99,2.27-1.958,3.453-2.851c2.065-1.592,4.238-3.034,6.551-4.238
						c1.506-0.775,3.055-1.42,4.636-1.969C488.77,464.394,494.514,463.555,500,461.963z"/>
				</g>
				<g>
					<path style="fill:#4B4F00;" d="M500,466.814v2.022c-2.754,2.065-5.658,3.786-8.659,5.26
						c-7.326,3.614-15.264,5.852-23.063,8.487c-1.398,0.462-2.797,0.947-4.174,1.452c-0.764,0.269-1.517,0.559-2.259,0.85
						c-0.011,0-0.022,0.011-0.022,0.011c-0.118,0.043-0.237,0.086-0.355,0.14c-0.204,0.065-0.398,0.151-0.592,0.226
						c-0.366,0.151-0.667,0.064-0.871-0.14c-0.075-0.054-0.129-0.14-0.183-0.226c0-0.011,0-0.011,0-0.011
						c-0.075-0.151-0.118-0.323-0.129-0.495v-0.011c0-0.086,0-0.172,0.021-0.269c0,0,0,0,0-0.011
						c0.022-0.086,0.043-0.151,0.086-0.237c0.054-0.108,0.118-0.215,0.226-0.301c0.086-0.086,0.194-0.151,0.323-0.204
						c0.097-0.032,0.183-0.075,0.28-0.108h0.011c0.021-0.011,0.032-0.021,0.054-0.021c0.022-0.011,0.032-0.022,0.054-0.022
						c0.075-0.043,0.161-0.075,0.247-0.097c0.011-0.011,0.022-0.022,0.043-0.022c0.032-0.022,0.064-0.032,0.107-0.043
						c0,0,0,0,0.011,0h0.011c0.151-0.065,0.301-0.129,0.452-0.183c0.237-0.097,0.484-0.194,0.732-0.28
						c0.032-0.011,0.065-0.032,0.108-0.043c0.022-0.011,0.054-0.022,0.086-0.032c0.107-0.043,0.226-0.086,0.333-0.129
						c0.226-0.075,0.452-0.161,0.678-0.237c0.054-0.032,0.108-0.054,0.172-0.065h0.011c0.43-0.172,0.871-0.323,1.312-0.473
						c0.925-0.333,1.85-0.645,2.775-0.957c0.011-0.011,0.022-0.011,0.032-0.011c9.52-3.206,19.244-5.83,27.764-11.177
						c1.237-0.774,2.442-1.603,3.614-2.496C499.505,466.76,499.774,466.728,500,466.814z"/>
				</g>
				<g>
					<path style="fill:#4B4F00;" d="M461.434,484.106c5.586-7.67,4.909-18.187,3.724-27.117c-1.764-13.293-7.089-25.851-7.91-39.288
						c-0.077-1.263-2.053-1.271-1.975,0c0.727,11.908,5.064,22.984,7.181,34.637c1.769,9.738,3.484,22.246-2.725,30.771
						C458.979,484.138,460.692,485.125,461.434,484.106L461.434,484.106z"/>
				</g>
				<g>
					<path style="fill:#4B4F00;" d="M462.329,483.13c11.278-14.831,5.228-32.972,6.617-50.006c0.103-1.267-1.872-1.26-1.975,0
						c-1.359,16.659,4.697,34.486-6.348,49.009C459.854,483.144,461.568,484.129,462.329,483.13L462.329,483.13z"/>
				</g>
			</g>
		</g>
		<path style="fill:#938612;" d="M500,441.65V500H381.271c5.23-13.496,25.519-23.4,38.038-16.141
			c3.066-9.904,11.43-17.99,21.424-20.725c10.002-2.735,21.319-0.038,28.998,6.921C472.918,455.702,485.677,444.31,500,441.65z"/>
		<path style="fill:#938612;" d="M0,441.65V500h118.729c-5.23-13.496-25.519-23.4-38.038-16.141
			c-3.066-9.904-11.429-17.99-21.424-20.725c-10.002-2.735-21.319-0.038-28.998,6.921C27.082,455.702,14.323,444.31,0,441.65z"/>
		<g>
			<g>
				<path style="fill:#E68F28;" d="M449.132,305.325c-9.803-0.379-26.106-15.173-23.689-39.619
					C440.883,271.294,462.567,292.473,449.132,305.325L449.132,305.325z"/>
				<path style="fill:#E68F28;" d="M459.554,320.269c-22.535-24.98-38.018-12.642-44.332-11.079
					c8.646,13.953,32.278,27.148,45.452,13.507L459.554,320.269z"/>
				<path style="fill:#E68F28;" d="M466.841,329.418c-12.582-17.378-15.422-40.783,0.913-56.52
					c5.244,6.32,9.158,19.737,8.614,28.148c-0.549,9.989-6.347,16.812-13.196,23.632L466.841,329.418z"/>
				<path style="fill:#E68F28;" d="M478.765,345.083c-7.602-9.744-31.767-19.787-42.831-9.295
					c11.022,8.436,29.144,17.152,42.308,8.242L478.765,345.083z"/>
				<path style="fill:#E68F28;" d="M481.524,347.327c-9.165-16.583-8.343-31.566,5.882-44.68c3.65,13.68,7.023,34.455-6.405,43.627
					L481.524,347.327z"/>
				<path style="fill:#E68F28;" d="M494.173,361.612c-11.012-13.169-37.3-14.279-49.684-1.95
					c12.587,14.751,38.335,21.642,52.042,5.373L494.173,361.612z"/>
				<path style="fill:#E68F28;" d="M500,327.69v38.7c-0.15-0.32-0.29-0.63-0.42-0.95v-0.01c0,0-0.01,0-0.01-0.01
					C493.58,351.64,493.15,339.19,500,327.69z"/>
				<path style="fill:#E68F28;" d="M500,376.04v13.09c-9.54,2.65-20.45,0.69-28.95-4.37C479.88,377.15,489.56,374.49,500,376.04z"/>
			</g>
			<g>
				<g>
					<path style="fill:#C26C1E;" d="M499.58,365.44l0.42,0.42v2.62c-1.21-1.21-2.4-2.42-3.6-3.64l-0.01-0.01
						c-0.37-0.38-0.74-0.76-1.11-1.14l-0.01-0.01c-0.74-0.77-1.47-1.53-2.2-2.3c-1.44-1.5-2.87-3.02-4.27-4.54
						c-3.78-4.07-7.46-8.22-11.06-12.44c-0.01-0.01-0.02-0.02-0.02-0.03c-0.62-0.71-1.22-1.43-1.82-2.14
						c-0.15-0.18-0.32-0.37-0.47-0.56c0-0.01,0-0.01-0.01-0.02c-5.13-6.1-10.08-12.35-14.85-18.75c-0.02-0.02-0.03-0.03-0.05-0.05
						c-0.5-0.68-1-1.36-1.51-2.04c-1.07-1.46-2.14-2.93-3.2-4.41c-2.64-3.68-5.23-7.4-7.75-11.17c-1.34-1.99-2.66-3.99-3.96-6.01
						c-0.64-0.98-1.27-1.96-1.9-2.95c-0.93-1.47-1.86-2.94-2.77-4.43v-0.01c-0.55-0.88-1.1-1.76-1.64-2.65
						c-0.84-1.37-1.67-2.75-2.49-4.14c-0.6-1.01,0.91-2.06,1.51-1.04c1.28,2.15,2.58,4.28,3.89,6.41v0.01
						c0.1,0.17,0.21,0.33,0.31,0.5c0.22,0.36,0.45,0.73,0.68,1.09c0.4,0.64,0.8,1.28,1.2,1.91c1.12,1.79,2.26,3.56,3.42,5.33
						c0.36,0.57,0.74,1.14,1.12,1.71c0.79,1.22,1.6,2.43,2.41,3.63c3.99,5.94,8.13,11.77,12.41,17.48c0.04,0.07,0.09,0.13,0.14,0.19
						l0.01,0.01c0.42,0.58,0.86,1.16,1.3,1.73c0.01,0.03,0.04,0.06,0.06,0.09c5.15,6.79,10.49,13.43,16.04,19.89
						c0,0,0,0.01,0.01,0.01c0.01,0.01,0.01,0.02,0.03,0.03c0.53,0.62,1.06,1.24,1.6,1.86c0.01,0.02,0.03,0.03,0.04,0.04
						c5.81,6.69,11.84,13.19,18.09,19.5c0,0.01,0.01,0.01,0.01,0.01V365.44z"/>
				</g>
				<g>
					<path style="fill:#C26C1E;" d="M460.599,321.103c-9.42-1.522-17.921-6.302-27.39-7.632c-1.168-0.164-1.519,1.638-0.348,1.803
						c9.465,1.33,17.969,6.11,27.39,7.632C461.419,323.095,461.767,321.292,460.599,321.103L460.599,321.103z"/>
				</g>
				<g>
					<path style="fill:#C26C1E;" d="M477.682,342.598c-9.311-1.95-18.614-3.893-27.754-6.552c-1.137-0.331-1.474,1.476-0.348,1.803
						c9.14,2.659,18.444,4.602,27.754,6.552C478.494,344.644,478.838,342.84,477.682,342.598L477.682,342.598z"/>
				</g>
				<g>
					<path style="fill:#C26C1E;" d="M495.851,361.932c-10.421-2.181-21.038-3.214-31.609-1.526c-1.16,0.185-1.039,2.018,0.128,1.832
						c10.414-1.663,20.868-0.651,31.134,1.497C496.663,363.978,497.007,362.174,495.851,361.932L495.851,361.932z"/>
				</g>
				<g>
					<path style="fill:#C26C1E;" d="M500,382.66v1.83c-1.07,0.07-2.14,0.11-3.22,0.12c-0.86,0.02-1.72,0.02-2.59,0.01h-0.01
						c-2.73-0.03-5.47-0.17-8.22-0.34c-1.16-0.07-1.31-1.9-0.13-1.83c1.76,0.11,3.52,0.21,5.28,0.27c0.01-0.01,0.01,0,0.01,0
						c0.89,0.04,1.78,0.06,2.67,0.07c1.5,0.03,3,0.02,4.5-0.04C498.86,382.73,499.43,382.7,500,382.66z"/>
				</g>
				<g>
					<path style="fill:#C26C1E;" d="M463.849,323.627c1.775-10.336,3.078-20.727,3.855-31.186c0.087-1.167-1.716-1.524-1.803-0.348
						c-0.777,10.459-2.079,20.85-3.855,31.186C461.846,324.445,463.649,324.793,463.849,323.627L463.849,323.627z"/>
				</g>
				<g>
					<path style="fill:#C26C1E;" d="M481.666,345.246c-0.136-9.552,2.781-18.695,4.195-28.063c0.176-1.168-1.626-1.518-1.803-0.348
						c-1.439,9.531-4.362,18.821-4.224,28.538C479.851,346.558,481.683,346.423,481.666,345.246L481.666,345.246z"/>
				</g>
				<g>
					<path style="fill:#C26C1E;" d="M499.58,365.43c0.12-1.42,0.26-2.84,0.42-4.26v6.77c-0.33-0.16-0.58-0.49-0.55-0.94
						c0.04-0.52,0.08-1.04,0.13-1.56V365.43z"/>
				</g>
				<g>
					<path style="fill:#C26C1E;" d="M440.514,290.299c-1.946-0.876-3.964-1.567-5.945-2.358c-1.093-0.436-1.893,1.217-0.793,1.656
						c1.981,0.79,3.999,1.481,5.945,2.358C440.798,292.44,441.594,290.786,440.514,290.299L440.514,290.299z"/>
				</g>
				<g>
					<path style="fill:#C26C1E;" d="M442.925,293.872c0.747-1.876,1.388-3.806,2.355-5.585c0.566-1.04-1.092-1.829-1.656-0.793
						c-0.967,1.779-1.608,3.709-2.355,5.585C440.833,294.172,442.486,294.972,442.925,293.872L442.925,293.872z"/>
				</g>
				<g>
					<path style="fill:#C26C1E;" d="M444.827,297.521c-1.629-0.952-3.508-1.448-5.026-2.589c-0.94-0.707-2.136,0.688-1.188,1.401
						c1.657,1.246,3.647,1.807,5.42,2.844C445.055,299.774,445.841,298.115,444.827,297.521L444.827,297.521z"/>
				</g>
				<g>
					<path style="fill:#C26C1E;" d="M447.597,300.734c0.949-1.718,1.767-3.505,2.716-5.223c0.572-1.036-1.086-1.825-1.656-0.793
						c-0.949,1.718-1.767,3.505-2.716,5.223C445.368,300.977,447.027,301.766,447.597,300.734L447.597,300.734z"/>
				</g>
				<g>
					<path style="fill:#C26C1E;" d="M461.33,297.465c1.259,1.265,2.518,2.53,3.777,3.795c0.833,0.837,2.018-0.567,1.188-1.401
						c-1.259-1.265-2.518-2.53-3.777-3.795C461.685,295.228,460.5,296.631,461.33,297.465L461.33,297.465z"/>
				</g>
				<g>
					<path style="fill:#C26C1E;" d="M466.177,305.933c1.97-0.964,3.457-2.635,5.418-3.594c1.049-0.513,0.451-2.251-0.61-1.732
						c-1.97,0.964-3.457,2.635-5.418,3.594C464.519,304.714,465.116,306.452,466.177,305.933L466.177,305.933z"/>
				</g>
				<g>
					<path style="fill:#C26C1E;" d="M465.354,308.688c-1.185-1.555-2.56-2.948-3.937-4.331c-0.833-0.837-2.018,0.566-1.188,1.401
						c1.267,1.273,2.526,2.548,3.617,3.979C464.56,310.672,466.074,309.632,465.354,308.688L465.354,308.688z"/>
				</g>
				<g>
					<path style="fill:#C26C1E;" d="M464.713,315.667c1.935-0.892,3.775-1.952,5.636-2.985c1.031-0.572-0.022-2.078-1.048-1.508
						c-1.717,0.953-3.412,1.938-5.197,2.761C463.039,314.426,463.638,316.163,464.713,315.667L464.713,315.667z"/>
				</g>
				<g>
					<path style="fill:#C26C1E;" d="M439.543,315.597c-1.41,1.38-2.963,2.59-4.521,3.796c-0.929,0.72,0.111,2.234,1.048,1.508
						c1.684-1.305,3.348-2.624,4.873-4.116C441.788,315.959,440.383,314.775,439.543,315.597L439.543,315.597z"/>
				</g>
				<g>
					<path style="fill:#C26C1E;" d="M445.436,316.617c-1.137-2.272-2.324-4.523-3.885-6.538c-0.72-0.93-2.234,0.111-1.508,1.048
						c1.46,1.884,2.597,3.973,3.661,6.099C444.225,318.269,445.964,317.672,445.436,316.617L445.436,316.617z"/>
				</g>
				<g>
					<path style="fill:#C26C1E;" d="M449.45,318.704c-1.943,1.267-3.62,2.862-5.419,4.315c-0.913,0.737,0.126,2.253,1.048,1.508
						c1.8-1.453,3.476-3.048,5.419-4.315C451.487,319.567,450.441,318.058,449.45,318.704L449.45,318.704z"/>
				</g>
				<g>
					<path style="fill:#C26C1E;" d="M454.512,319.483c-1.395-1.751-2.787-3.504-3.955-5.418c-0.616-1.008-2.123,0.041-1.508,1.048
						c1.169,1.913,2.561,3.666,3.955,5.418C453.736,321.449,455.251,320.41,454.512,319.483L454.512,319.483z"/>
				</g>
				<g>
					<path style="fill:#C26C1E;" d="M456.799,338.374c-1.526,0.803-2.758,2.012-3.97,3.218c-0.837,0.833,0.566,2.017,1.401,1.188
						c1.107-1.1,2.225-2.164,3.618-2.897C458.889,339.334,457.834,337.829,456.799,338.374L456.799,338.374z"/>
				</g>
				<g>
					<path style="fill:#C26C1E;" d="M462.243,338.798c-1.091-1.097-2.143-2.201-3.077-3.437c-0.71-0.939-2.223,0.102-1.508,1.048
						c1.028,1.36,2.197,2.583,3.397,3.789C461.889,341.036,463.073,339.632,462.243,338.798L462.243,338.798z"/>
				</g>
				<g>
					<path style="fill:#C26C1E;" d="M465.274,340.356c-1.177,1.123-2.615,1.925-3.793,3.057c-0.851,0.817,0.554,2.001,1.401,1.188
						c1.175-1.129,2.612-1.931,3.793-3.057C467.527,340.729,466.122,339.546,465.274,340.356L465.274,340.356z"/>
				</g>
				<g>
					<path style="fill:#C26C1E;" d="M471.775,341.519c-0.769-1.127-1.719-2.102-2.679-3.066c-0.833-0.837-2.018,0.567-1.188,1.401
						c0.851,0.855,1.677,1.714,2.359,2.714C470.932,343.543,472.442,342.498,471.775,341.519L471.775,341.519z"/>
				</g>
				<g>
					<path style="fill:#C26C1E;" d="M483.714,323.514c-0.816-1.194-1.841-2.226-2.858-3.248c-0.833-0.837-2.018,0.567-1.188,1.401
						c0.909,0.913,1.808,1.828,2.537,2.895C482.872,325.537,484.383,324.492,483.714,323.514L483.714,323.514z"/>
				</g>
				<g>
					<path style="fill:#C26C1E;" d="M483.836,329.12c1.494-1.14,2.841-2.457,4.335-3.597c0.935-0.714-0.105-2.227-1.048-1.508
						c-1.494,1.14-2.841,2.457-4.335,3.597C481.852,328.326,482.893,329.84,483.836,329.12L483.836,329.12z"/>
				</g>
				<g>
					<path style="fill:#C26C1E;" d="M482.454,331.991c-1.08-1.084-2.159-2.168-3.239-3.253c-0.833-0.837-2.018,0.567-1.188,1.401
						c1.08,1.084,2.159,2.169,3.239,3.253C482.1,334.228,483.285,332.824,482.454,331.991L482.454,331.991z"/>
				</g>
				<g>
					<path style="fill:#C26C1E;" d="M482.156,337.163c1.417-0.722,2.737-1.613,4.153-2.335c1.037-0.529,0.441-2.268-0.61-1.732
						c-1.417,0.722-2.737,1.613-4.153,2.335C480.509,335.96,481.105,337.699,482.156,337.163L482.156,337.163z"/>
				</g>
				<g>
					<path style="fill:#C26C1E;" d="M468.231,357.164c1.147,1.152,2.297,2.3,3.258,3.617c0.695,0.952,2.207-0.09,1.508-1.048
						c-1.052-1.442-2.321-2.707-3.578-3.969C468.586,354.927,467.401,356.33,468.231,357.164L468.231,357.164z"/>
				</g>
				<g>
					<path style="fill:#C26C1E;" d="M475.327,360.213c-1.686,1.679-3.373,3.358-5.059,5.038c-0.837,0.833,0.567,2.018,1.4,1.188
						c1.686-1.679,3.373-3.358,5.06-5.038C477.565,360.567,476.161,359.383,475.327,360.213L475.327,360.213z"/>
				</g>
				<g>
					<path style="fill:#C26C1E;" d="M480.57,359.75c-0.897-1.588-1.966-3.055-3.056-4.515c-0.704-0.944-2.217,0.098-1.508,1.048
						c1.09,1.46,2.158,2.926,3.056,4.515C479.642,361.825,481.148,360.773,480.57,359.75L480.57,359.75z"/>
				</g>
				<g>
					<path style="fill:#C26C1E;" d="M484.703,360.594c-1.687,1.679-3.373,3.358-5.06,5.038c-0.837,0.833,0.567,2.018,1.401,1.188
						c1.686-1.679,3.373-3.358,5.06-5.038C486.941,360.949,485.537,359.764,484.703,360.594L484.703,360.594z"/>
				</g>
				<g>
					<path style="fill:#C26C1E;" d="M489.764,360.672c-0.959-1.314-2.1-2.48-3.058-3.794c-0.694-0.952-2.206,0.09-1.508,1.048
						c0.958,1.314,2.099,2.48,3.057,3.794C488.951,362.672,490.463,361.63,489.764,360.672L489.764,360.672z"/>
				</g>
				<g>
					<path style="fill:#C26C1E;" d="M500,338.09v2.19l-0.54-0.54C498.84,339.12,499.35,338.17,500,338.09z"/>
				</g>
				<g>
					<path style="fill:#C26C1E;" d="M500,346.01v2.66c-0.52-0.59-1.07-1.15-1.63-1.72c-0.83-0.83,0.35-2.23,1.18-1.4
						C499.7,345.7,499.85,345.86,500,346.01z"/>
				</g>
				<g>
					<path style="fill:#C26C1E;" d="M500,355.03v2.4c-0.72-0.55-1.37-1.17-2.01-1.82c-0.83-0.84,0.35-2.24,1.18-1.4
						C499.44,354.48,499.72,354.76,500,355.03z"/>
				</g>
				<g>
					<path style="fill:#C26C1E;" d="M489.095,381.011c1.243,0.91,2.334,1.984,3.419,3.073c0.833,0.837,2.018-0.567,1.188-1.401
						c-1.084-1.089-2.176-2.163-3.419-3.073C489.335,378.916,488.138,380.31,489.095,381.011L489.095,381.011z"/>
				</g>
				<g>
					<path style="fill:#C26C1E;" d="M495.472,383.337c-1.145,1.139-2.29,2.278-3.434,3.417c-0.837,0.833,0.567,2.018,1.401,1.188
						c1.144-1.139,2.289-2.278,3.434-3.418C497.71,383.691,496.306,382.507,495.472,383.337L495.472,383.337z"/>
				</g>
				<g>
					<path style="fill:#C26C1E;" d="M500,382.07v2.12c-0.44,0.21-1.05,0.11-1.27-0.49c-0.12-0.33-0.27-0.65-0.44-0.95
						c-0.59-1.07-1.42-1.99-2.14-2.98c-0.7-0.96,0.81-2,1.51-1.05C498.47,379.84,499.36,380.87,500,382.07z"/>
				</g>
			</g>
		</g>
		<g>
			<g>
				<path style="fill:#E68F28;" d="M50.868,305.325c9.803-0.379,26.106-15.173,23.689-39.619
					C59.117,271.294,37.433,292.473,50.868,305.325L50.868,305.325z"/>
				<path style="fill:#E68F28;" d="M40.445,320.269c22.535-24.98,38.018-12.642,44.332-11.079
					c-8.646,13.953-32.278,27.148-45.453,13.507L40.445,320.269z"/>
				<path style="fill:#E68F28;" d="M33.159,329.418c12.582-17.378,15.422-40.783-0.913-56.52c-5.244,6.32-9.158,19.737-8.614,28.148
					c0.549,9.989,6.347,16.812,13.196,23.632L33.159,329.418z"/>
				<path style="fill:#E68F28;" d="M21.235,345.083c7.602-9.744,31.767-19.787,42.831-9.295
					c-11.022,8.436-29.144,17.152-42.308,8.242L21.235,345.083z"/>
				<path style="fill:#E68F28;" d="M18.476,347.327c9.165-16.583,8.343-31.566-5.882-44.68c-3.65,13.68-7.023,34.455,6.405,43.627
					L18.476,347.327z"/>
				<path style="fill:#E68F28;" d="M5.827,361.612c11.012-13.169,37.3-14.279,49.683-1.95
					c-12.587,14.751-38.335,21.642-52.042,5.373L5.827,361.612z"/>
				<path style="fill:#E68F28;" d="M0,327.69v38.7c0.15-0.32,0.29-0.63,0.42-0.95v-0.01c0,0,0.01,0,0.01-0.01
					C6.42,351.64,6.85,339.19,0,327.69z"/>
				<path style="fill:#E68F28;" d="M0,376.04v13.09c9.54,2.65,20.45,0.69,28.95-4.37C20.12,377.15,10.44,374.49,0,376.04z"/>
			</g>
			<g>
				<g>
					<path style="fill:#C26C1E;" d="M0.42,365.44L0,365.86v2.62c1.21-1.21,2.4-2.42,3.6-3.64l0.01-0.01
						c0.37-0.38,0.74-0.76,1.11-1.14l0.01-0.01c0.74-0.77,1.47-1.53,2.2-2.3c1.44-1.5,2.87-3.02,4.27-4.54
						c3.78-4.07,7.46-8.22,11.06-12.44c0.01-0.01,0.02-0.02,0.02-0.03c0.62-0.71,1.22-1.43,1.82-2.14c0.15-0.18,0.32-0.37,0.47-0.56
						c0-0.01,0-0.01,0.01-0.02c5.13-6.1,10.08-12.35,14.85-18.75c0.02-0.02,0.03-0.03,0.05-0.05c0.5-0.68,1-1.36,1.51-2.04
						c1.07-1.46,2.14-2.93,3.2-4.41c2.64-3.68,5.23-7.4,7.75-11.17c1.34-1.99,2.66-3.99,3.96-6.01c0.64-0.98,1.27-1.96,1.9-2.95
						c0.93-1.47,1.86-2.94,2.77-4.43v-0.01c0.55-0.88,1.1-1.76,1.64-2.65c0.84-1.37,1.67-2.75,2.49-4.14
						c0.6-1.01-0.91-2.06-1.51-1.04c-1.28,2.15-2.58,4.28-3.89,6.41v0.01c-0.1,0.17-0.21,0.33-0.31,0.5
						c-0.22,0.36-0.45,0.73-0.68,1.09c-0.4,0.64-0.8,1.28-1.2,1.91c-1.12,1.79-2.26,3.56-3.42,5.33c-0.36,0.57-0.74,1.14-1.12,1.71
						c-0.79,1.22-1.6,2.43-2.41,3.63c-3.99,5.94-8.13,11.77-12.41,17.48c-0.04,0.07-0.09,0.13-0.14,0.19l-0.01,0.01
						c-0.42,0.58-0.86,1.16-1.3,1.73c-0.01,0.03-0.04,0.06-0.06,0.09c-5.15,6.79-10.49,13.43-16.04,19.89c0,0,0,0.01-0.01,0.01
						c-0.01,0.01-0.01,0.02-0.03,0.03c-0.53,0.62-1.06,1.24-1.6,1.86c-0.01,0.02-0.03,0.03-0.04,0.04
						c-5.81,6.69-11.84,13.19-18.09,19.5c0,0.01-0.01,0.01-0.01,0.01V365.44z"/>
				</g>
				<g>
					<path style="fill:#C26C1E;" d="M39.401,321.103c9.42-1.522,17.921-6.302,27.39-7.632c1.168-0.164,1.519,1.638,0.347,1.803
						c-9.465,1.33-17.969,6.11-27.39,7.632C38.581,323.095,38.233,321.292,39.401,321.103L39.401,321.103z"/>
				</g>
				<g>
					<path style="fill:#C26C1E;" d="M22.318,342.598c9.31-1.95,18.614-3.893,27.754-6.552c1.137-0.331,1.473,1.476,0.348,1.803
						c-9.14,2.659-18.444,4.602-27.754,6.552C21.506,344.644,21.162,342.84,22.318,342.598L22.318,342.598z"/>
				</g>
				<g>
					<path style="fill:#C26C1E;" d="M4.149,361.932c10.421-2.181,21.038-3.214,31.609-1.526c1.16,0.185,1.039,2.018-0.128,1.832
						c-10.414-1.663-20.868-0.651-31.134,1.497C3.337,363.978,2.993,362.174,4.149,361.932L4.149,361.932z"/>
				</g>
				<g>
					<path style="fill:#C26C1E;" d="M0,382.66v1.83c1.07,0.07,2.14,0.11,3.22,0.12c0.86,0.02,1.72,0.02,2.59,0.01h0.01
						c2.73-0.03,5.47-0.17,8.22-0.34c1.16-0.07,1.31-1.9,0.13-1.83c-1.76,0.11-3.52,0.21-5.28,0.27c-0.01-0.01-0.01,0-0.01,0
						c-0.89,0.04-1.78,0.06-2.67,0.07c-1.5,0.03-3,0.02-4.5-0.04C1.14,382.73,0.57,382.7,0,382.66z"/>
				</g>
				<g>
					<path style="fill:#C26C1E;" d="M36.151,323.627c-1.775-10.336-3.078-20.727-3.855-31.186c-0.087-1.167,1.716-1.524,1.803-0.348
						c0.777,10.459,2.079,20.85,3.855,31.186C38.154,324.445,36.351,324.793,36.151,323.627L36.151,323.627z"/>
				</g>
				<g>
					<path style="fill:#C26C1E;" d="M18.334,345.246c0.136-9.552-2.781-18.695-4.195-28.063c-0.176-1.168,1.626-1.518,1.803-0.348
						c1.439,9.531,4.362,18.821,4.224,28.538C20.149,346.558,18.317,346.423,18.334,345.246L18.334,345.246z"/>
				</g>
				<g>
					<path style="fill:#C26C1E;" d="M0.42,365.43c-0.12-1.42-0.26-2.84-0.42-4.26v6.77c0.33-0.16,0.58-0.49,0.55-0.94
						c-0.04-0.52-0.08-1.04-0.13-1.56V365.43z"/>
				</g>
				<g>
					<path style="fill:#C26C1E;" d="M59.486,290.299c1.946-0.876,3.964-1.567,5.945-2.358c1.093-0.436,1.893,1.217,0.793,1.656
						c-1.981,0.79-3.999,1.481-5.945,2.358C59.202,292.44,58.406,290.786,59.486,290.299L59.486,290.299z"/>
				</g>
				<g>
					<path style="fill:#C26C1E;" d="M57.075,293.872c-0.747-1.876-1.388-3.806-2.355-5.585c-0.566-1.04,1.092-1.829,1.656-0.793
						c0.967,1.779,1.608,3.709,2.355,5.585C59.167,294.172,57.514,294.972,57.075,293.872L57.075,293.872z"/>
				</g>
				<g>
					<path style="fill:#C26C1E;" d="M55.173,297.521c1.629-0.952,3.508-1.448,5.026-2.589c0.94-0.707,2.136,0.688,1.188,1.401
						c-1.657,1.246-3.647,1.807-5.42,2.844C54.945,299.774,54.159,298.115,55.173,297.521L55.173,297.521z"/>
				</g>
				<g>
					<path style="fill:#C26C1E;" d="M52.403,300.734c-0.949-1.718-1.767-3.505-2.716-5.223c-0.572-1.036,1.086-1.825,1.656-0.793
						c0.949,1.718,1.767,3.505,2.716,5.223C54.632,300.977,52.973,301.766,52.403,300.734L52.403,300.734z"/>
				</g>
				<g>
					<path style="fill:#C26C1E;" d="M38.67,297.465c-1.259,1.265-2.518,2.53-3.777,3.795c-0.833,0.837-2.018-0.567-1.188-1.401
						c1.259-1.265,2.518-2.53,3.777-3.795C38.315,295.228,39.5,296.631,38.67,297.465L38.67,297.465z"/>
				</g>
				<g>
					<path style="fill:#C26C1E;" d="M33.823,305.933c-1.97-0.964-3.457-2.635-5.418-3.594c-1.049-0.513-0.451-2.251,0.61-1.732
						c1.971,0.964,3.457,2.635,5.418,3.594C35.481,304.714,34.884,306.452,33.823,305.933L33.823,305.933z"/>
				</g>
				<g>
					<path style="fill:#C26C1E;" d="M34.646,308.688c1.185-1.555,2.56-2.948,3.937-4.331c0.833-0.837,2.018,0.566,1.188,1.401
						c-1.267,1.273-2.526,2.548-3.617,3.979C35.44,310.672,33.926,309.632,34.646,308.688L34.646,308.688z"/>
				</g>
				<g>
					<path style="fill:#C26C1E;" d="M35.287,315.667c-1.935-0.892-3.775-1.952-5.636-2.985c-1.031-0.572,0.022-2.078,1.048-1.508
						c1.717,0.953,3.412,1.938,5.197,2.761C36.961,314.426,36.362,316.163,35.287,315.667L35.287,315.667z"/>
				</g>
				<g>
					<path style="fill:#C26C1E;" d="M60.457,315.597c1.41,1.38,2.963,2.59,4.521,3.796c0.929,0.72-0.111,2.234-1.048,1.508
						c-1.684-1.305-3.348-2.624-4.873-4.116C58.212,315.959,59.617,314.775,60.457,315.597L60.457,315.597z"/>
				</g>
				<g>
					<path style="fill:#C26C1E;" d="M54.564,316.617c1.137-2.272,2.324-4.523,3.884-6.538c0.72-0.93,2.234,0.111,1.508,1.048
						c-1.459,1.884-2.597,3.973-3.661,6.099C55.775,318.269,54.036,317.672,54.564,316.617L54.564,316.617z"/>
				</g>
				<g>
					<path style="fill:#C26C1E;" d="M50.55,318.704c1.943,1.267,3.62,2.862,5.419,4.315c0.913,0.737-0.126,2.253-1.048,1.508
						c-1.8-1.453-3.476-3.048-5.419-4.315C48.513,319.567,49.559,318.058,50.55,318.704L50.55,318.704z"/>
				</g>
				<g>
					<path style="fill:#C26C1E;" d="M45.487,319.483c1.395-1.751,2.787-3.504,3.955-5.418c0.615-1.008,2.123,0.041,1.508,1.048
						c-1.169,1.913-2.561,3.666-3.955,5.418C46.264,321.449,44.749,320.41,45.487,319.483L45.487,319.483z"/>
				</g>
				<g>
					<path style="fill:#C26C1E;" d="M43.201,338.374c1.526,0.803,2.758,2.012,3.97,3.218c0.837,0.833-0.566,2.017-1.401,1.188
						c-1.107-1.1-2.225-2.164-3.618-2.897C41.111,339.334,42.166,337.829,43.201,338.374L43.201,338.374z"/>
				</g>
				<g>
					<path style="fill:#C26C1E;" d="M37.757,338.798c1.091-1.097,2.143-2.201,3.077-3.437c0.71-0.939,2.223,0.102,1.508,1.048
						c-1.028,1.36-2.197,2.583-3.397,3.789C38.111,341.036,36.927,339.632,37.757,338.798L37.757,338.798z"/>
				</g>
				<g>
					<path style="fill:#C26C1E;" d="M34.726,340.356c1.177,1.123,2.615,1.925,3.793,3.057c0.851,0.817-0.554,2.001-1.401,1.188
						c-1.175-1.129-2.612-1.931-3.793-3.057C32.472,340.729,33.878,339.546,34.726,340.356L34.726,340.356z"/>
				</g>
				<g>
					<path style="fill:#C26C1E;" d="M28.225,341.519c0.769-1.127,1.719-2.102,2.679-3.066c0.833-0.837,2.018,0.567,1.188,1.401
						c-0.851,0.855-1.677,1.714-2.359,2.714C29.068,343.543,27.558,342.498,28.225,341.519L28.225,341.519z"/>
				</g>
				<g>
					<path style="fill:#C26C1E;" d="M16.286,323.514c0.816-1.194,1.841-2.226,2.858-3.248c0.833-0.837,2.018,0.567,1.188,1.401
						c-0.909,0.913-1.808,1.828-2.537,2.895C17.128,325.537,15.617,324.492,16.286,323.514L16.286,323.514z"/>
				</g>
				<g>
					<path style="fill:#C26C1E;" d="M16.164,329.12c-1.494-1.14-2.84-2.457-4.335-3.597c-0.935-0.714,0.105-2.227,1.048-1.508
						c1.494,1.14,2.841,2.457,4.335,3.597C18.148,328.326,17.107,329.84,16.164,329.12L16.164,329.12z"/>
				</g>
				<g>
					<path style="fill:#C26C1E;" d="M17.546,331.991c1.08-1.084,2.159-2.168,3.239-3.253c0.833-0.837,2.018,0.567,1.188,1.401
						c-1.08,1.084-2.159,2.169-3.239,3.253C17.9,334.228,16.715,332.824,17.546,331.991L17.546,331.991z"/>
				</g>
				<g>
					<path style="fill:#C26C1E;" d="M17.844,337.163c-1.417-0.722-2.737-1.613-4.153-2.335c-1.037-0.529-0.441-2.268,0.61-1.732
						c1.417,0.722,2.737,1.613,4.153,2.335C19.491,335.96,18.895,337.699,17.844,337.163L17.844,337.163z"/>
				</g>
				<g>
					<path style="fill:#C26C1E;" d="M31.769,357.164c-1.147,1.152-2.297,2.3-3.258,3.617c-0.695,0.952-2.207-0.09-1.508-1.048
						c1.052-1.442,2.321-2.707,3.578-3.969C31.414,354.927,32.599,356.33,31.769,357.164L31.769,357.164z"/>
				</g>
				<g>
					<path style="fill:#C26C1E;" d="M24.673,360.213c1.686,1.679,3.373,3.358,5.059,5.038c0.837,0.833-0.567,2.018-1.4,1.188
						c-1.686-1.679-3.373-3.358-5.059-5.038C22.435,360.567,23.839,359.383,24.673,360.213L24.673,360.213z"/>
				</g>
				<g>
					<path style="fill:#C26C1E;" d="M19.43,359.75c0.897-1.588,1.966-3.055,3.056-4.515c0.704-0.944,2.217,0.098,1.508,1.048
						c-1.09,1.46-2.158,2.926-3.056,4.515C20.358,361.825,18.852,360.773,19.43,359.75L19.43,359.75z"/>
				</g>
				<g>
					<path style="fill:#C26C1E;" d="M15.297,360.594c1.687,1.679,3.373,3.358,5.06,5.038c0.837,0.833-0.567,2.018-1.401,1.188
						c-1.686-1.679-3.373-3.358-5.059-5.038C13.059,360.949,14.463,359.764,15.297,360.594L15.297,360.594z"/>
				</g>
				<g>
					<path style="fill:#C26C1E;" d="M10.236,360.672c0.959-1.314,2.1-2.48,3.057-3.794c0.694-0.952,2.206,0.09,1.508,1.048
						c-0.958,1.314-2.099,2.48-3.057,3.794C11.049,362.672,9.537,361.63,10.236,360.672L10.236,360.672z"/>
				</g>
				<g>
					<path style="fill:#C26C1E;" d="M0,338.09v2.19l0.54-0.54C1.16,339.12,0.65,338.17,0,338.09z"/>
				</g>
				<g>
					<path style="fill:#C26C1E;" d="M0,346.01v2.66c0.52-0.59,1.07-1.15,1.63-1.72c0.83-0.83-0.35-2.23-1.18-1.4
						C0.3,345.7,0.15,345.86,0,346.01z"/>
				</g>
				<g>
					<path style="fill:#C26C1E;" d="M0,355.03v2.4c0.72-0.55,1.37-1.17,2.01-1.82c0.83-0.84-0.35-2.24-1.18-1.4
						C0.56,354.48,0.28,354.76,0,355.03z"/>
				</g>
				<g>
					<path style="fill:#C26C1E;" d="M10.905,381.011c-1.243,0.91-2.334,1.984-3.419,3.073c-0.833,0.837-2.018-0.567-1.188-1.401
						c1.084-1.089,2.176-2.163,3.419-3.073C10.665,378.916,11.862,380.31,10.905,381.011L10.905,381.011z"/>
				</g>
				<g>
					<path style="fill:#C26C1E;" d="M4.528,383.337c1.145,1.139,2.29,2.278,3.434,3.417c0.837,0.833-0.567,2.018-1.401,1.188
						c-1.144-1.139-2.289-2.278-3.434-3.418C2.29,383.691,3.694,382.507,4.528,383.337L4.528,383.337z"/>
				</g>
				<g>
					<path style="fill:#C26C1E;" d="M0,382.07v2.12c0.44,0.21,1.05,0.11,1.27-0.49c0.12-0.33,0.27-0.65,0.44-0.95
						c0.59-1.07,1.42-1.99,2.14-2.98c0.7-0.96-0.81-2-1.51-1.05C1.53,379.84,0.64,380.87,0,382.07z"/>
				</g>
			</g>
		</g>
		<g>
			<g>
				<g>
					<path style="fill:#00837E;" d="M446.729,251.943c-6.136,7.92-12.299,5.851-12.299,5.851l1.422-11.596L446.729,251.943z"/>
					<path style="fill:#005B55;" d="M446.729,251.943c-6.136,7.92-12.299,5.851-12.299,5.851S438.1,251.008,446.729,251.943z"/>
				</g>
				<path style="fill:#036D65;" d="M457.932,209.243c-3.767,14.276-9.594,27.368-21.16,40.17
					c-17.081,0.187-34.567-6.284-47.535-18.978c-1.634-1.601-3.185-3.3-4.656-5.088c-10.189-12.402-16.22-29.014-15.412-45.407
					c0.928-18.757,11.275-36.614,26.765-44.057c11.227-5.392,24.085-5.409,35.539,0.168c3.098,1.507,6.046,3.392,8.794,5.59
					c7.42,5.922,13.368,14.142,16.803,23.456C462.246,179.134,461.698,194.963,457.932,209.243z"/>
				<path style="opacity:0.15;fill:#FAF2EF;" d="M440.268,141.642c-2.748-2.198-5.697-4.083-8.794-5.59
					c-11.455-5.577-24.312-5.561-35.539-0.168c-15.49,7.443-25.837,25.299-26.765,44.057c-0.809,16.393,5.223,33.005,15.412,45.407
					c-4.242-10.571-9.364-26.29-9.796-41.308c1.157,2.076,2.901,3.842,5.424,5.086c5.498,2.712,12.29,1.731,17.62-1.296
					c5.331-3.028,9.407-7.851,12.879-12.904c4.055-5.902,7.537-12.574,7.666-19.734c0.106-5.884-2.638-12.079-7.434-15.212
					C421.62,138.182,432.138,139.618,440.268,141.642z"/>
				<path style="opacity:0.15;fill:#FAF2EF;" d="M435.088,163.66c2.746,0.821,6.062,1.105,8.16-0.848
					c1.74-1.619,2.048-4.318,1.521-6.636c-1.414-6.216-10.92-12.629-16.994-8.166C420.307,153.499,429.444,161.972,435.088,163.66z"
					/>
			</g>
		</g>
		<g>
			<g>
				<path style="fill:#938400;" d="M52.463,249.582c-2.184-16.086-17.566-27.844-32.553-27.602
					C26.327,233.286,36.478,249.773,52.463,249.582"/>
			</g>
			<g>
				<path style="fill:#938400;" d="M401.569,336.553c-2.675-16.012-18.41-27.293-33.382-26.592
					C374.946,321.065,385.598,337.234,401.569,336.553"/>
			</g>
			<g>
				<path style="fill:#938400;" d="M471.898,138.232c-1.762-13.756-14.828-23.899-27.632-23.788
					C449.675,124.143,458.241,138.293,471.898,138.232"/>
			</g>
		</g>
	</g>
</g>
<g id="TEXT">
	<polygon style="fill:#DB802E;" points="455.949,54.647 464,86.273 36,86.273 44.051,54.647 36,23 464,23 	"/>
	<g>
		<text transform="matrix(1 0 0 1 38.0471 73.6602)" style="fill:#FFFFFF; font-family:'PassionOne-Regular'; font-size:55.479px;">MY DAD MY HERO</text>
	</g>
</g>
</svg>
