<?xml version="1.0" encoding="utf-8"?>
<!-- Generator: Adobe Illustrator 27.5.0, SVG Export Plug-In . SVG Version: 6.00 Build 0)  -->
<svg version="1.1" xmlns="http://www.w3.org/2000/svg" xmlns:xlink="http://www.w3.org/1999/xlink" x="0px" y="0px"
	 viewBox="0 0 750 500" style="enable-background:new 0 0 750 500;" xml:space="preserve">
<g id="BACKGROUND">
	<rect style="fill:#F4F3DD;" width="750" height="500"/>
</g>
<g id="OBJECTS">
	<g>
		<g>
			<path style="fill:none;stroke:#E5CB80;stroke-width:1.5;stroke-linejoin:round;stroke-miterlimit:10;" d="M552.897,450.087
				c16.042-70.944,56.714-130.248,99.133-187.82"/>
			<path style="fill:#E5CB80;" d="M661.492,258.46c-2.374-2.653-5.728-4.374-9.499-4.421c-10.455-0.128-19.826,10.779-24.067,19.339
				c-4.741,9.568-5.903,20.558-6.193,31.093c6.605-2.47,18.59-7.167,24.682-10.719c5.927-3.456,11.881-7.825,15.476-13.874
				C665.71,273.449,666.827,264.42,661.492,258.46z"/>
			<path style="fill:none;stroke:#F4F3DD;stroke-width:1.5;stroke-miterlimit:10;" d="M622.507,302.915
				c8.959-13.387,18.734-26.552,30.204-37.63"/>
		</g>
		<g>
			<path style="fill:none;stroke:#E5CB80;stroke-width:1.5;stroke-linejoin:round;stroke-miterlimit:10;" d="M143.042,444.361
				c8.602-52.982,35.995-98.541,64.763-142.907"/>
			<path style="fill:#E5CB80;" d="M217.01,297.06c-2.536-2.498-5.991-4.006-9.758-3.816c-10.442,0.528-19.11,12.003-22.806,20.812
				c-4.131,9.846-4.6,20.888-4.229,31.42c6.437-2.88,18.104-8.32,23.96-12.247c5.699-3.822,11.367-8.555,14.574-14.818
				C222.161,311.755,222.708,302.673,217.01,297.06z"/>
			<path style="fill:none;stroke:#F4F3DD;stroke-width:1.5;stroke-miterlimit:10;" d="M180.893,343.875
				c8.1-13.923,17.03-27.675,27.782-39.452"/>
		</g>
		<g>
			<path style="fill:none;stroke:#E5CB80;stroke-width:1.5;stroke-linejoin:round;stroke-miterlimit:10;" d="M77.041,451.768
				c8.602-52.982,35.995-98.541,64.763-142.907"/>
			<path style="fill:#E5CB80;" d="M151.009,304.467c-2.536-2.498-5.991-4.006-9.758-3.815c-10.442,0.528-19.11,12.003-22.806,20.812
				c-4.131,9.846-4.6,20.888-4.229,31.42c6.437-2.88,18.104-8.32,23.96-12.247c5.699-3.822,11.367-8.555,14.574-14.818
				C156.16,319.162,156.707,310.081,151.009,304.467z"/>
			<path style="fill:none;stroke:#F4F3DD;stroke-width:1.5;stroke-miterlimit:10;" d="M114.892,351.282
				c8.1-13.923,17.03-27.675,27.781-39.452"/>
		</g>
		<g>
			<path style="fill:none;stroke:#E5CB80;stroke-width:1.5;stroke-linejoin:round;stroke-miterlimit:10;" d="M635.081,452.576
				c7.22-44.469,30.212-82.708,54.357-119.945"/>
			<path style="fill:#E5CB80;" d="M697.164,328.943c-2.129-2.097-5.029-3.362-8.19-3.202c-8.764,0.443-16.039,10.074-19.141,17.468
				c-3.467,8.264-3.861,17.532-3.549,26.372c5.403-2.417,15.195-6.983,20.11-10.279c4.783-3.207,9.54-7.181,12.232-12.437
				C701.487,341.277,701.946,333.655,697.164,328.943z"/>
			<path style="fill:none;stroke:#F4F3DD;stroke-width:1.5;stroke-miterlimit:10;" d="M666.85,368.236
				c6.799-11.686,14.294-23.228,23.318-33.113"/>
		</g>
		<g>
			<path style="fill:none;stroke:#E5CB80;stroke-width:1.5;stroke-linejoin:round;stroke-miterlimit:10;" d="M130.029,441.753
				c10.439-76.632,44.993-142.315,81.319-206.255"/>
			<path style="fill:#E5CB80;" d="M223.076,229.233c-3.271-3.645-7.707-5.865-12.523-5.63
				c-13.352,0.653-24.317,17.178-28.951,29.895c-5.179,14.215-5.662,30.2-5.074,45.455c8.203-4.101,23.069-11.855,30.519-17.48
				c7.249-5.473,14.449-12.268,18.485-21.303C229.822,250.568,230.425,237.423,223.076,229.233z"/>
			<path style="fill:none;stroke:#F4F3DD;stroke-width:1.5;stroke-miterlimit:10;" d="M177.375,296.642
				c10.213-20.076,21.489-39.896,35.117-56.835"/>
		</g>
		<g>
			<path style="fill:none;stroke:#E5CB80;stroke-width:1.5;stroke-linejoin:round;stroke-miterlimit:10;" d="M559.051,443.463
				c21.48-50.098,59.789-88.276,99.17-124.941"/>
			<path style="fill:#E5CB80;" d="M668.212,316.469c-1.861-3.034-4.853-5.328-8.556-6.048c-10.263-1.996-21.434,7.06-27.138,14.723
				c-6.376,8.565-9.484,19.171-11.654,29.484c6.94-1.249,19.572-3.726,26.201-6.132c6.45-2.34,13.089-5.574,17.708-10.882
				C669.681,331.971,672.394,323.287,668.212,316.469z"/>
			<path style="fill:none;stroke:#F4F3DD;stroke-width:1.5;stroke-miterlimit:10;" d="M621.905,353.235
				c11.208-11.569,23.181-22.773,36.447-31.622"/>
		</g>
		<path style="fill:#F4F3DD;stroke:#E5CB80;stroke-width:1.5;stroke-linejoin:round;stroke-miterlimit:10;" d="M631.045,433.693
			c-0.538-18.045-5.711-36.12-15.96-50.876c-10.249-14.755-25.731-25.978-43.139-29.693c-10.308-2.2-20.973-1.791-31.475-0.971
			c-6,0.468-9.45,3.424-16.032,6.763c-6.35-9.29-18.194-21.365-29.897-22.3c-12.087-0.966-24.739,8.208-29.798,18.873
			c-8.489-13.742-18.811-25.808-32.999-33.279c-14.084-7.416-30.05-10.933-45.873-10.969c-22.19-0.05-44.046,6.446-64.051,16.191
			c-21.301,10.376-42.446,26.928-46.601,50.533c-4.426-8.903-17.13-10.933-25.675-6.011c-8.545,4.922-13.296,14.752-15.268,24.521
			c-14.29-7.939-32.049-7.364-47.401-1.831c-28.435,10.247-57.639,29.389-70.699,57.479h567.109
			c-2.643-4.856-6.187-9.197-10.49-12.63C661.218,430.258,644.643,427.954,631.045,433.693z"/>
	</g>
	<g>
		<g>
			<g>
				<g>
					<polygon style="fill:#AF5248;" points="559.455,377.21 539.349,380.234 548.923,438.803 579.944,436.097 					"/>
					<path style="fill:#4D3C7C;" d="M571.173,365.05l-19.705,13.057c-0.097,0.077,22.829,51.714,25.012,59.682
						c0.048,0.176,4.538,1.149,6.214,1.967c1.152,0.563,2.23,1.44,2.728,2.671c1.032,2.551-0.101,5.11,1.563,7.938
						c1.181,2.007,3.588,1.934,5.706,1.934c5.001-0.943,8.075-11.003,9.654-21.702c0.741-5.02-2.105-13.497-6.873-22.319
						C583.726,386.544,571.173,365.05,571.173,365.05z"/>
					<path style="fill:none;stroke:#7365A8;stroke-width:1.5;stroke-miterlimit:10;" d="M589.695,452.125
						c0,0,5.361-17.139,5.759-22.07c0.398-4.931-0.995-10.201-4.974-17.209c-3.979-7.008-26.109-43.289-26.109-43.289"/>
					<path style="fill:none;stroke:#7365A8;stroke-width:1.5;stroke-miterlimit:10;" d="M554.14,376.336
						c0,0,8.434,13.906,19.865,9.061"/>
					
						<line style="fill:none;stroke:#7365A8;stroke-width:1.5;stroke-miterlimit:10;" x1="579.092" y1="438.563" x2="576.965" y2="428.508"/>
					
						<line style="fill:none;stroke:#7365A8;stroke-width:1.5;stroke-miterlimit:10;" x1="582.695" y1="439.756" x2="581.984" y2="429.399"/>
				</g>
				<path style="fill:#E87F5B;" d="M447.011,313.627c0,0-67.867,47.471-83.675,60.004c-23.409,18.558-24.628,78.69,16.628,78.69
					c64.823,0,195.223,0,195.223,0l-28.446-75.169l-67.56,9.026c0,0,88.395-41.678,70.47-90.096"/>
				
					<line style="fill:none;stroke:#CE6346;stroke-width:1.5;stroke-miterlimit:10;" x1="528.913" y1="379.534" x2="559.051" y2="452.125"/>
				<path style="fill:none;stroke:#CE6346;stroke-width:1.5;stroke-miterlimit:10;" d="M527.996,299.257
					c0,0,7.549,22.773-1.871,35.176s-85.544,63.35-88.238,65.992c-2.694,2.643-6.23,10.931,16.742,6.094
					c22.972-4.836,98.61-12.193,98.61-12.193"/>
				
					<line style="fill:none;stroke:#161313;stroke-width:1.5;stroke-linejoin:round;stroke-miterlimit:10;" x1="479.181" y1="386.178" x2="430.129" y2="415.141"/>
			</g>
			<g>
				<path style="fill:#964338;" d="M410.095,230.193c0,0-7.563,26.944-24.682,47.99c-19.141,23.533-52.645,62.093-112.829,74.408
					c0,0-16.547-31.255-15.39-36.853c50.498-27.5,69.435-61.195,87.272-98.862"/>
				<path style="fill:#847DCC;" d="M404.865,149.622c-17.501,3.738-31.663,16.617-42.675,30.723
					c-11.012,14.106-25.683,44.513-25.683,44.513s71.266,20.218,71.028,19.164c-0.237-1.054,13.708-34.964,13.708-34.964"/>
				
					<line style="fill:none;stroke:#5654A3;stroke-width:1.5;stroke-linejoin:round;stroke-miterlimit:10;" x1="343.38" y1="211.341" x2="411.972" y2="231.982"/>
				<path style="fill:#847DCC;" d="M380.723,188.446c18.778,42.571,26.662,88.998,39.688,133.666l172.282-27.387
					c-2.734-13.684-8.812-41.113-21.318-62.04c-3.324-5.562-15.72-23.037-19.251-28.47c-9.292-14.296-13.436-21.811-24.146-33.635
					c-10.71-11.825-23.59-22.285-38.847-26.947c-5.883-1.798-12-2.698-18.108-3.432c-7.165-0.862-14.356-1.504-21.56-1.926"/>
				<path style="fill:none;stroke:#5654A3;stroke-width:1.5;stroke-linejoin:round;stroke-miterlimit:10;" d="M388.285,157.232
					c6.655,14.474,22.126,23.207,37.941,23.154c14.883-0.05,27.507-8.3,33.807-18.349c3.708-5.915,5.413-12.676,4.19-19.221"/>
				<path style="fill:none;stroke:#161313;stroke-width:1.5;stroke-linejoin:round;stroke-miterlimit:10;" d="M385.661,196.673
					c5.989,20.203,16.348,55.123,16.348,55.123"/>
			</g>
			<g>
				<g>
					<path style="fill:#AF5248;" d="M468.834,422.631c-0.458-4.397-6.261-20.989-6.261-20.989l70.547,7.955l8.723,26.571
						c-12.159-2.319-54.949-9.337-75.692-13.536C466.429,422.039,468.888,423.152,468.834,422.631z"/>
					<path style="fill:#4D3C7C;" d="M434.982,434.955c6.01-5.838,30.969-8.873,30.528-13.27l73.592,2.306l9.036,28.585H431.881
						C431.881,452.576,428.972,440.793,434.982,434.955z"/>
					
						<line style="fill:none;stroke:#7365A8;stroke-width:1.5;stroke-miterlimit:10;" x1="545.69" y1="446.071" x2="430.838" y2="446.071"/>
					
						<line style="fill:none;stroke:#7365A8;stroke-width:1.5;stroke-miterlimit:10;" x1="463.919" y1="422.631" x2="473.749" y2="430.375"/>
					
						<line style="fill:none;stroke:#7365A8;stroke-width:1.5;stroke-miterlimit:10;" x1="457.892" y1="425.487" x2="467.253" y2="433.485"/>
					<path style="fill:none;stroke:#7365A8;stroke-width:1.5;stroke-miterlimit:10;" d="M541.064,430.557
						c0,0-18.488-5.754-16.218,15.513"/>
				</g>
				<path style="fill:#F7946D;" d="M546.689,301.885c0,0-44.103-29.541-63.032-39.211c-18.929-9.67-30.163-20.056-49.732-11.819
					c-19.57,8.237-23.851,21.63-20.133,40.363c3.718,18.732,38.594,122.237,38.594,122.237h83.511l-11.058-37.254
					c0,0,84.602-4.108,66.052-81.19"/>
				
					<line style="fill:none;stroke:#E2603D;stroke-width:1.5;stroke-miterlimit:10;" x1="531.021" y1="398.539" x2="447.578" y2="398.539"/>
				<path style="fill:none;stroke:#E2603D;stroke-width:1.5;stroke-miterlimit:10;" d="M523.752,413.408
					c-8.53-29.12-17.328-58.141-25.71-87.316c-0.506-1.762-1.01-3.525-1.512-5.288c-1.415-4.979-3.789-11.574-1.478-16.676
					c3.072-6.781,10.451-2.211,14.12,1.399c6.394,6.289,13.115,12.569,19.901,18.372c5.817,4.974,13.428,10.917,20.911,11.745
					c6.194,0.685,13.198-2.302,15.862-9.062c3.284-8.333,0.983-19.349-1.262-27.586"/>
				<path style="fill:none;stroke:#161313;stroke-width:1.5;stroke-linejoin:round;stroke-miterlimit:10;" d="M524.839,376.202
					c-3.511-11.817-7.022-23.633-10.532-35.45c-2.302-7.75-4.648-15.429-6.909-23.186c-2.247-7.71-5.053-15.211-8.383-22.399"/>
				<path style="fill:none;stroke:#161313;stroke-width:1.5;stroke-linejoin:round;stroke-miterlimit:10;" d="M505.26,297.078
					c1.958,7.116,2.951,13.761,2.149,19.941"/>
				<path style="fill:none;stroke:#161313;stroke-width:1.5;stroke-linejoin:round;stroke-miterlimit:10;" d="M448.879,346.161
					c3.208,3.544,6.743,6.706,10.53,9.416"/>
				<path style="fill:none;stroke:#161313;stroke-width:1.5;stroke-linejoin:round;stroke-miterlimit:10;" d="M456.34,341.911
					c11.288,8.206,23.249,15.216,35.678,20.91"/>
				<path style="fill:none;stroke:#161313;stroke-width:1.5;stroke-linejoin:round;stroke-miterlimit:10;" d="M546.346,301.535
					c7.634,4.201,15.121,8.67,22.442,13.395"/>
				<path style="fill:none;stroke:#161313;stroke-width:1.5;stroke-linejoin:round;stroke-miterlimit:10;" d="M570.105,307.698
					c-6.312-1.379-12.672-2.537-19.065-3.471"/>
			</g>
			<g>
				<path style="fill:#AF5248;" d="M445.35,117.973l5.705,13.372l6.011,11.768c0,0,1.751,18.944-22.582,28.469
					c-10.582,4.142-21.39-1.172-21.39-1.172l-4.485-15.576"/>
				<path style="fill:#AF5248;" d="M441.902,119.298c-0.915-7.375-3.044-15.254-6.366-21.922
					c-2.905-5.831-7.034-10.084-12.966-12.795c-7.866-3.594-15.552-2.271-23.864-0.136c-10.56,2.712-17.555,14.142-17.104,25.124
					c0.253,6.163,1.236,8.607,3,14.441c2.253,7.454,3.812,15.322,6.502,22.723c1.925,5.295,4.354,10.942,8.816,14.612
					c12.862,10.578,30.155-1.321,37.051-13.2C442.001,139.482,443.141,129.286,441.902,119.298z"/>
				<path style="fill:none;stroke:#161313;stroke-miterlimit:10;" d="M408.775,148.329c1.639-0.123,3.434-0.468,4.657-1.654
					c1.125-1.09,1.625-3.002,0.407-4.242"/>
				<path style="fill:#31131D;" d="M404.883,151.722c-1.672,0.537-3.711,1.363-4.354,3.435c-0.115,0.37-0.185,0.766-0.362,1.098
					c-0.401,0.752-1.199,0.601-1.784,0.18c-0.587-0.422-1.064-1.052-1.633-1.516c-1.406-1.146-2.49-2.636-3.796-3.894
					c-0.135,0.772-0.316,1.538-0.477,2.304c-0.511,3.89-0.698,7.941-0.555,12.027c0.136,3.867,0.758,8.27,2.866,10.706
					c2.219,2.565,5.136,1.863,7.469,0.474c2.332-1.389,4.637-3.363,7.252-2.925c1.3,0.218,2.571,1.026,3.857,1.565
					c5.37,2.251,11.094-0.622,14.086-7.071c0.845-1.821,1.57-4.002,2.948-4.781c0.756-0.427,1.617-0.368,2.437-0.507
					c3.3-0.558,5.835-4.395,7.179-8.957c1.344-4.562,1.685-9.819,2.01-14.98c0.5-7.931,1-15.863,1.499-23.795
					c-1.668,1.209-3.542,1.836-5.465,1.828c-0.775,5.208-1.57,10.494-3.272,14.984c-0.852,2.248-0.834,4.677-1.447,6.98
					c-0.592,2.226-1.858,4.205-3.412,5.885c-1.689,1.827-3.726,3.142-5.609,4.734c-1.667,1.409-3.172,2.677-5.414,3.075
					c-2.055,0.365-3.606-0.444-5.549-1.116C410.561,150.489,407.592,150.852,404.883,151.722z"/>
				<path style="fill:#31131D;" d="M415.892,140.579c-2.146-1.079-5.105-0.446-7.172-0.131c-2.323,0.355-4.61,0.947-6.841,1.715
					c-2.232,0.768-4.581,1.91-5.638,4.24c-0.21,0.462-0.344,1.075-0.033,1.478c0.164,0.213,0.414,0.309,0.653,0.382
					c1.587,0.481,3.274,0.309,4.815-0.241c1.509-0.538,2.773-1.831,4.221-2.341c-0.02,0.534,0.095,1.083,0.52,1.419
					c0.423,0.333,0.987,0.364,1.467,0.19c0.48-0.173,0.888-0.528,1.25-0.916c0.674-0.722,1.229-1.584,1.63-2.533
					c0.086-0.203,0.181-0.428,0.368-0.51c0.153-0.067,0.328-0.017,0.49,0.033c1.76,0.547,3.495,1.188,5.332,0.95
					c0.203-0.015,0.413-0.039,0.583-0.158c0.829-0.579,0.076-2.123-0.44-2.677C416.741,141.095,416.334,140.801,415.892,140.579z"/>
				<path style="fill:none;stroke:#161313;stroke-width:1.5;stroke-linejoin:round;stroke-miterlimit:10;" d="M396.025,122.81
					c1.2,3.808,1.285,7.8,1.705,11.722c0.29,2.709,1.022,7.566,5.382,5.931c1.124-0.422,2.249-0.844,3.373-1.265"/>
				<path style="fill:#31131D;" d="M426.449,103.595c1.171,2.84,2.423,5.646,3.754,8.414c0.818,1.7,1.669,3.392,2.731,4.951
					c2.521,3.702,5.959,6.893,9.931,8.984c0.63,0.332,8.302,5.059,8.189,5.401c4.663-14.109,0.944-30.394-6.839-42.693
					c-1.644-2.598-3.838-4.935-6.122-6.987c-1.712-1.538-3.599-2.951-5.776-3.698c-3.425-1.174-7.161-0.587-10.777-0.394
					c-4.274,0.228-8.579-0.118-12.762-1.027c-3.756-0.816-7.426-2.085-11.246-2.51c-3.82-0.425-7.953,0.103-10.947,2.515
					c-0.67,0.539-1.28,1.176-1.663,1.946c-0.401,0.804-0.54,1.722-0.959,2.517c-0.783,1.486-2.401,2.313-3.956,2.948
					c-2.269,0.926-4.631,1.648-6.779,2.827c-2.148,1.179-4.117,2.901-4.98,5.195c-0.862,2.294-0.349,5.205,1.637,6.64
					c1.098,0.793,2.692,1.297,2.924,2.631c0.193,1.112-0.751,2.099-1.728,2.664s-2.113,0.961-2.797,1.859
					c-1.154,1.513-0.465,3.809,0.891,5.144c1.356,1.335,3.202,2.017,4.874,2.928c5.449,2.969,5.036,10.506,11.4,13.081
					c0,0-3.289-9.9-1.623-14.136c0.689-1.75,1.144-3.888,2.906-4.547c0.864-0.323,1.819-0.242,2.74-0.189
					c3.749,0.218,7.76-0.175,10.753-2.443c0.271-0.205,0.542-0.43,0.872-0.513c0.637-0.161,1.262,0.243,1.824,0.582
					c3.488,2.101,7.853,2.24,11.852,1.47C418.772,106.386,422.556,104.789,426.449,103.595z"/>
				<path style="fill:#161313;" d="M419.712,112.462c-0.095-0.153-0.224-0.292-0.388-0.405c-1.647-1.127-3.4-1.673-5.151-1.997
					c-1.84-0.34-4.012-0.454-5.36,1.4c-0.317,0.436-0.578,0.994-0.618,1.647c-0.04,0.653,0.189,1.405,0.617,1.717
					c0.282,0.206,0.601,0.199,0.901,0.169c1.503-0.151,3.066-0.476,4.594-0.679c1.595-0.213,3.18-0.088,4.788-0.102
					C419.867,114.204,420.159,113.18,419.712,112.462z"/>
				<path style="fill:#161313;" d="M383.039,120.087c0.023-0.177,0.077-0.355,0.17-0.522c0.928-1.676,2.145-2.862,3.437-3.843
					c1.358-1.031,3.062-1.985,4.793-0.816c0.407,0.275,0.811,0.683,1.072,1.266c0.26,0.582,0.34,1.36,0.106,1.813
					c-0.154,0.298-0.413,0.417-0.664,0.507c-1.26,0.45-2.628,0.764-3.926,1.176c-1.355,0.43-2.584,1.164-3.88,1.78
					C383.524,121.742,382.931,120.92,383.039,120.087z"/>
				<g>
					<path style="fill:none;stroke:#F7946D;stroke-width:1.5;stroke-miterlimit:10;" d="M378.763,128.788
						c-0.499,1.374,1.341,8.95,6.257,10.043c2.686,0.597,5.915,0.156,8.107-1.643c1.762-1.446,2.414-3.81,2.348-6.066
						c-0.057-1.942-0.575-5.146-2.418-6.194C390.377,123.403,379.883,125.704,378.763,128.788z"/>
					<path style="fill:none;stroke:#F7946D;stroke-width:1.5;stroke-miterlimit:10;" d="M418.292,119.532
						c1.186,0.924,3.799,7.777-0.38,11.308c-2.284,1.929-6.727,3.008-9.763,2.609c-2.441-0.321-4.281-2.019-5.373-4
						c-0.941-1.706-2.083-4.744-0.844-6.618C403.734,120.103,415.631,117.459,418.292,119.532z"/>
					
						<line style="fill:none;stroke:#F7946D;stroke-width:1.5;stroke-miterlimit:10;" x1="394.792" y1="127.278" x2="401.482" y2="125.958"/>
					
						<line style="fill:none;stroke:#F7946D;stroke-width:1.5;stroke-miterlimit:10;" x1="419.357" y1="121.281" x2="437.395" y2="118.936"/>
				</g>
				<g>
					<path style="fill:#AF5248;" d="M431.125,119.421c0.653-2.787,2.821-4.843,6.049-4.975c3.846-0.157,6.479,3.579,7.144,6.997
						c1.022,5.252-2.346,14.303-8.225,13.761c-2.677-0.247-4.022-2.237-4.484-4.711c-0.531-2.842-0.558-5.981-0.683-8.861
						C430.893,120.861,430.961,120.118,431.125,119.421z"/>
					<path style="fill:none;stroke:#161313;stroke-linejoin:round;stroke-miterlimit:10;" d="M439.322,121.134
						c-1.99,2.197-4.903,6.202-6.799,8.48"/>
					<path style="fill:none;stroke:#161313;stroke-linejoin:round;stroke-miterlimit:10;" d="M444.054,127.914
						c-0.428,1.107-1.281,3.106-2.205,4.154c-1.173,1.331-2.803,2.409-4.566,2.817c-1.662,0.385-3.917,0.147-4.999-1.347"/>
					<path style="fill:none;stroke:#161313;stroke-linejoin:round;stroke-miterlimit:10;" d="M432.582,116.565
						c-1.337,1.702-2.113,3.838-2.18,6.001"/>
				</g>
				<path style="fill:#161313;" d="M411.628,125.975c0.303,1.184-0.128,2.317-0.961,2.53c-0.834,0.213-1.755-0.574-2.058-1.758
					c-0.303-1.184,0.128-2.317,0.962-2.53C410.404,124.004,411.325,124.791,411.628,125.975z"/>
				<path style="fill:#161313;" d="M390.753,131.729c0.303,1.184-0.128,2.317-0.962,2.53s-1.755-0.574-2.058-1.758
					c-0.303-1.184,0.128-2.317,0.961-2.53C389.529,129.758,390.45,130.544,390.753,131.729z"/>
			</g>
			<path style="fill:none;stroke:#7365A8;stroke-width:1.5;stroke-miterlimit:10;" d="M554.855,379.754"/>
		</g>
		<g>
			<g>
				<g>
					<path style="fill:#D8946F;" d="M254.483,316.68c-13.07,0.671-19.415,12.689-27.544,23.273l-20.29,14.531l14.342,6.935
						c-0.67,0.584-1.339,1.171-1.96,1.806c-0.818,0.836-1.591,1.845-1.627,3.014c-0.019,0.614-0.033,1.81,0.64,2.13
						c0.205,0.098,0.447,0.063,0.667,0.008c2.438-0.608,3.995-2.691,5.882-4.176c1.336-1.051,2.846-1.88,4.448-2.445
						c1.718-0.606,3.526-0.902,5.259-1.478c2.597-0.863,5.152-1.86,7.617-3.049c3.294-1.589,6.597-3.549,9.03-6.329
						c0.391-0.447,0.757-0.916,1.088-1.409c6.212-9.258,6.594-18.059,6.594-18.059L254.483,316.68z"/>
					<path style="fill:#FFC166;" d="M253.03,315.076c-4.475,0.879-6.068,2.206-10.11,4.32c-4.041,2.115-7.583,5.627-8.653,10.061
						c-0.053,0.219-0.098,0.458-0.001,0.662c0.089,0.188,0.278,0.303,0.457,0.408c6.619,3.868,13.238,7.737,19.857,11.605
						c0.528,0.309,1.095,0.628,1.707,0.602c0.527-0.022,1.006-0.298,1.45-0.581c3.202-2.042,5.879-4.899,7.709-8.227"/>
					<path style="fill:none;stroke:#DD802C;stroke-miterlimit:10;" d="M237.294,332.434c0.031-0.701,0.371-1.348,0.73-1.951
						c0.82-1.382,1.778-2.682,2.855-3.874"/>
					<path style="fill:none;stroke:#DD802C;stroke-miterlimit:10;" d="M240.544,333.918c0.754-1.043,1.507-2.085,2.26-3.128"/>
					<path style="fill:none;stroke:#DD802C;stroke-miterlimit:10;" d="M251.079,340.474c0.689-0.96,1.412-1.897,2.167-2.807"/>
				</g>
				<g>
					<path style="fill:#D8946F;" d="M229.189,378.655c-7.271,10.161-5.291,19.669-7.972,30.861c-0.215,0.9-0.769,1.692-1.383,2.362
						c-1.031,1.126-2.517,1.637-3.788,2.453c-1.271,0.816-2.435,2.257-2.113,3.778c0.411,1.94,2.765,2.505,4.665,2.635
						c8.697,0.596,17.452,0.267,26.085-0.98c2.086-0.301,4.308-0.728,5.812-2.266c1.022-1.045,1.579-2.475,2.117-3.859
						c1.965-5.055,4.631-15.805,4.631-15.805s6.517-8.163,9.154-13.417"/>
					<g>
						<path style="fill:#FFC166;" d="M220.525,410.928c0,0-1.879,1.212-2.502,1.457c-1.873,0.736-3.924,2.092-5.014,3.843
							c-0.716,1.15-0.692,2.776-0.677,4.255c0.006,0.58,0.457,1.045,1.013,1.045h37.234c0.531,0,0.982-0.407,1.059-0.956
							l0.974-6.935L220.525,410.928z"/>
						<path style="fill:none;stroke:#DD802C;stroke-miterlimit:10;" d="M212.327,418.804c0.023-0.002,39.56,0,39.56,0"/>
						<path style="fill:none;stroke:#DD802C;stroke-miterlimit:10;" d="M217.102,412.726c0.847,0.695,1.762,1.299,2.726,1.801"/>
						<path style="fill:none;stroke:#DD802C;stroke-miterlimit:10;" d="M219.177,412c0.578,0.455,1.21,0.835,1.876,1.13"/>
					</g>
					<path style="fill:#FFC166;" d="M291.276,310.992c-8.016,0.004-15.614,3.758-23.615,4.227c-2.88,0.169-5.84-0.083-8.589,0.793
						c-3.013,0.96-5.492,3.221-7.199,5.883c-4.318,6.736-6.462,32.476-10.863,36.089c-5.079,4.169-10.187,9.444-13.375,15.24
						c-1.544,2.809-4.004,8.737,0.513,10.005c6.894,1.936,13.717,4.824,20.53,7.265c2.792,1,5.586,1.996,8.381,2.987
						c0.375,0.133,3.106,1.454,3.452,1.22c0,0,8.997-6.076,13.807-9.409c3.057-2.118,6.197-4.321,8.184-7.464l23.788,1.994
						C316.821,364.203,298.862,328.236,291.276,310.992z"/>
					<path style="fill:none;stroke:#161313;stroke-linejoin:round;stroke-miterlimit:10;" d="M246.954,338.81
						c0,0,1.884-7.96,1.981-11.881"/>
					<path style="fill:none;stroke:#161313;stroke-linejoin:round;stroke-miterlimit:10;" d="M252.587,367.294
						c5.381,3.144,10.283,7.106,14.484,11.709"/>
					<path style="fill:none;stroke:#161313;stroke-linejoin:round;stroke-miterlimit:10;" d="M255.463,361.52
						c3.173,2.233,5.839,5.181,7.745,8.56"/>
					<path style="fill:none;stroke:#DD802C;stroke-miterlimit:10;" d="M231.459,384.36c-0.02-0.587,0.145-1.147,0.325-1.658
						c0.485-1.38,1.107-2.634,1.836-3.699"/>
					<path style="fill:none;stroke:#DD802C;stroke-miterlimit:10;" d="M237.87,386.303c0.642-1.677,1.406-3.212,2.268-4.556"/>
					<path style="fill:none;stroke:#DD802C;stroke-miterlimit:10;" d="M244.943,389.04c0.886-1.318,1.749-2.684,2.585-4.093"/>
					<path style="fill:none;stroke:#DD802C;stroke-miterlimit:10;" d="M251.847,391.617c0.915-1.047,1.804-2.146,2.665-3.295"/>
					<path style="fill:none;stroke:#DD802C;stroke-miterlimit:10;" d="M257.069,393.59c1.295-0.79,2.424-1.808,3.311-2.982"/>
				</g>
			</g>
			<g>
				<path style="fill:#964338;" d="M211.424,338.567c1-2.57,2.586-4.696,4.833-6.301c0.397-0.283,0.799-0.561,1.206-0.83
					l-0.001,0.013c0.911-1.33,1.951-2.53,3.221-3.608l0,0.008c0.919-1.657,2.071-3.168,3.546-4.347
					c0.981-0.784,2.081-1.404,3.175-2.021l-0.003,0.208c3.815-5.672,9.526-10.309,15.838-12.396
					c2.708-0.895,6.302-0.989,9.114-1.466l-15.946,17.681c-1.927,5.455-2.477,7.379-2.634,13.163
					c-0.031,1.134-0.027,2.276-0.245,3.389c-0.499,2.563-2.343,4.879-4.596,6.149c-0.584,0.329-1.24,0.602-1.917,0.777l-0.002,0.109
					c-0.522,2.595-4.134,4.434-6.697,3.633c-0.499,1.164-2.204,1.475-3.32,1.356c-0.765-0.082-1.377-0.364-1.874-0.773l-0.003,0.025
					c-0.998,0.609-2.347,0.584-3.321-0.061c-2.223-1.471-2.265-4.981-2.056-7.337C209.962,343.451,210.515,340.902,211.424,338.567z
					"/>
				<path style="fill:none;stroke:#161313;stroke-linejoin:round;stroke-miterlimit:10;" d="M227.772,321.135
					c-1.537,2.187-2.791,4.54-3.683,6.969c-0.399,1.086-0.721,2.2-0.952,3.333c-0.507,2.484-0.727,5.017-0.821,7.548
					c-0.089,2.417-0.326,5.031,0.055,7.421c0.11,0.686,0.318,1.385,0.785,1.9c0.516,0.568,1.295,0.844,2.061,0.884
					c0.593,0.031,1.204-0.046,1.798-0.201"/>
				<path style="fill:none;stroke:#161313;stroke-linejoin:round;stroke-miterlimit:10;" d="M222.451,340.947
					c1.263-0.477,2.532-1.066,3.834-1.425c1.001-0.276,1.955,0.125,2.306,1.144c0.541,1.569-0.391,3.369-1.626,4.336
					c-2.139,1.676-4.641,1.086-4.641,1.086"/>
				<path style="fill:none;stroke:#161313;stroke-linejoin:round;stroke-miterlimit:10;" d="M221.127,327.082
					c-0.803,1.296-1.444,2.708-1.967,4.14c-2.035,5.574-2.475,11.677-1.593,17.545c0.147,0.975,0.441,2.003,1.047,2.796
					c0.45,0.589,1.04,0.97,1.699,1.176"/>
				<path style="fill:none;stroke:#161313;stroke-linejoin:round;stroke-miterlimit:10;" d="M217.676,331.13
					c-0.859,1.205-1.599,2.523-2.291,3.969c-1.418,2.963-2.087,6.002-2.285,9.26c-0.057,0.93-0.085,1.861-0.048,2.792
					c0.082,2.04,0.432,4.821,2.065,6.166"/>
				<g>
					<path style="fill:#964338;" d="M249.757,310.705c-1.515,5.862-4.861,15.65-9.097,20.344c-2,2.216-4.76,3.128-7.689,2.597
						c-0.268-0.049-0.534-0.108-0.797-0.176c-1.074-0.278-2.114-0.937-2.544-1.96c-0.831-1.981,0.843-3.669,1.696-5.355
						c1.65-3.261,4.297-10.417,4.297-10.417"/>
					<path style="fill:none;stroke:#161313;stroke-linejoin:round;stroke-miterlimit:10;" d="M234.133,334.064
						c-1.731,0.052-3.804-0.89-4.503-2.554c-0.831-1.981,0.843-3.669,1.696-5.355c1.65-3.261,4.297-10.417,4.297-10.417"/>
					<path style="fill:none;stroke:#161313;stroke-linejoin:round;stroke-miterlimit:10;" d="M231.648,325.496
						c0.998,0.366,1.884,0.457,2.941,0.391c0.545-0.034,1.149-0.111,1.595,0.201c0.591,0.413,0.576,1.268,0.425,1.871
						c-0.243,0.971-0.854,1.96-1.877,2.312c-0.486,0.167-1.019,0.179-1.538,0.133c-1.278-0.114-2.528-0.577-3.563-1.32"/>
				</g>
				<path style="fill:none;stroke:#161313;stroke-linejoin:round;stroke-miterlimit:10;" d="M209.721,348.769
					c0.615-0.073,1.246-0.238,1.865-0.119c0.283,0.055,0.563,0.175,0.755,0.383c0.115,0.124,0.195,0.274,0.257,0.428
					c0.232,0.572,0.38,1.423-0.156,1.887c-0.463,0.401-1.236,0.441-1.813,0.353"/>
				<path style="fill:none;stroke:#161313;stroke-linejoin:round;stroke-miterlimit:10;" d="M217.397,345.798
					c1.336-0.164,2.601-0.676,3.908-0.997c0.243-0.06,0.519-0.108,0.728,0.031"/>
				<path style="fill:none;stroke:#161313;stroke-linejoin:round;stroke-miterlimit:10;" d="M222.832,348.327
					c-1.339,1.157-3.346,1.587-5.142,1.101"/>
				<path style="fill:none;stroke:#161313;stroke-linejoin:round;stroke-miterlimit:10;" d="M213.05,347.692
					c0.754-0.124,1.508-0.249,2.262-0.373c0.308-0.051,0.573-0.04,0.811,0.183c0.357,0.336,0.579,0.846,0.68,1.356
					c0.045,0.225,0.065,0.461,0.029,0.695c-0.148,0.973-1.083,1.471-1.87,1.578c-0.398,0.054-0.794,0.035-1.189,0.022"/>
			</g>
			<g>
				<g>
					<circle style="fill:#D2D8E6;" cx="213.911" cy="413.701" r="38.599"/>
					<circle style="fill:#847DCC;" cx="213.911" cy="413.701" r="10.807"/>
					<circle style="fill:#D2D8E6;" cx="319.742" cy="427.597" r="24.703"/>
					<circle style="fill:#847DCC;" cx="319.742" cy="427.597" r="6.891"/>
					<path style="fill:none;stroke:#E2603D;stroke-width:3;stroke-linecap:round;stroke-miterlimit:10;" d="M196.569,371.486
						c0,0-5.292-6.88,0-6.88h49.878c2.573,0,4.828,1.722,5.505,4.205l0.441,1.617"/>
					
						<line style="fill:none;stroke:#E2603D;stroke-width:3;stroke-linecap:round;stroke-miterlimit:10;" x1="220.35" y1="364.606" x2="213.911" y2="413.701"/>
					
						<line style="fill:none;stroke:#E2603D;stroke-width:3;stroke-linecap:round;stroke-miterlimit:10;" x1="323.526" y1="394.703" x2="319.742" y2="427.597"/>
					<polyline style="fill:none;stroke:#E2603D;stroke-width:3;stroke-linecap:round;stroke-miterlimit:10;" points="
						281.618,393.252 277.661,427.793 269.794,433.403 253.736,433.403 					"/>
					<polyline style="fill:none;stroke:#E2603D;stroke-width:3;stroke-linecap:round;stroke-miterlimit:10;" points="
						219.723,369.389 280.982,394.104 337.456,394.104 					"/>
					<path style="fill:#E2603D;" d="M295.966,382.279c-1.577,0-19.368,0-21.727,0c-2.358,0-7.946,1.735-4.989,4.511
						c2.957,2.776,10.807,6.709,16.099,6.709c5.293,0,12.818,0,16.274,0C305.081,393.499,304.641,382.279,295.966,382.279z"/>
				</g>
				<g>
					<path style="fill:#D8946F;" d="M267.233,386.52c-8.044,10.77-5.854,20.848-8.819,32.711c-0.238,0.954-0.851,1.793-1.53,2.504
						c-1.141,1.194-2.785,1.735-4.191,2.6c-1.406,0.865-2.694,2.392-2.337,4.004c0.455,2.057,3.059,2.655,5.161,2.793
						c9.622,0.631,19.307,0.283,28.858-1.039c2.307-0.319,4.766-0.772,6.43-2.402c1.131-1.108,1.746-2.624,2.342-4.09
						c2.174-5.358,5.123-16.753,5.123-16.753s7.21-8.652,10.127-14.221"/>
					<path style="fill:#FFC166;" d="M285.505,303.076c6.904,3.111,12.812,5.578,17.334,11.615
						c4.864,6.492,8.03,16.554,12.054,23.588c1.929,3.372,4.102,6.612,5.825,10.092c5.147,10.395,6.569,23.381,1.919,34.208
						c-1.252,2.916-2.913,5.599-5.184,7.851c-2.064,2.046-4.819,3.602-6.611,5.855c-1.671,2.101-3.496,4.403-6.029,5.483
						c-0.578,0.247-1.205,0.424-1.83,0.359c-0.58-0.06-1.116-0.323-1.639-0.58c-11.319-5.555-22.932-9.996-35.408-12.326
						c-0.293-0.055-0.604-0.118-0.818-0.325c-1.06-1.024-0.401-3.401-0.146-4.598c0.398-1.868,0.992-3.715,1.988-5.345
						c1.861-3.046,4.981-5.114,8.216-6.623c3.235-1.509,6.672-2.559,9.872-4.142c1.841-0.911,3.596-1.996,5.234-3.235"/>
					<path style="fill:none;stroke:#161313;stroke-linejoin:round;stroke-miterlimit:10;" d="M264.794,390.274
						c-0.487-3.773-0.179-7.78,1.674-11.169c1.983-3.627,5.526-5.63,9.152-7.34c7.528-3.55,16.372-4.657,24.568-3.297"/>
					<g>
						<path style="fill:#FFC166;" d="M257.648,420.728c0,0-2.078,1.285-2.768,1.544c-2.072,0.78-4.341,2.217-5.548,4.074
							c-0.792,1.219-0.765,2.942-0.749,4.51c0.006,0.615,0.505,1.108,1.12,1.108h41.192c0.588,0,1.087-0.431,1.172-1.013
							l1.077-7.351L257.648,420.728z"/>
						<path style="fill:none;stroke:#DD802C;stroke-miterlimit:10;" d="M248.578,429.076c0.026-0.002,43.765,0,43.765,0"/>
						<path style="fill:none;stroke:#DD802C;stroke-miterlimit:10;" d="M253.86,422.634c0.937,0.736,1.95,1.377,3.016,1.909"/>
						<path style="fill:none;stroke:#DD802C;stroke-miterlimit:10;" d="M256.156,421.864c0.64,0.482,1.339,0.885,2.076,1.198"/>
					</g>
					<path style="fill:none;stroke:#161313;stroke-linejoin:round;stroke-miterlimit:10;" d="M291.366,365.587
						c4.466-2.006,9.54-1.996,14.435-1.951"/>
				</g>
				<path style="fill:none;stroke:#DD802C;stroke-miterlimit:10;" d="M270.241,390.141c-0.08-1.004,0.202-2.011,0.653-2.911
					s1.065-1.707,1.69-2.496"/>
				<path style="fill:none;stroke:#DD802C;stroke-miterlimit:10;" d="M278.35,392.184c0.504-1.758,1.556-3.355,2.972-4.512"/>
				<path style="fill:none;stroke:#DD802C;stroke-miterlimit:10;" d="M285.983,394.756c0.606-1.333,1.472-2.547,2.535-3.553"/>
				<path style="fill:none;stroke:#DD802C;stroke-miterlimit:10;" d="M292.026,397.448c0.209-0.153,0.34-0.387,0.477-0.607
					c0.65-1.043,1.568-1.917,2.641-2.515"/>
				<path style="fill:none;stroke:#DD802C;stroke-miterlimit:10;" d="M299.305,400.355c1.015-0.771,2.031-1.543,3.046-2.314
					c0.116-0.088,0.233-0.177,0.335-0.28"/>
			</g>
			<g>
				<path style="fill:#D8946F;" d="M287.913,304.314l1.843,4.599c0,0-1.584,9.906-16.796,12.906
					c-10.852,2.14-13.59-1.776-13.59-1.776l-3.458-7.979l29.844-14.947"/>
				<path style="fill:#D8946F;" d="M287.985,263.13c-3.71-7.9-11.131-14.318-19.787-15.44c-10.522-1.364-21.755,3.074-29.233,10.425
					c-9.547,9.385-14.926,27.441-12.012,40.595c4.237,19.124,27.405,25.019,44.608,16.809
					C289.735,306.845,296.235,280.7,287.985,263.13z"/>
				<path style="fill:#FFFFFF;" d="M253.768,302.272c-0.154-0.445-0.411-0.853-0.756-1.173c-1.594-1.476-3.842-0.427-4.294,1.55
					c-0.215,0.942,0.061,1.992,0.745,2.674c0.684,0.682,1.762,0.954,2.674,0.636c0.996-0.347,1.691-1.351,1.789-2.401
					C253.967,303.124,253.911,302.683,253.768,302.272z"/>
				<path style="fill:#161313;" d="M263.437,288.238c0,1.698-0.847,3.075-1.893,3.075s-1.892-1.377-1.892-3.075
					c0-1.699,0.847-3.075,1.892-3.075S263.437,286.539,263.437,288.238z"/>
				<path style="fill:#161313;" d="M236.764,289.657c0,1.699-0.847,3.075-1.892,3.075c-1.045,0-1.893-1.377-1.893-3.075
					c0-1.698,0.847-3.075,1.893-3.075C235.917,286.582,236.764,287.959,236.764,289.657z"/>
				<path style="fill:#472415;" d="M303.408,274.399c-1.8-13.93-8.148-27.878-21.034-32.273c-6.177-2.107-14.391-2.448-20.602-0.617
					c-5.711-0.239-9.475,0.763-14.245,3.147c-3.084,1.542-5.958,3.614-8.463,6.146c-5.781,5.842-9.562,14.089-10.424,22.737
					c4.192,1.017,8.821-0.622,11.718-4.152c0.151,2.736,2.181,5.056,4.539,5.827c2.359,0.771,4.939,0.202,7.153-0.989
					c2.214-1.191,4.127-2.963,6.016-4.718c-0.212,3.086,3.018,5.331,5.769,4.924c2.751-0.407,5.004-2.551,7.081-4.603
					c0.354,1.464,0.144,3.015,0.191,4.531c0.047,1.516,0.458,3.186,1.624,3.966c1.29,0.865,2.964,0.301,4.281-0.511
					c1.908-1.177,3.571-2.845,4.823-4.836c-1.171,5.252-2.564,12.881,6.419,32.659c0.295-0.006,5.263-3.894,5.494-4.099
					C300.716,295.371,304.677,284.219,303.408,274.399z"/>
				<path style="fill:#472415;" d="M232.138,263.516c-7.848,0-10.449-2.074-15.583-3.485c-1.631-0.448-3.481-1.146-4.001-2.756
					c-0.787-2.437,1.752-6.832,3.786-8.095c0.755-0.469,1.635-0.72,2.359-1.236c1.123-0.801,1.359-1.95,1.804-3.156
					c0.534-1.444,1.193-2.847,2.154-4.06c1.62-2.045,4.315-3.463,6.842-2.814c1.626,0.418,2.935,1.602,4.095,2.816
					c3.576,3.742,6.538,8.55,6.31,13.721"/>
				<path style="fill:#472415;" d="M294.685,258.526c0.397-3.623,3.189-6.548,6.249-8.529c4.229-2.737,9.258-4.222,14.295-4.219
					c1.398,0.001,2.86,0.133,4.044,0.877c2.151,1.351,2.699,4.189,3.047,6.706c0.176,1.274-0.118,2.642-0.381,3.956
					c-0.36,1.803,0.416,1.729,1.083,3.251c0.503,1.149,0.65,2.364,0.195,3.559c-0.191,0.501-0.467,0.97-0.619,1.484
					c-0.516,1.743,0.463,3.649,0.024,5.413c-0.38,1.528-1.784,2.634-3.289,3.097c-1.505,0.462-3.116,0.392-4.689,0.304
					c-6.396-0.357-10.086-1.302-16.144-2.939"/>
				<path style="fill:none;stroke:#161313;stroke-linejoin:round;stroke-miterlimit:10;" d="M258.163,319.124
					c6.912-0.027,13.064-3.009,18.481-6.696"/>
				<g>
					<path style="fill:#D8946F;" d="M279.269,289.265c1.018-2.389,3.276-3.889,6.181-3.503c3.462,0.459,5.233,4.208,5.294,7.367
						c0.094,4.853-4.326,12.416-9.495,11.016c-2.353-0.638-3.245-2.626-3.273-4.909c-0.031-2.623,0.434-5.432,0.77-8.025
						C278.837,290.516,279.014,289.863,279.269,289.265z"/>
					<path style="fill:none;stroke:#161313;stroke-linejoin:round;stroke-miterlimit:10;" d="M286.327,292.074
						c-2.121,1.653-5.348,4.778-7.398,6.518"/>
					<path style="fill:none;stroke:#161313;stroke-linejoin:round;stroke-miterlimit:10;" d="M289.5,298.87
						c-0.555,0.922-1.629,2.576-2.618,3.368c-1.256,1.006-2.88,1.716-4.519,1.806c-1.545,0.085-3.523-0.48-4.258-1.983"/>
					<path style="fill:none;stroke:#161313;stroke-linejoin:round;stroke-miterlimit:10;" d="M281.016,286.941
						c-1.46,1.312-2.487,3.1-2.883,5.023"/>
				</g>
				<g>
					<path style="fill:none;stroke:#FFC166;stroke-width:2;stroke-miterlimit:10;" d="M299.495,261.085
						c-0.328-1.082-0.955-2.175-2.007-2.59c-1.348-0.533-3,0.361-3.505,1.72c-0.504,1.359,0.024,2.966,1.08,3.96
						c0.603,0.567,1.353,0.952,2.146,1.18c0.642,0.184,2.167,0.457,2.167,0.457s-0.055,2.637,0.051,3.533
						c0.246,2.07,2.062,3.769,4.237,3.061c1.468-0.478,2.422-2.228,1.927-3.69c-0.28-0.826-0.945-1.481-1.706-1.908
						c-0.761-0.427-1.617-0.651-2.47-0.834c-0.658-0.141-1.319-0.262-1.985-0.361C299.606,264.148,299.949,262.529,299.495,261.085z
						"/>
					<path style="fill:none;stroke:#FFC166;stroke-width:2;stroke-linejoin:round;stroke-miterlimit:10;" d="M293.165,274.35
						c1.271-3.457,3.449-6.575,6.257-8.958c-0.572,1.013-0.835,2.238-1.017,3.387c-0.53,3.354-0.976,6.794-0.33,10.127"/>
				</g>
				<g>
					<path style="fill:none;stroke:#FFC166;stroke-width:2;stroke-miterlimit:10;" d="M237.86,254.222
						c1.001-0.525,2.219-0.846,3.253-0.389c1.326,0.587,1.849,2.391,1.234,3.704c-0.614,1.313-2.13,2.065-3.579,2.01
						c-0.827-0.031-1.628-0.296-2.346-0.701c-0.581-0.328-1.847-1.223-1.847-1.223s-1.84,1.89-2.553,2.444
						c-1.647,1.278-4.132,1.176-5.154-0.87c-0.69-1.381-0.113-3.289,1.276-3.962c0.785-0.38,1.718-0.366,2.556-0.124
						s1.598,0.695,2.328,1.174c0.562,0.369,1.112,0.756,1.65,1.16C235.599,256.293,236.512,254.912,237.86,254.222z"/>
					<path style="fill:none;stroke:#FFC166;stroke-width:2;stroke-linejoin:round;stroke-miterlimit:10;" d="M232.853,268.041
						c1.57-3.331,2.263-7.071,1.989-10.744c-0.32,1.118-1.008,2.165-1.699,3.101c-2.017,2.732-4.154,5.464-6.982,7.343"/>
				</g>
				<path style="fill:none;stroke:#161313;stroke-width:1.5;stroke-linejoin:round;stroke-miterlimit:10;" d="M258.351,280.128
					c0.517-0.599,1.066-1.221,1.807-1.497c0.369-0.138,0.767-0.181,1.16-0.18c2.029,0.008,3.998,1.292,4.824,3.146"/>
				<path style="fill:none;stroke:#161313;stroke-width:1.5;stroke-linejoin:round;stroke-miterlimit:10;" d="M230.042,279.525
					c1.16-0.891,2.517-1.605,3.977-1.697c1.46-0.093,3.025,0.543,3.743,1.817"/>
				<path style="fill:none;stroke:#161313;stroke-width:1.5;stroke-linejoin:round;stroke-miterlimit:10;" d="M243.966,293.526
					c-0.402,0.412-0.737,1.002-0.89,1.704c-0.208,0.954-0.111,2.027,0.62,2.741c1.236,1.206,3.715,0.706,4.367-0.908"/>
				<path style="fill:#CC8160;" d="M272.334,300.581c-0.485-2.518-2.884-4.742-5.468-5.39c-3.456-0.866-7.512,0.474-8.253,4.317
					c-0.866,4.498,2.068,7.479,6.442,7.409c1.599-0.025,3.236-0.261,4.634-1.036C271.581,304.832,272.752,302.75,272.334,300.581z"
					/>
				<path style="fill:#CC8160;" d="M241.11,300.309c-0.133-0.88-0.469-1.735-1-2.462c-1.59-2.176-4.676-3.333-7.256-2.374
					c-2.889,1.074-3.146,4.775-2.486,7.355c0.24,0.94,0.71,1.849,1.465,2.495c1.306,1.117,3.37,1.322,5.017,0.933
					C239.753,305.57,241.537,303.152,241.11,300.309z"/>
			</g>
			<g>
				<path style="fill:#D8946F;" d="M273.004,331.648c-2.177,6.608-4.92,13.004-5.461,13.62c-0.445,0.508-19.48,12.405-19.48,12.405
					l21.256,9.871c0,0,18.295-5.52,27.666-18.59c5.072-7.074,1.946-24.699,1.946-24.699"/>
				<g>
					<path style="fill:#D8946F;" d="M254.53,353.618c-2.624,1.524-6.526,3.371-8.428,5.478c-1.731,1.918-2.625,3.743-2.855,6.317
						c-0.099,1.102,0.319,1.984,0.909,2.92c0.589,0.936,1.483,1.056,2.408,1.017c0.368,0.585,0.797,1.156,1.39,1.511
						c0.593,0.355,1.383,0.451,1.967,0.082c0.229,0.793,0.813,1.516,1.604,1.751c0.792,0.234,1.763-0.131,2.073-0.897
						c0.455,0.467,0.924,0.943,1.511,1.227c0.588,0.283,1.329,0.339,1.868-0.028c0.377-0.256,0.628-0.694,1.051-0.862
						c0.372-0.148,0.791-0.054,1.183,0.029c0.778,0.165,1.572,0.277,2.367,0.262c2.263-0.041,4.411-1.115,6.146-2.569
						c1.735-1.454,3.116-3.278,4.48-5.084"/>
					<path style="fill:none;stroke:#161313;stroke-width:0.75;stroke-linejoin:round;stroke-miterlimit:10;" d="M258.171,372.016
						c-0.375-0.541-0.797-1.049-1.26-1.517"/>
					<path style="fill:none;stroke:#161313;stroke-width:0.75;stroke-linejoin:round;stroke-miterlimit:10;" d="M253.647,371.77
						c-0.45-0.881-0.759-1.888-0.555-2.856c0.204-0.969,0.906-1.777,1.741-2.308c0.835-0.531,1.799-0.82,2.758-1.065"/>
					<path style="fill:none;stroke:#161313;stroke-width:0.75;stroke-linejoin:round;stroke-miterlimit:10;" d="M249.813,370.901
						c-0.292-1.409-0.366-2.937,0.281-4.264c0.628-1.29,1.925-2.498,3.367-2.753"/>
					<path style="fill:none;stroke:#161313;stroke-width:0.75;stroke-linejoin:round;stroke-miterlimit:10;" d="M246.596,369.396
						c-0.24-0.856-0.481-1.724-0.493-2.613c-0.024-1.826,1.01-3.629,2.598-4.53"/>
					<path style="fill:none;stroke:#161313;stroke-width:0.75;stroke-linejoin:round;stroke-miterlimit:10;" d="M252.908,354.512
						c1.41-0.641,2.82-1.281,4.229-1.922"/>
					<path style="fill:none;stroke:#161313;stroke-width:0.75;stroke-linejoin:round;stroke-miterlimit:10;" d="M271.203,366.602
						c1.039-1.293,2.616-2.007,3.97-2.965"/>
				</g>
				<path style="fill:#FFC166;" d="M276.741,323.564c-4.736,3.78-7.737,9.652-8.026,15.704c-0.044,0.921,0.542,1.203,1.33,1.301
					c4.615,0.576,9.306,0.628,13.882,1.442c4.522,0.804,9.16,3.085,13.904,3.82c0.301,0.047,0.613,0.093,0.907,0.015
					c0.211-0.056,0.4-0.173,0.579-0.299c2.165-1.53,3.669-6.294,3.717-8.828c0.05-2.706,0.549-5.381,0.318-8.102
					c-0.448-5.284-2.64-7.898-6.126-11.938"/>
				<path style="fill:none;stroke:#DD802C;stroke-miterlimit:10;" d="M294.356,343.444c0.983-1.276,1.722-2.739,2.168-4.287"/>
				<path style="fill:none;stroke:#DD802C;stroke-miterlimit:10;" d="M287.685,342.3c0.698-1.068,1.216-2.253,1.528-3.49"/>
				<path style="fill:none;stroke:#DD802C;stroke-miterlimit:10;" d="M273.303,340.843c0.387-1.354,0.922-2.666,1.594-3.904"/>
				<path style="fill:none;stroke:#161313;stroke-linejoin:round;stroke-miterlimit:10;" d="M275.024,324.65
					c-2.905,3.805-5.93,7.923-6.21,12.702c-0.069,1.18,0.042,2.393,0.523,3.472"/>
				<path style="fill:none;stroke:#161313;stroke-linejoin:round;stroke-miterlimit:10;" d="M304.359,329.959
					c0.288,3.997-0.347,8.057-1.842,11.775c-0.757,1.883-1.911,3.837-3.84,4.47"/>
			</g>
			<g>
				<path style="fill:#D8946F;" d="M209.986,352.267c-2.067,0.862-6.404,2.544-8.21,4.013c-1.806,1.469-3.323,3.622-3.722,6.175
					c-0.19,1.215-0.103,2.541,0.472,3.572c0.576,1.03,1.714,1.664,2.703,1.274c0.279,1.063,1.178,1.803,2.112,1.922
					c0.934,0.119,1.877-0.312,2.616-0.999c0.44,0.912,1.292,1.525,2.178,1.566c0.886,0.041,1.776-0.49,2.275-1.358
					c0.082,0.551,0.456,0.919,0.824,1.238c0.956,0.83,2.759,0.547,4.122-0.28c1.41-0.856,2.041-1.736,2.686-3.272
					c-0.757-0.046-1.514-0.092-2.271-0.138c0.08-0.721,0.237-1.429,0.465-2.104c0.054-0.161,0.118-0.328,0.238-0.427
					c0.086-0.071,0.192-0.099,0.294-0.122c1.502-0.342,5.417-0.072,6.946-0.109c2.893-0.072,7.293-3.967,7.293-3.967"/>
				<path style="fill:none;stroke:#161313;stroke-width:0.75;stroke-linejoin:round;stroke-miterlimit:10;" d="M216.861,362.73
					c-0.674,1.212-1.366,2.492-1.366,3.878"/>
				<path style="fill:none;stroke:#161313;stroke-width:0.75;stroke-linejoin:round;stroke-miterlimit:10;" d="M210.312,368.406
					c-0.778-1.93-0.631-4.211,0.39-6.025"/>
				<path style="fill:none;stroke:#161313;stroke-width:0.75;stroke-linejoin:round;stroke-miterlimit:10;" d="M205.679,367.972
					c-0.735-1.986-0.689-4.249,0.124-6.204"/>
				<path style="fill:none;stroke:#161313;stroke-width:0.75;stroke-linejoin:round;stroke-miterlimit:10;" d="M200.998,367.279
					c-0.292-0.923-0.467-1.884-0.518-2.851c-0.036-0.682-0.009-1.381,0.231-2.021c0.304-0.81,0.92-1.457,1.52-2.079"/>
			</g>
		</g>
		<g>
			<path style="fill:#AF5248;" d="M465.052,169.491c0,0-27.136,54.513-43.809,83.402l-72.398,48.871l23.606,36.716
				c0,0,65.377-5.214,100.504-30.457c35.127-25.243,47.964-92.204,47.964-92.204"/>
			<path style="fill:#847DCC;" d="M465.425,160.408c-3.692,5.538-10.467,17.229-16.156,29.536
				c-5.689,12.307-16.024,40.25-16.024,40.25l75.561,32.081l25.981-50.933"/>
			
				<line style="fill:none;stroke:#5654A3;stroke-width:1.5;stroke-linejoin:round;stroke-miterlimit:10;" x1="438.445" y1="216.444" x2="515.615" y2="248.925"/>
			
				<line style="fill:none;stroke:#161313;stroke-width:1.5;stroke-linejoin:round;stroke-miterlimit:10;" x1="508.806" y1="262.274" x2="534.787" y2="211.341"/>
			<path style="fill:none;stroke:#161313;stroke-width:1.5;stroke-linejoin:round;stroke-miterlimit:10;" d="M465.425,160.408
				c-3.692,5.538-10.467,17.229-16.156,29.536c-5.689,12.307-16.024,40.25-16.024,40.25"/>
			<g>
				<path style="fill:#AF5248;" d="M334.91,299.523c-3.821,1.355-7.549,2.926-10.988,5.13c-4.214,2.701-8.365,5.247-13.682,5.473
					c-2.659,0.113-5.769,0.118-7.238,2.596c-0.844,1.425-0.906,3.328-0.132,5.04c1.45,3.209,4.168,6.208,7.877,6.219
					c-0.046,0.072-0.095,0.14-0.141,0.212c-2.226,3.488-4.301,6.733-5.253,10.997c-0.914,4.093-1.175,8.409-1.171,12.736
					c0.002,2.079,0.059,4.184-0.313,6.171c-0.207,1.102-0.545,2.176-0.506,3.335c0.059,1.759,1.063,3.594,2.543,4.647
					c1.477,1.052,2.616,0.837,4.047,0.144c0.121,0.775,0.229,1.555,0.306,2.362c0.61,6.402,7.797,6.128,10.852,2.927
					c0.321,0.797,0.836,1.493,1.652,1.918c1.354,0.706,2.573,0.942,3.855,0.584c0.745-0.208,2.886-1.065,3.367-2.381
					c0.924,0.439,2.016,0.542,2.953,0.369c1.689-0.312,3.176-1.287,4.126-2.706c1.705-2.546,1.579-6.125,2.353-9.228
					c0.482-1.931,1.442-3.599,2.213-5.363c1.725-3.947,4.674-3.047,8.312-2.897c3.582,0.148,7.117-0.161,10.513-0.898
					c6.891-1.495,13.225-4.755,18.237-9.55c0,0-10.994-48.12-10.994-48.12c-7.842,2.021-15.541,4.547-23.216,7.119
					C341.303,297.425,338.075,298.4,334.91,299.523z"/>
				<path style="fill:none;stroke:#161313;stroke-linejoin:round;stroke-miterlimit:10;" d="M332.586,304.27
					c-8.741,5.18-16.542,11.251-22.155,20.045"/>
				<path style="fill:none;stroke:#161313;stroke-linejoin:round;stroke-miterlimit:10;" d="M320.846,320.853
					c-4.994,4.082-8.638,9.329-11.021,15.055c-2.317,5.567-2.391,15.643-0.91,22.066c0.381,1.653,0.701,3.202,0.933,4.793"/>
				<path style="fill:none;stroke:#161313;stroke-linejoin:round;stroke-miterlimit:10;" d="M329.575,326.86
					c-6.928,6.588-12.079,14.078-10.845,22.866c0.449,3.198,1.87,11.284,1.735,14.425c-0.048,1.113,0.025,2.511,0.542,3.66"/>
				<path style="fill:none;stroke:#161313;stroke-linejoin:round;stroke-miterlimit:10;" d="M342.108,334.025
					c-3.346,1.697-6.655,3.597-9.339,6.252c-2.681,2.653-3.915,6.191-4.911,9.963c-1.037,3.924,0.011,8.394-0.099,12.596
					c-0.03,1.153-0.128,2.384,0.456,3.457c0.442,0.812,0.944,1.048,1.77,1.34"/>
				<path style="fill:none;stroke:#161313;stroke-linejoin:round;stroke-miterlimit:10;" d="M327.667,363.834
					c0.921,0.423,1.904,0.635,2.852,0.613c1.527-0.036,2.717-1.346,2.857-2.911c0.069-0.777-0.184-1.657-0.763-2.256
					c-0.708-0.732-1.723-0.916-2.651-1.056c-0.749-0.113-1.497-0.225-2.246-0.338"/>
				<path style="fill:none;stroke:#161313;stroke-linejoin:round;stroke-miterlimit:10;" d="M320.669,365.135
					c0.576,0.021,1.151,0.208,1.727,0.292c1.68,0.243,3.569-0.753,3.687-2.615c0.059-0.925-0.234-1.989-0.974-2.629
					c-0.667-0.577-1.544-0.697-2.346-0.714c-0.803-0.017-1.625,0.036-2.409-0.288"/>
				<path style="fill:none;stroke:#161313;stroke-linejoin:round;stroke-miterlimit:10;" d="M310.233,363.998
					c1.442,0.491,2.966,0.917,4.345,0.604c0.353-0.08,0.69-0.208,1.001-0.38c1.295-0.716,2.243-2.536,0.948-4.09
					c-0.9-1.08-2.214-1.23-3.387-1.278c-1.232-0.051-2.463-0.102-3.694-0.153c-0.092-0.004-0.226-0.057-0.208-0.149"/>
				<path style="fill:none;stroke:#161313;stroke-linejoin:round;stroke-miterlimit:10;" d="M303.514,355.849
					c1.484,0.773,3.109,1.144,4.654,1.063"/>
				<path style="fill:none;stroke:#161313;stroke-linejoin:round;stroke-miterlimit:10;" d="M304.179,350.319
					c1.171,0.002,2.377,0.274,3.512,0.791"/>
				<path style="fill:none;stroke:#161313;stroke-linejoin:round;stroke-miterlimit:10;" d="M324.994,315.904
					c0.833-0.857,1.77-1.604,2.788-2.221"/>
				<path style="fill:none;stroke:#161313;stroke-linejoin:round;stroke-miterlimit:10;" d="M332.986,322.979
					c1.145-0.807,2.105-1.992,3.521-2.233"/>
				<path style="fill:none;stroke:#161313;stroke-linejoin:round;stroke-miterlimit:10;" d="M344.793,331.814
					c1.059-0.679,2.244-1.167,3.498-1.439"/>
				<path style="fill:none;stroke:#161313;stroke-linejoin:round;stroke-miterlimit:10;" d="M305.501,310.828
					c0.6,0.86,1.235,1.695,1.902,2.502c0.707,0.855,1.528,1.607,2.559,1.857c0.948,0.229,1.935,0.063,2.646-0.495
					c1.451-1.137,0.408-3.038-0.392-4.552"/>
				<path style="fill:none;stroke:#161313;stroke-linejoin:round;stroke-miterlimit:10;" d="M377.214,338.507
					c0.123-0.687,0.792-1.116,1.398-1.461c1.665-0.946,3.33-1.893,4.994-2.839"/>
			</g>
		</g>
	</g>
	<g>
		<path style="fill:none;stroke:#847DCC;stroke-width:3.5;stroke-linecap:round;stroke-linejoin:round;stroke-miterlimit:10;" d="
			M196.076,79.717c5.868-1.375,12.281-0.243,17.323,3.059c5.042,3.302,8.643,8.728,9.729,14.656c0.448,2.449,0.284,5.4-1.743,6.844
			c-1.176,0.837-2.702,0.951-4.144,1.023c-2.781,0.139-5.884,0.118-7.922-1.78c-2.647-2.464-2.023-7.119,0.475-9.734
			c2.498-2.615,6.246-3.598,9.836-4.035c9.3-1.132,20.013,1.428,24.793,9.486"/>
		<path style="fill:none;stroke:#847DCC;stroke-width:3.5;stroke-linecap:round;stroke-linejoin:round;stroke-miterlimit:10;" d="
			M521.077,111.132c-0.594-11.915,7.218-18.982,17.518-23.228c10.881-4.485,15.349-8.689,18.114-19.932"/>
		<path style="fill:none;stroke:#FFCD65;stroke-width:3.5;stroke-linecap:round;stroke-linejoin:round;stroke-miterlimit:10;" d="
			M131.837,197.766c7.578-8.532,21.133-11.037,31.26-5.778c1.773,0.921,3.554,2.08,5.551,2.081
			c4.845,0.002,6.883-6.107,10.552-9.271c3.132-2.7,8.014-3.135,11.574-1.032"/>
		<path style="fill:none;stroke:#FFCD65;stroke-width:3.5;stroke-linecap:round;stroke-linejoin:round;stroke-miterlimit:10;" d="
			M282.992,45.209c8.554,7.521,1.829,17.433,5.147,26.032c3.515,9.109,12.343,11.956,10.911,24.03"/>
		<path style="fill:none;stroke:#FFCD65;stroke-width:3.5;stroke-linecap:round;stroke-linejoin:round;stroke-miterlimit:10;" d="
			M574.365,175.037c3.121,2.246,7.729,1.076,10.508-1.582c5.497-5.26,5.284-11.799,13.069-15.299
			c4.89-2.198,10.984-1.943,15.284,1.258"/>
		<path style="fill:none;stroke:#E5783C;stroke-width:3.5;stroke-linecap:round;stroke-linejoin:round;stroke-miterlimit:10;" d="
			M471.681,27.927c-1.075,7.398-0.765,16.531,6.767,20.487c4.167,2.189,11.525-0.362,9.078-6.193
			c-1.946-4.638-8.176-3.614-11.932-2.151c-7.423,2.893-9.771,9.596-10.17,17.195"/>
		<path style="fill:none;stroke:#E5783C;stroke-width:3.5;stroke-linecap:round;stroke-linejoin:round;stroke-miterlimit:10;" d="
			M592,134.129c2.082-5.173,8.071-8.446,13.549-7.405c4.172,0.793,8.049,3.762,12.232,3.028c3.859-0.676,6.432-4.243,8.58-7.519"/>
		<path style="fill:none;stroke:#E5783C;stroke-width:3.5;stroke-linecap:round;stroke-linejoin:round;stroke-miterlimit:10;" d="
			M271.171,152.016c-5.855,4.073-13.651,5.211-20.426,2.981c-2.919-0.96-5.72-2.58-7.505-5.081
			c-1.785-2.501-2.376-5.983-0.953-8.706c0.387-0.74,0.93-1.427,1.67-1.815c0.972-0.51,2.162-0.437,3.202-0.084
			c3.696,1.256,5.547,5.867,4.477,9.621c-1.071,3.754-4.454,6.523-8.164,7.738c-3.709,1.215-7.722,1.088-11.599,0.638
			c-4.169-0.484-8.386-1.359-12.001-3.492"/>
		
			<rect x="548.488" y="141.962" transform="matrix(0.9553 -0.2958 0.2958 0.9553 -19.0465 170.7484)" style="fill:none;stroke:#847DCC;stroke-width:3.5;stroke-linecap:round;stroke-linejoin:round;stroke-miterlimit:10;" width="12.734" height="12.734"/>
		
			<rect x="344.979" y="50.897" transform="matrix(0.4064 -0.9137 0.9137 0.4064 156.2453 355.0201)" style="fill:none;stroke:#E5783C;stroke-width:3.5;stroke-linecap:round;stroke-linejoin:round;stroke-miterlimit:10;" width="12.734" height="12.734"/>
		
			<rect x="270.277" y="184.026" transform="matrix(-0.5 -0.866 0.866 -0.5 250.0831 525.1708)" style="fill:none;stroke:#FFCD65;stroke-width:3.5;stroke-linecap:round;stroke-linejoin:round;stroke-miterlimit:10;" width="12.734" height="12.734"/>
		
			<polygon style="fill:none;stroke:#FFCD65;stroke-width:3.5;stroke-linecap:round;stroke-linejoin:round;stroke-miterlimit:10;" points="
			483.56,77 476.735,88.62 491.298,91.578 		"/>
		
			<polygon style="fill:none;stroke:#E5783C;stroke-width:3.5;stroke-linecap:round;stroke-linejoin:round;stroke-miterlimit:10;" points="
			294.347,117.811 284.781,108.321 278.307,121.697 		"/>
		<circle style="fill:#847DCC;" cx="414.546" cy="45.209" r="3.69"/>
		<circle style="fill:#847DCC;" cx="232.638" cy="207.651" r="3.69"/>
		<circle style="fill:#E5783C;" cx="329.575" cy="166.473" r="3.69"/>
		<circle style="fill:#FFCD65;" cx="530.785" cy="132.115" r="3.69"/>
		<circle style="fill:#FFCD65;" cx="338.437" cy="95.271" r="3.69"/>
	</g>
	<g>
		
			<line style="fill:#FFFFFF;stroke:#231F20;stroke-width:1.6;stroke-miterlimit:10;" x1="109.966" y1="452.3" x2="688.677" y2="452.3"/>
		
			<line style="fill:#FFFFFF;stroke:#231F20;stroke-width:1.6;stroke-miterlimit:10;" x1="61.323" y1="452.3" x2="94.952" y2="452.3"/>
	</g>
</g>
</svg>
